<svg width="1297" height="1308" viewBox="0 0 1297 1308" fill="none" xmlns="http://www.w3.org/2000/svg">
<path fill-rule="evenodd" clip-rule="evenodd" d="M162.092 1037C166.32 1064.89 174.054 1088.51 185.181 1107.36C195.257 1124.42 214.488 1148.55 239.059 1174.96C251.243 1188.05 256.871 1191.97 245.95 1179.76C236.557 1169.25 211.79 1138.91 201.284 1125.04C185.794 1104.59 177.05 1087.22 170.065 1063.02C167.214 1053.14 165.416 1045.38 164.331 1037H195.777C200.017 1076.59 212.164 1104.23 234.971 1127.46C241.681 1134.3 244.047 1138.03 240.475 1136.16C239.475 1135.63 239.25 1135.83 239.877 1136.7C240.43 1137.46 241.432 1137.79 242.105 1137.44C242.777 1137.08 244.085 1138 245.012 1139.49C246.593 1142.01 246.54 1142.07 244.145 1140.4C241.675 1138.69 241.672 1138.74 244.078 1141.88C246.426 1144.95 248.915 1146.67 246.805 1143.77C246.186 1142.91 246.424 1142.72 247.439 1143.26C248.333 1143.73 248.697 1144.62 248.249 1145.24C246.913 1147.07 269.217 1170.43 288.581 1187.47C327.818 1222 368.182 1245.29 418.202 1262.26C433.549 1267.46 431.542 1265.58 415.549 1259.77C407.88 1256.98 401.8 1254.54 402.037 1254.34C402.274 1254.14 410.133 1256.59 419.502 1259.78C437.391 1265.89 456.911 1271.06 476.675 1274.93C483.165 1276.2 487.375 1277.29 486.03 1277.35C484.686 1277.4 477.887 1276.37 470.921 1275.05C463.955 1273.73 457.986 1272.88 457.655 1273.16C456.29 1274.32 496.448 1281.19 501.662 1280.69C502.807 1280.58 510.404 1280.93 518.543 1281.47C528.351 1282.12 542.398 1281.91 560.188 1280.86C574.952 1279.99 589.687 1279.26 592.932 1279.25C596.309 1279.24 598.832 1278.66 598.832 1277.91C598.832 1277.02 589.627 1276.35 570.028 1275.8L570.027 1275.8C505.893 1274.02 469.568 1269.48 429.583 1258.25C354.913 1237.28 282.608 1184.14 227.849 1109.97C211.826 1088.27 204.945 1070.59 199.896 1037H1297V1125.48C1284.4 1125.15 1273.16 1125.21 1264.93 1125.69C1249.23 1126.61 1249.2 1126.62 1255.42 1128.08L1261.67 1129.54L1255.47 1129.65C1237.83 1129.98 1195.55 1132.41 1189.49 1133.44C1185.67 1134.09 1170.88 1136.15 1156.61 1138.03C1111.32 1143.99 1078.2 1149.5 1086.07 1149.78C1087.22 1149.82 1101.9 1148.03 1118.69 1145.81C1180.98 1137.58 1229.61 1133.32 1260.98 1133.34C1271.28 1133.35 1280.65 1133.87 1281.8 1134.5C1283.24 1135.29 1280.55 1135.65 1273.04 1135.66C1216.75 1135.75 1132.12 1147.09 1039.57 1166.94C1003.54 1174.67 895.228 1200.19 879.237 1204.72C860.391 1210.05 896.746 1202.12 1006.25 1177C1114.79 1152.09 1187.71 1141.49 1263.24 1139.62L1293.96 1138.85L1295.61 1141.48C1298.55 1146.15 1295.51 1147.49 1281.98 1147.5C1238.72 1147.55 1160.21 1155.99 1101.52 1166.92C1050.69 1176.38 986.576 1191.37 927.822 1207.54C911.407 1212.05 891.73 1216.94 884.095 1218.39C876.46 1219.84 846.288 1226.56 817.045 1233.3C707.573 1258.57 670.175 1263.95 594.64 1265.28C551.869 1266.03 529.455 1264.82 500.967 1260.22C475.942 1256.18 473.467 1255.91 480.839 1257.99C490.944 1260.85 518.11 1265.44 536.249 1267.35C585.436 1272.53 623.682 1270.42 706.413 1257.95C720.919 1255.76 738.722 1253.16 745.975 1252.16C753.228 1251.17 770.719 1247.65 784.843 1244.34C810.761 1238.27 829.295 1234.55 830.133 1235.27C830.384 1235.48 826.178 1236.86 820.788 1238.34C815.399 1239.82 811.266 1241.26 811.606 1241.55C811.945 1241.84 837.764 1236.17 868.981 1228.94C915.708 1218.13 962.691 1207.78 978.836 1204.74C985.685 1203.46 981.397 1205.42 972.589 1207.61C967.436 1208.89 930.112 1218.19 889.648 1228.28C807.621 1248.74 776.882 1256.09 743.198 1263.31C730.601 1266.01 718.783 1269.04 716.937 1270.04L713.579 1271.86L717.631 1273.68C720.62 1275.01 726.201 1275.51 738.911 1275.55L756.14 1275.6L739.605 1279.14C730.511 1281.08 724.103 1282.85 725.365 1283.08C726.627 1283.3 739.975 1281.04 755.028 1278.05C770.082 1275.06 782.639 1272.82 782.933 1273.07C783.544 1273.59 772.443 1276.2 731.592 1285.15C715.665 1288.64 702.236 1291.84 701.75 1292.25C701.263 1292.66 702.425 1292.71 704.333 1292.36C706.241 1292.01 718.732 1289.8 732.093 1287.45C763.591 1281.91 807.942 1272.98 840.887 1265.54C855.297 1262.29 867.33 1259.83 867.627 1260.09C868.356 1260.71 794.876 1278.97 768.879 1284.63C729.819 1293.13 679.975 1301.06 639.088 1305.28C614.154 1307.85 548.889 1308.9 525.643 1307.1C466.172 1302.51 411.831 1288.79 365.191 1266.6C332.99 1251.27 308.253 1235.33 277.514 1210.11C266.824 1201.34 258.977 1195.22 260.076 1196.52C264.372 1201.6 249.502 1188.81 238.053 1177.57C217.199 1157.11 194.443 1130.29 183.459 1113.23C170.286 1092.77 161.831 1067.47 158 1037L162.092 1037ZM801.973 1222.72C801.655 1222.45 804.305 1221.6 807.863 1220.84C811.421 1220.08 814.592 1219.68 814.91 1219.95C815.228 1220.22 812.577 1221.06 809.02 1221.83C805.462 1222.59 802.291 1222.99 801.973 1222.72ZM784.843 1226.98C754.445 1233.09 750.97 1232.86 776.514 1226.43C786.802 1223.84 793.958 1222.66 796.642 1223.09C799.971 1223.63 797.605 1224.41 784.843 1226.98ZM711.912 1240.84C718.907 1239.01 730.128 1236.63 736.848 1235.56L736.855 1235.56C743.575 1234.49 749.418 1233.91 749.841 1234.27C750.256 1234.63 750.282 1234.92 749.89 1234.92C749.499 1234.92 738.742 1237.29 725.985 1240.19C681.716 1250.24 637.31 1257.12 599.221 1259.82C570.304 1261.87 513.856 1260.61 494.026 1257.47C485.628 1256.14 474.765 1254.49 469.887 1253.8C461.291 1252.58 438.422 1245.82 439.578 1244.83C439.893 1244.57 442.728 1245.12 445.88 1246.07C453.036 1248.22 485.518 1254.36 503.049 1256.88C520.91 1259.45 574.134 1260.44 597.087 1258.64C633.287 1255.8 686.02 1247.62 711.912 1240.84ZM510.684 1295.19C556.504 1300.47 619.335 1298.47 680.529 1289.78C701.162 1286.85 710.668 1286.48 695.869 1289.18C652.44 1297.11 623.939 1300.08 584.95 1300.74C555.549 1301.24 547.775 1300.97 527.585 1298.77C514.74 1297.36 502.872 1295.75 501.211 1295.18C497.282 1293.83 498.909 1293.83 510.684 1295.19ZM494.026 1298.18C544.242 1305.22 606.946 1304.72 665.926 1296.81C673.435 1295.8 679.88 1295.24 680.251 1295.55C682.415 1297.39 625.826 1304.23 593.781 1306C563.466 1307.68 532.561 1306.17 503.37 1301.61C469.331 1296.28 462.441 1293.75 494.026 1298.18ZM789.417 1270.33C793.841 1269.79 822.107 1263.9 852.23 1257.25C882.353 1250.6 907 1244.92 907 1244.63C907 1244.34 903.494 1244.47 899.209 1244.93C890.808 1245.82 889.666 1244.17 897.601 1242.6C906.085 1240.92 897.603 1240.56 887.153 1242.16C877.383 1243.65 877.282 1243.7 882.707 1244.4C886.145 1244.85 887.465 1245.41 886.177 1245.89C883.506 1246.87 854.107 1253.02 839.674 1255.62C829.938 1257.37 783.233 1268.73 773.738 1271.66C771.084 1272.48 771.574 1272.56 775.82 1272.02C778.874 1271.62 784.992 1270.86 789.417 1270.33ZM274.005 1210.63C278.237 1214.75 288.682 1223.12 292.23 1225.24C297.8 1228.56 294.308 1225.36 282.681 1216.5C276.001 1211.41 272.097 1208.77 274.005 1210.63Z" fill="#303030"/>
<path fill-rule="evenodd" clip-rule="evenodd" d="M585.704 0C588.12 0.640028 590.33 1.25663 592.079 1.79024L596.374 3.10078L597.267 43.5804C598.315 91.1525 598.23 124.639 596.634 292.108C595.349 426.936 594.35 477.015 590.593 594.924C587.666 686.77 586.564 796.362 588.567 796.362C589.867 796.362 589.253 945.518 587.668 1037H177.278C176.463 1016.99 174.742 988.811 173.918 983.956C173.273 980.148 171.215 965.395 169.345 951.171C163.408 905.996 157.911 872.965 157.638 880.814C157.597 881.957 159.375 896.597 161.587 913.349C168.334 964.45 172.405 1006.33 173.626 1037H170.739C167.615 982.833 157.02 911.377 140.535 834.435C132.837 798.506 107.412 690.479 102.901 674.53C97.5842 655.734 105.49 691.992 130.521 801.208C153.074 899.612 163.859 968.665 167.035 1037H158.319C155.384 994.198 148.656 939.746 140.563 896.224C131.136 845.527 116.198 781.584 100.093 722.986C95.5936 706.615 90.7274 686.99 89.2791 679.376C87.8308 671.761 81.144 641.669 74.4194 612.504C49.2454 503.323 43.8889 466.024 42.5643 390.69C41.8142 348.032 43.0197 325.678 47.6024 297.266C51.628 272.308 51.9011 269.839 49.8235 277.191C46.9754 287.27 42.4047 314.363 40.5005 332.454C35.3368 381.51 37.4427 419.655 49.8701 502.165C52.0491 516.633 54.6417 534.389 55.6315 541.622C56.6212 548.856 60.129 566.3 63.4265 580.387C69.4776 606.237 73.1768 624.721 72.4661 625.557C72.2537 625.807 70.8755 621.613 69.4035 616.237C67.9316 610.862 66.4918 606.74 66.2041 607.079C65.9163 607.417 71.5688 633.167 78.765 664.302C89.5366 710.904 99.8479 757.763 102.874 773.865C104.159 780.696 102.199 776.419 100.02 767.635C98.7446 762.495 89.4752 725.27 79.4209 684.913C59.0394 603.104 51.715 572.447 44.5247 538.853C41.8356 526.289 38.8189 514.503 37.821 512.661L36.0066 509.312L34.1979 513.353C32.8635 516.335 32.3744 521.901 32.3328 534.578L32.2772 551.761L28.7582 535.27C26.8227 526.2 25.0554 519.808 24.8309 521.067C24.6063 522.326 26.8601 535.638 29.8392 550.652C32.8184 565.665 35.052 578.189 34.8028 578.482C34.2837 579.092 31.6804 568.021 22.7634 527.278C19.2869 511.393 16.1051 498 15.6928 497.515C15.2804 497.029 15.229 498.189 15.5788 500.092C15.9283 501.994 18.1301 514.452 20.4717 527.778C25.9918 559.191 34.8909 603.425 42.3013 636.283C45.5424 650.654 47.9882 662.655 47.7363 662.951C47.1182 663.679 28.9232 590.394 23.2846 564.466C14.8126 525.509 6.91245 475.798 2.71263 435.019C0.151588 410.152 -0.89549 345.06 0.892592 321.877C5.46725 262.563 19.1359 208.367 41.2514 161.851C56.5208 129.735 72.399 105.065 97.5306 74.407C106.27 63.7454 112.362 55.9193 111.067 57.0155C106.007 61.2999 118.753 46.4696 129.946 35.0512C141.626 23.1351 155.385 10.5966 168.204 0L174.504 0C161.85 9.81058 147.57 22.0645 132.551 36.0537C119.504 48.2053 115.598 53.8192 127.769 42.9263C137.727 34.0129 165.579 11.2154 180.16 0L233.742 0C212.413 6.53711 195.178 16.9313 179.869 31.9768C173.06 38.6687 169.338 41.0284 171.209 37.4668C171.734 36.4685 171.532 36.2446 170.671 36.8703C169.913 37.4214 169.581 38.4208 169.934 39.0915C170.286 39.7621 169.368 41.0671 167.893 41.9914C165.377 43.5684 165.321 43.515 166.977 41.1268C168.687 38.6627 168.64 38.6605 165.506 41.0597C162.447 43.4012 160.732 45.8839 163.628 43.779C164.477 43.162 164.667 43.3998 164.135 44.4121C163.667 45.3036 162.779 45.6669 162.164 45.2192C160.332 43.8876 137.063 66.1319 120.085 85.4449C85.6843 124.577 62.4811 164.834 45.5733 214.721C40.3856 230.027 42.2604 228.025 48.051 212.075C50.8276 204.426 53.2639 198.362 53.4649 198.599C53.6659 198.835 51.224 206.674 48.0383 216.017C41.9555 233.859 36.8038 253.327 32.9492 273.039C31.6835 279.511 30.6001 283.71 30.5416 282.369C30.4832 281.028 31.5117 274.247 32.8274 267.3C34.1432 260.353 34.9902 254.399 34.7098 254.069C33.5524 252.708 26.7089 292.759 27.2103 297.959C27.3202 299.101 26.9716 306.677 26.4353 314.796C25.7889 324.577 25.9929 338.586 27.0397 356.329C27.9087 371.055 28.6308 385.75 28.6446 388.987C28.6585 392.354 29.2279 394.871 29.9749 394.871C30.8632 394.871 31.5352 385.69 32.078 366.143L32.078 366.143C33.8541 302.179 38.3769 265.951 49.5647 226.071C70.4568 151.6 123.407 79.4874 197.297 24.8741C214.947 11.8285 229.929 4.85909 253.041 0L547.325 0C551.084 1.16256 555.163 2.40523 559.345 3.65869L587.403 12.0684L587.264 122.825C587.076 276.339 585.3 343.985 580.482 381.026C578.1 399.332 578.018 402.073 579.831 402.808C583.909 404.462 587.318 376.787 590.783 313.879C591.455 301.696 592.474 245.003 593.048 187.894C593.623 130.785 594.475 66.212 594.941 44.3977L595.789 4.73532L579.205 0.125263C579.055 0.083445 578.905 0.0416879 578.755 0H585.704ZM600 40.4496C600 46.3465 599.949 52.2434 599.847 56.7169C599.641 65.664 599.474 58.3437 599.474 40.4497C599.474 22.5556 599.642 15.2353 599.847 24.1823C599.949 28.6558 600 34.5527 600 40.4496ZM84.9657 597.471C85.2354 597.154 86.0777 599.798 86.8373 603.346C87.5974 606.894 87.9977 610.057 87.728 610.374C87.4583 610.692 86.616 608.048 85.8564 604.5C85.0963 600.951 84.6959 597.789 84.9657 597.471ZM80.7251 580.387C74.6367 550.07 74.8624 546.604 81.2658 572.08C83.8448 582.341 85.0285 589.478 84.595 592.155C84.0573 595.475 83.2812 593.115 80.7251 580.387ZM66.9109 507.65C68.7368 514.626 71.1043 525.818 72.172 532.52L72.1719 532.527C73.2396 539.229 73.8201 545.056 73.4618 545.478C73.1035 545.892 72.8103 545.918 72.8103 545.527C72.8103 545.137 70.4486 534.408 67.5621 521.686C57.5449 477.534 50.6937 433.247 48.0042 395.258C45.9623 366.418 47.2171 310.121 50.3426 290.344C51.6663 281.968 53.3124 271.134 54.0006 266.268C55.2132 257.695 61.9537 234.887 62.934 236.04C63.2006 236.354 62.6473 239.182 61.7044 242.325C59.5636 249.462 53.4437 281.858 50.9332 299.343C48.3756 317.155 47.3816 370.239 49.1769 393.131C52.0085 429.234 60.1527 481.827 66.9109 507.65ZM12.7627 306.957C14.1154 295.214 14.1175 293.59 12.7747 297.509ZM12.7747 297.509C12.2071 299.165 10.5987 311.003 9.20052 323.814ZM9.20052 323.814C7.00293 343.95 6.73638 351.703 7.23375 381.026ZM7.23375 381.026C7.89329 419.911 10.8525 448.336 18.7502 491.65ZM18.7502 491.65C21.4415 506.41 21.0698 496.929 18.1504 476.351ZM9.78168 290.344C2.76803 340.426 3.26666 402.963 11.1487 461.787C12.152 469.275 12.7161 475.703 12.4024 476.073C10.567 478.232 3.75268 421.793 1.9899 389.834C0.322266 359.599 1.8199 328.776 6.3712 299.662C11.6783 265.714 14.1933 258.842 9.78168 290.344ZM37.5357 584.949C38.0721 589.361 43.9345 617.552 50.5632 647.595C57.1919 677.638 62.8516 702.219 63.1402 702.219C63.4288 702.219 63.2935 698.723 62.8396 694.449C61.9495 686.07 63.5979 684.931 65.1613 692.845C66.8328 701.307 67.1876 692.847 65.5981 682.425C64.1121 672.682 64.0608 672.58 63.3611 677.991C62.9184 681.42 62.3541 682.736 61.8835 681.452C60.9065 678.788 54.7772 649.467 52.188 635.073C50.4414 625.363 39.1204 578.782 36.2054 569.311C35.3909 566.665 35.3072 567.154 35.8502 571.388C36.2408 574.434 36.9993 580.536 37.5357 584.949ZM97.0116 70.9076C92.9066 75.1282 84.5668 85.5447 82.4593 89.0838C79.1512 94.6387 82.3323 91.156 91.1579 79.5605C96.2289 72.8978 98.8631 69.004 97.0116 70.9076Z" fill="#303030"/>
<rect x="556" width="741" height="1037" fill="#303030"/>
</svg>
