<svg width="134" height="122" viewBox="0 0 134 122" fill="none" xmlns="http://www.w3.org/2000/svg">
<path d="M108.611 109.274C106.866 108.932 105.636 108.528 105.417 108.225C105.222 107.955 105.242 107.75 105.674 105.646L106.021 103.957L105.235 103.415C104.803 103.116 104.177 102.687 103.844 102.462L103.238 102.051L101.878 103.041C100.226 104.244 99.5916 104.592 99.2935 104.461C98.9837 104.324 97.7319 102.923 96.912 101.796C95.686 100.111 95.7864 99.7646 97.9743 98.1308C99.1506 97.2524 99.2427 97.1542 99.2017 96.8233C99.1494 96.401 98.4661 94.2969 98.326 94.1269C98.2041 93.9787 97.6531 93.9032 95.9435 93.8002C94.3335 93.7032 93.9145 93.5771 93.7587 93.1429C93.5226 92.4853 93.762 88.468 94.0662 87.9812C94.3214 87.573 94.5737 87.5386 96.6759 87.6249C98.3029 87.6918 98.3122 87.6908 98.5524 87.4268C98.8903 87.0553 99.6432 85.5358 99.7767 84.9558C99.9023 84.4106 99.905 84.4146 98.6385 83.2763C97.6963 82.4294 97.1019 81.7285 97.0639 81.4194C96.9925 80.8395 100.114 77.4743 100.804 77.3873C101.326 77.3218 101.545 77.4466 102.832 78.5482C104.598 80.0589 104.45 80.028 106.053 79.2183L107.386 78.5452L107.268 76.827C107.06 73.8147 107.052 73.8246 109.969 73.4053C113.189 72.9424 113.184 72.9391 113.616 75.7335L113.916 77.6733L115.325 77.9787C117.419 78.4327 117.261 78.4353 117.582 77.9411C118.13 77.0978 119.777 75.0586 119.986 74.9652C120.44 74.7615 123.982 76.8988 124.58 77.738C124.781 78.0195 124.783 78.0928 124.598 78.5931C124.488 78.894 124.015 79.7411 123.548 80.4755L122.699 81.8107L123.356 82.6981C124.394 84.1003 124.571 84.2923 124.86 84.3261C125.009 84.3437 125.641 84.2122 126.264 84.0341C127.495 83.682 128.996 83.4571 129.272 83.5833C129.455 83.667 130.454 86.4684 130.74 87.6998C131.039 88.9837 130.758 89.2359 128.227 89.9559C127.342 90.2074 126.612 90.4239 126.604 90.4368C126.54 90.5382 126.488 92.8946 126.54 93.3197L126.606 93.8579L128.098 94.5291C128.918 94.8982 129.754 95.3152 129.954 95.4557C130.537 95.8637 130.468 96.4504 129.613 98.3697C128.796 100.202 128.312 100.976 127.954 101.02C127.817 101.037 126.934 100.767 125.993 100.422C125.051 100.076 124.146 99.8094 123.982 99.8296C123.632 99.8725 122.934 100.443 122.103 101.364L121.51 102.02L122.285 103.598C123.017 105.09 123.265 105.906 123.093 106.257C122.927 106.595 120.104 108.045 118.863 108.431C118.066 108.679 117.879 108.584 117.289 107.635C116.993 107.159 116.539 106.351 116.281 105.839L115.811 104.908L114.681 105.021C114.06 105.084 113.272 105.167 112.93 105.206L112.308 105.278L112.005 106.574C111.682 107.959 111.382 108.858 111.12 109.23C110.872 109.582 110.238 109.593 108.611 109.274L108.611 109.274ZM114.132 96.592C116.356 95.8498 117.99 93.7515 118.071 91.5325C118.152 89.3343 116.88 87.234 114.909 86.3101C113.737 85.7604 113.01 85.6822 111.395 85.9318C110.205 86.116 109.968 86.1906 109.374 86.5681C108.424 87.1729 107.286 88.5461 106.944 89.5006C106.587 90.4971 106.557 91.7279 106.862 92.8528C107.676 95.86 111.079 97.6104 114.132 96.592ZM35.8349 109.934L17.8336 112.084L16.7367 111.693C15.9515 111.413 15.3646 111.093 14.672 110.568C13.4026 109.606 12.8163 108.762 12.4826 107.417C12.1523 106.085 2.87729 31.4237 2.15305 24.266L1.61681 18.9665L1.92 18.1221C2.36391 16.8858 3.45051 15.5919 4.78636 14.709L5.83184 14.018L53.8381 8.13477C80.2417 4.8998 103.162 2.1263 104.772 1.97269L107.7 1.69347L108.541 2.00778C109.688 2.43657 111.138 3.54941 111.973 4.64071L112.643 5.51725L116.729 38.047L120.814 70.5767L119.745 70.7829C119.157 70.8964 118.385 71.1076 118.03 71.2524C117.402 71.5082 117.377 71.5092 117.17 71.2872C116.161 70.2053 114.513 69.2393 113.379 69.0644L112.718 68.9624L112.061 64.2233C111.699 61.6169 110.421 51.7574 109.22 42.3135C108.019 32.8696 107.027 25.1355 107.016 25.1267C107.005 25.1183 85.558 27.7033 59.356 30.8717L11.7162 36.6327L15.8502 70.3009L19.9841 103.969L55.0485 99.6637L90.1129 95.3583L90.4859 95.8339C90.6911 96.0955 91.2197 96.577 91.6607 96.9041L92.4624 97.4986L92.1934 98.205C91.692 99.5213 91.8032 101.435 92.4623 102.83L92.5827 103.085L73.2093 105.435C62.5539 106.727 45.7353 108.752 35.8347 109.934L35.8349 109.934ZM81.2419 20.8078C82.3117 20.405 82.8664 19.567 82.8517 18.3756C82.8392 17.3632 82.4441 15.0912 82.2033 14.6487C81.7613 13.836 80.8771 13.4667 79.4692 13.507C76.9195 13.5798 75.4928 14.3167 75.2967 15.6622C75.193 16.3738 75.3159 18.1988 75.5336 19.1801C75.7224 20.0304 75.7709 20.1174 76.2982 20.5521C76.6079 20.8073 77.0365 21.0788 77.2507 21.1553C77.9543 21.4068 80.1613 21.2146 81.2419 20.8078ZM92.7401 19.336C93.6112 18.9834 94.1648 18.2953 94.3226 17.3688C94.4838 16.4218 94.0969 13.7471 93.7245 13.2342C93.3288 12.6891 92.4546 12.1227 91.928 12.0701C91.2348 12.001 88.5735 12.3433 88.1033 12.5621C87.6402 12.7776 87.0534 13.4208 86.8269 13.9612C86.6953 14.275 86.7121 14.6961 86.9244 16.4063C87.1992 18.621 87.2869 18.8654 87.9835 19.3568C88.918 20.016 91.0832 20.0065 92.7401 19.336L92.7401 19.336ZM104.289 17.911C105.141 17.5899 105.708 16.9424 105.825 16.157C105.948 15.3332 105.818 13.7094 105.557 12.8042C105.232 11.6812 104.809 11.1187 104.068 10.8265C103.519 10.6097 103.384 10.6093 101.662 10.8208C99.9603 11.0298 99.8006 11.0693 99.2671 11.4145C98.5004 11.9105 98.26 12.5069 98.2544 13.9271C98.2492 15.265 98.5929 16.7421 99.0812 17.48C99.8388 18.6248 101.935 18.7983 104.289 17.911L104.289 17.911ZM58.9711 81.7601C57.8265 81.6539 56.973 81.2264 56.3679 80.456C55.7046 79.6113 55.6936 78.9179 56.2921 75.6599C58.1249 65.6821 62.2953 44.9939 63.2908 40.9415C63.6002 39.682 63.8645 39.3169 64.9671 38.6255C65.8983 38.0416 66.5853 37.9629 67.6453 38.3187C68.5649 38.6274 69.1302 39.0335 69.6243 39.7405C70.1632 40.5117 70.1603 41.0852 69.6024 44.1218C67.4613 55.7739 62.7686 78.8198 62.2808 80.0784C62.1012 80.5417 61.7156 80.9451 61.132 81.2804C60.4139 81.6929 59.7749 81.8347 58.9711 81.7601L58.9711 81.7601ZM50.7595 72.9211C47.9459 72.3585 31.2844 67.1439 30.4717 66.5716C29.9375 66.1954 29.4023 65.3085 29.2413 64.5325C29.018 63.4567 29.2133 62.5548 29.8371 61.7812C30.4604 61.0082 31.4183 60.3723 37.6185 56.6157C46.9694 50.9503 47.589 50.5941 48.779 50.1995C49.7535 49.8765 50.6034 50.0136 51.4194 50.6259C53.1171 51.8994 53.4486 53.6547 52.3184 55.3849C51.903 56.0207 51.2807 56.4358 45.6071 59.8621C43.9009 60.8925 42.1465 61.9697 41.7083 62.2559L40.9117 62.7763L41.8103 63.0868C42.3046 63.2576 43.8634 63.7531 45.2743 64.1879C50.7122 65.8639 53.2269 66.7564 53.7493 67.1959C54.3545 67.705 54.9275 68.7448 55.0143 69.4915C55.1332 70.5187 54.5427 71.7314 53.5268 72.5446C52.8804 73.062 52.0377 73.1767 50.7595 72.9211L50.7595 72.9211ZM75.469 69.9952C74.7098 69.8337 73.9151 69.2712 73.4389 68.5582C72.5817 67.2749 72.7447 65.4636 73.8039 64.5015C74.3469 64.0083 77.5373 61.9412 81.7405 59.3595C83.3994 58.3405 84.7295 57.4509 84.6963 57.3826C84.6631 57.3143 83.022 56.7413 81.0494 56.1093C76.0007 54.4916 72.8374 53.3858 72.2869 53.0461C71.3707 52.4807 70.7806 51.2739 70.891 50.1915C71.013 48.9952 72.1223 47.4667 73.0942 47.1557C74.196 46.8033 76.5731 47.4079 86.8696 50.6597C95.4095 53.3567 95.4728 53.3814 96.0896 54.2654C96.9239 55.4611 96.9061 57.2492 96.0484 58.416C95.4888 59.1772 80.9284 68.1369 77.7394 69.6824C77.0019 70.0397 76.1989 70.1504 75.469 69.9952Z" fill="#D47FFF"/>
</svg>
