<svg width="107" height="112" viewBox="0 0 107 112" fill="none" xmlns="http://www.w3.org/2000/svg">
<path d="M31.0704 0L10.3347 78.9063L37.8795 98.2445L71.4104 101.136L106.246 27.3616L31.0704 0ZM82.1063 46.5921L56.1292 48.0232L56.068 48.0303L56.1198 48.0491L77.8043 55.9417L64.9141 83.6248L43.7141 82.241L43.6827 82.2198L43.6795 82.2284L26.4839 69.5201L30.4832 54.6662L30.5177 54.6787L40.0095 58.1335L40.0441 58.146L37.9518 65.8276L47.2435 72.1411L47.3392 72.1466L47.3361 72.1553L59.0191 73.0264L64.1158 61.2787L52.8072 57.1236L31.7 49.3631L34.254 40.0906L59.4246 38.9424L60.8932 38.8809L59.6162 38.4161L36.9393 30.1624L39.1576 20.5234L62.9822 29.1949L86.3925 37.7155L82.1063 46.5921Z" fill="#1673B5"/>
</svg>
