<svg width="60" height="69" viewBox="0 0 60 69" fill="none" xmlns="http://www.w3.org/2000/svg">
<path d="M0 0.911133L5.62672 61.8409L30 68.4043L54.3733 61.8409L60 0.911133H0ZM47.9201 20.6563L29.9793 28.3285L29.938 28.3492H29.9793H47.2865L45.303 51.166L30.0069 55.6288L29.9793 55.6219V55.6288L14.6006 51.0833L13.6088 39.5888H13.6364H21.2121H21.2397L21.7355 45.5392L29.9036 47.6054L29.9725 47.5847V47.5916L38.4298 45.2087L39.0083 35.6219L29.9725 35.5943L13.1061 35.5392L12.5275 28.3492L29.9725 21.0833L30.9917 20.6632H29.9725H11.8733L10.9642 13.3009H29.9793H48.6639L47.9201 20.6563Z" fill="#1673B5"/>
</svg>
