<svg width="1920" height="366" viewBox="0 0 1920 366" fill="none" xmlns="http://www.w3.org/2000/svg">
<path fill-rule="evenodd" clip-rule="evenodd" d="M0 231.083V218.854C96.9434 215.217 206.888 204.845 320.412 188.545C411.603 175.451 497.646 160.417 614.857 137.095C642.87 131.521 670.877 126.313 677.095 125.521C701.393 122.427 743.408 115.656 841.307 99.0575C989.376 73.9533 1055.83 66.0721 1163.34 60.8672C1226.23 57.8226 1295.25 57.5127 1341.59 60.0674C1387 62.57 1435.22 67.842 1471.95 74.3202C1480.16 75.7695 1487.39 76.8513 1488.01 76.7242C1489.7 76.3755 1449.75 69.0399 1429.81 66.039C1395.85 60.9254 1355.83 56.9408 1311.99 54.306C1288.13 52.8721 1219.17 53.1044 1192.34 54.7085C1146.67 57.4404 1113.6 60.4315 1032.82 69.1365C1004.24 72.2166 970.524 75.7104 957.896 76.9004C933.61 79.189 912.674 82.2233 870.279 89.5985C855.989 92.0845 838.586 94.9493 831.607 95.9645C810.377 99.0529 781.474 102.914 781.126 102.709C780.946 102.602 791.55 100.24 804.692 97.4585C817.834 94.6773 829.13 92.0566 829.795 91.6346C830.615 91.1138 830.27 91.0282 828.718 91.3681C827.461 91.6435 818.76 93.0582 809.382 94.512C791.643 97.2619 748.555 104.423 670.273 117.632C576.082 133.525 509.929 143.485 505.129 142.496C504.851 142.438 504.568 142.398 504.559 142.323C504.504 141.903 513.026 140.374 579.031 128.439C611.268 122.61 656.949 114.318 680.545 110.013C825.017 83.6548 892.591 71.9113 961.313 61.2184C1002.42 54.8224 1009.86 53.2022 1009.86 50.6473C1009.86 49.0637 1002.32 47.1201 992.921 46.2799C981.883 45.2934 944.314 45.2939 934.481 46.2806C930.244 46.7061 926.562 46.9205 926.298 46.7572C925.85 46.48 968.145 39.2969 991.129 35.7458C1002.57 33.9784 1005.49 33.0863 997.172 33.8976C983.842 35.1984 893.698 47.7329 861.82 52.7182C860.158 52.9777 859.086 52.991 859.438 52.7447C860.192 52.2213 912.137 42.9489 952.457 36.1398C979.597 31.5565 1022.24 24.9745 1037.66 22.9892C1041.64 22.4754 1044 21.9278 1042.88 21.7719C1039.23 21.2607 953.779 32.0007 898.075 39.9719C869.715 44.0301 791.582 56.0647 745.954 63.4028C727.757 66.3291 712.576 68.5416 712.216 68.3193C711.857 68.0969 711.941 67.915 712.403 67.915C712.865 67.915 731.853 64.3614 754.6 60.0181C874.754 37.0755 953.392 24.8299 1049.14 14.1524C1294.51 -13.2112 1487.09 -1.08172 1652.81 52.1739C1722.09 74.4398 1779.04 100.772 1842.35 139.812C1859.54 150.412 1872.1 157.827 1870.25 156.289C1868.4 154.75 1865.02 151.978 1862.73 150.129C1856.56 145.137 1888.65 165.379 1905.4 177.035C1910.09 180.301 1914.99 183.83 1920 187.55V193.755C1912.01 187.392 1904.02 181.257 1896.26 175.544C1878.3 162.317 1878.68 163.376 1897.74 179.669C1905.38 186.201 1912.83 192.633 1920 198.889V252.6C1918.36 251.299 1916.72 250.04 1915.08 248.829C1908.7 244.124 1901.65 238.238 1899.39 235.75C1897.14 233.261 1892.39 228.534 1888.85 225.246C1880.09 217.123 1880.08 217.117 1881.5 217.66C1882.55 218.062 1896.72 230.111 1910.63 242.436C1915.11 246.406 1917.93 248.49 1916.19 246.547C1910.1 239.722 1881.75 215.055 1865.43 202.38C1777.19 133.84 1673.42 86.8107 1550.66 59.7282C1543.13 58.0672 1536.78 56.8261 1536.54 56.9701C1536.31 57.114 1543.34 59.0218 1552.15 61.2093C1573.49 66.5032 1598.07 73.2231 1612.9 77.8188C1627.69 82.3997 1654.76 91.688 1656.41 92.7459C1657.07 93.1714 1652.45 91.7677 1646.14 89.6266C1581.28 67.6328 1510.52 52.2717 1426.99 42.0518C1414.48 40.5219 1409.37 39.683 1414.1 39.9392C1425.84 40.5748 1464.02 45.0603 1486.54 48.4521C1507.01 51.5345 1513.72 51.9953 1499.12 49.3163C1464.47 42.9587 1423.48 38.3501 1395.37 37.6522C1389.39 37.5039 1378.51 37.1579 1371.2 36.8825C1355.54 36.2937 1305.11 37.5507 1275.13 39.2761C1263.5 39.9453 1248.13 40.526 1240.99 40.5659C1228.62 40.6365 1228 40.7142 1228 42.2135C1228 43.5926 1228.92 43.8485 1235.42 44.2689C1239.51 44.5328 1251.61 44.7526 1262.31 44.7562C1284.98 44.7644 1333.35 45.9037 1358.51 47.0221C1526.6 54.4928 1638.93 82.347 1757.32 145.917C1777.44 156.723 1823.28 185.348 1840.96 198.156C1869.05 218.497 1897.86 242.704 1920 264.019V366H0V249.534L5.59776 249.162L0 248.408V244.319C20.6684 244.095 52.5412 243.109 85.3587 241.673C124.895 239.942 126.956 239.788 126.224 238.608C125.873 238.041 126.157 237.577 126.855 237.577C130.64 237.577 203.082 231.089 227.962 228.521C254.786 225.753 320.365 217.643 321.52 216.952C322.733 216.225 314.233 216.908 270.054 221.105C134.999 233.928 68.2222 238.682 0 240.055V235.446C93.321 232.235 183.637 224.147 295.033 209.156C385.005 197.047 461.289 184.609 644.894 152.108C680.787 145.755 714.766 139.794 720.405 138.863C726.043 137.931 730.05 137.043 729.309 136.891C727.937 136.608 628.145 152.469 572.988 161.737C476.515 177.947 443.385 183.413 401.381 190.053C238.309 215.831 115.539 228.482 0 231.083ZM1878.47 215.06C1876.55 214.131 1876.51 214.157 1878.01 215.343C1878.93 216.062 1879.88 216.651 1880.13 216.651C1881.12 216.651 1880.48 216.037 1878.47 215.06ZM1805.96 164.237C1804.04 163.308 1804 163.334 1805.5 164.52C1806.42 165.239 1807.37 165.827 1807.62 165.827C1808.61 165.827 1807.97 165.214 1805.96 164.237ZM1790.55 154.991L1794.72 157.793C1797.01 159.335 1799.05 160.596 1799.25 160.596C1800.17 160.596 1799.3 159.964 1795.08 157.566L1790.55 154.991ZM1781.79 150.037C1779.87 149.107 1779.83 149.134 1781.33 150.319C1782.25 151.038 1783.2 151.627 1783.45 151.627C1784.44 151.627 1783.8 151.013 1781.79 150.037ZM1404.74 39.0226C1403.91 38.8152 1402.55 38.8152 1401.72 39.0226C1400.89 39.2301 1401.57 39.3995 1403.23 39.3995C1404.89 39.3995 1405.57 39.2301 1404.74 39.0226ZM1398.07 38.3217C1397.67 38.0701 1396.62 38.0436 1395.75 38.2599L1395.75 38.2634C1394.79 38.5018 1395.07 38.6792 1396.48 38.7145C1397.75 38.7463 1398.47 38.5697 1398.07 38.3217ZM785.458 127.197C786.33 126.985 787.373 127.011 787.774 127.259L787.774 127.257C788.176 127.506 787.462 127.685 786.188 127.649C784.78 127.613 784.494 127.436 785.458 127.197ZM850.192 117.655C867.393 114.933 881.643 112.815 881.859 112.949L850.192 117.655ZM881.859 112.949C882.075 113.082 873.243 114.963 862.232 117.128L881.859 112.949ZM862.232 117.128C851.221 119.293 842.431 121.2 842.698 121.366L862.232 117.128ZM842.698 121.366C842.966 121.532 849.418 120.542 857.035 119.167L842.698 121.366ZM857.035 119.167C864.652 117.792 884.207 114.27 900.492 111.341L857.035 119.167ZM900.492 111.341C932.127 105.651 935.245 105.012 927.683 105.773L900.492 111.341ZM927.683 105.773C925.024 106.04 920.674 106.331 918.015 106.419L927.683 105.773ZM918.015 106.419C912.08 106.615 799.406 124.213 791.47 126.183L918.015 106.419ZM791.47 126.183C786.333 127.458 791.058 126.97 805.02 124.782L791.47 126.183ZM956.083 101.634C958.492 100.562 957.149 100.602 949.006 101.847L949.003 101.848C937.21 103.651 934.915 103.928 935.671 103.461C937.077 102.591 965.375 97.6969 1005.02 91.4662C1188.92 62.5676 1335.53 57.5309 1471.5 75.4411C1495.08 78.5468 1502.1 79.7364 1508.36 81.6892C1511.35 82.6216 1517.78 84.3139 1522.63 85.4497C1527.49 86.5855 1531.27 87.6357 1531.03 87.7831C1530.79 87.9307 1527.09 87.3863 1522.8 86.5732C1497.85 81.8392 1448.01 74.693 1419.12 71.7047C1380.96 67.7582 1352.25 66.4312 1304.96 66.4272C1244.92 66.4222 1193.67 69.5438 1121.59 77.5952C1088.03 81.3441 1007.47 92.5887 1010.17 93.1466C1010.85 93.2864 1015.08 92.8743 1019.57 92.2299C1024.06 91.5864 1027.96 91.1962 1028.23 91.3648C1028.79 91.7127 995.585 96.7427 973.073 99.7192C964.806 100.812 957.192 101.871 956.154 102.073C954.503 102.395 954.494 102.341 956.083 101.634ZM961.798 100.356C961.397 100.104 960.354 100.078 959.482 100.294L959.481 100.297C958.518 100.536 958.805 100.713 960.212 100.749C961.486 100.78 962.199 100.604 961.798 100.356ZM1122.86 21.275C1093.17 23.6617 1046.51 28.2131 1035.24 29.8225C1030.57 30.489 1021.9 30.7379 1024.36 30.135C1031.7 28.3369 1113.65 18.6953 1144.38 16.015C1235.63 8.0556 1298.6 7.85315 1379.66 15.2586C1421.46 19.0768 1436.98 21.5397 1401.21 18.6795C1317.64 11.9953 1227.87 12.8324 1122.86 21.275ZM1423.47 20.338C1424.3 20.1306 1425.66 20.1306 1426.49 20.338C1427.32 20.5455 1426.64 20.7149 1424.98 20.7149C1423.32 20.7149 1422.64 20.5455 1423.47 20.338ZM1282.98 7.80428C1214.75 7.81938 1166.43 10.108 1094.08 16.7514C1052.43 20.5767 1054.99 19.6921 1100.65 14.4859C1177.04 5.77434 1238.15 2.30523 1300.51 3.14031C1345.2 3.73909 1372.02 5.52574 1415.86 10.827C1441.47 13.9241 1468.58 17.654 1469.47 18.2022C1470.65 18.9313 1466.68 18.5848 1448.55 16.3778C1397.76 10.1945 1351.31 7.78662 1282.98 7.80428ZM1471.89 18.8248C1472.76 18.612 1473.8 18.6385 1474.2 18.8866L1474.2 18.883C1474.6 19.1319 1473.89 19.3112 1472.62 19.2759C1471.21 19.2405 1470.92 19.0631 1471.89 18.8248ZM1804.45 114.579C1809.44 117.765 1821.4 124.86 1831.04 130.346C1840.67 135.832 1848.74 140.342 1848.96 140.369C1849.19 140.395 1847.58 138.987 1845.39 137.24C1839.29 132.377 1827.07 125.144 1810.46 116.567L1795.39 108.786L1804.45 114.579ZM669.148 89.4165C663.877 90.5758 659.334 91.9515 659.053 92.4733V92.4713C658.657 93.2049 660.288 93.3117 666.22 92.9409C683.71 91.8488 704.715 89.1617 704.715 88.0165C704.715 87.6501 699.413 87.3288 692.932 87.3023C683.779 87.2661 681.823 87.0878 684.17 86.5034C689.288 85.2299 738.551 77.7799 770.477 73.4513C787.15 71.1907 807.589 68.0373 815.897 66.4434C839.628 61.891 899.279 50.922 905.674 49.9344C917.72 48.0744 909.6 48.4896 887.634 50.8569C875.098 52.2079 862.56 53.3117 859.772 53.3098C856.625 53.308 855.25 53.5507 856.146 53.9506C857.058 54.3576 856.598 54.4608 854.897 54.2304C853.415 54.0301 846.89 54.8165 840.395 55.9781C833.9 57.1397 809.008 61.1701 785.08 64.9347C761.152 68.6992 734.776 72.9022 726.468 74.2744C718.16 75.6468 696.406 79.1862 678.128 82.1399C659.849 85.0936 644.655 87.6504 644.362 87.8216C644.07 87.9929 651.683 87.9479 661.281 87.721L678.732 87.3087L669.148 89.4165Z" fill="#303030"/>
</svg>
