<svg width="160" height="116" viewBox="0 0 160 116" fill="none" xmlns="http://www.w3.org/2000/svg">
<path d="M156.697 44.0607C153.094 41.5608 144.838 40.6234 138.383 41.8733C137.632 35.6236 134.179 30.155 128.174 25.3115L124.722 22.8116L122.32 26.4052C119.317 31.0925 117.816 37.6547 118.266 43.9045C118.417 46.0919 119.167 49.998 121.419 53.4354C119.317 54.6853 114.964 56.2477 109.259 56.2477H0.721731L0.421489 57.4977C-0.629357 63.7474 -0.629357 83.2779 11.6806 98.2773C20.9881 109.683 34.7992 115.464 52.9638 115.464C92.2955 115.464 121.419 96.5586 135.08 62.3412C140.484 62.4975 152.044 62.3412 157.898 50.623C158.048 50.3105 158.349 49.6855 159.4 47.3418L160 46.0919L156.697 44.0607ZM87.4916 0H70.9783V15.6244H87.4916V0ZM87.4916 18.7492H70.9783V34.3736H87.4916V18.7492ZM67.9759 18.7492H51.4626V34.3736H67.9759V18.7492ZM48.4602 18.7492H31.9469V34.3736H48.4602V18.7492ZM28.9445 37.4985H12.4312V53.1229H28.9445V37.4985ZM48.4602 37.4985H31.9469V53.1229H48.4602V37.4985ZM67.9759 37.4985H51.4626V53.1229H67.9759V37.4985ZM87.4916 37.4985H70.9783V53.1229H87.4916V37.4985ZM107.007 37.4985H90.494V53.1229H107.007V37.4985Z" fill="#2396ED"/>
</svg>
