<svg width="160" height="116" viewBox="0 0 160 116" fill="none" xmlns="http://www.w3.org/2000/svg">
<g clip-path="url(#clip0_2_140)">
<path d="M156.698 44.0607C153.095 41.5608 144.838 40.6234 138.383 41.8733C137.632 35.6236 134.18 30.155 128.175 25.3115L124.722 22.8116L122.32 26.4052C119.318 31.0925 117.816 37.6547 118.267 43.9045C118.417 46.0919 119.167 49.998 121.419 53.4354C119.318 54.6853 114.964 56.2477 109.26 56.2477H0.722097L0.421856 57.4977C-0.628991 63.7474 -0.628991 83.2779 11.6809 98.2773C20.9884 109.683 34.7995 115.464 52.9642 115.464C92.2958 115.464 121.419 96.5586 135.08 62.3412C140.485 62.4975 152.044 62.3412 157.899 50.623C158.049 50.3105 158.349 49.6855 159.4 47.3418L160 46.0919L156.698 44.0607ZM87.492 0H70.9787V15.6244H87.492V0ZM87.492 18.7492H70.9787V34.3736H87.492V18.7492ZM67.9763 18.7492H51.463V34.3736H67.9763V18.7492ZM48.4605 18.7492H31.9472V34.3736H48.4605V18.7492ZM28.9448 37.4985H12.4315V53.1229H28.9448V37.4985ZM48.4605 37.4985H31.9472V53.1229H48.4605V37.4985ZM67.9763 37.4985H51.463V53.1229H67.9763V37.4985ZM87.492 37.4985H70.9787V53.1229H87.492V37.4985ZM107.008 37.4985H90.4944V53.1229H107.008V37.4985Z" fill="#2396ED"/>
</g>
<defs>
<clipPath id="clip0_2_140">
<rect width="160" height="115.625" fill="white" transform="translate(0.000366211)"/>
</clipPath>
</defs>
</svg>
