<svg width="80" height="80" viewBox="0 0 80 80" fill="none" xmlns="http://www.w3.org/2000/svg">
<circle cx="40" cy="39.9999" r="38.5" fill="#303030" stroke="#D47FFF" stroke-width="3"/>
<mask id="path-2-outside-1_95_55" maskUnits="userSpaceOnUse" x="14" y="29.3858" width="27" height="22" fill="black">
<rect fill="white" x="14" y="29.3858" width="27" height="22"/>
<path fill-rule="evenodd" clip-rule="evenodd" d="M16.3246 31.3858C15.4764 33.1136 15 35.0571 15 37.1119C15 44.2968 20.8246 50.1214 28.0096 50.1214C32.508 50.1214 36.4732 47.8382 38.8095 44.3675L16.3246 31.3858Z"/>
</mask>
<path fill-rule="evenodd" clip-rule="evenodd" d="M16.3246 31.3858C15.4764 33.1136 15 35.0571 15 37.1119C15 44.2968 20.8246 50.1214 28.0096 50.1214C32.508 50.1214 36.4732 47.8382 38.8095 44.3675L16.3246 31.3858Z" fill="#5736DF"/>
<path d="M16.3246 31.3858L16.8246 30.5198L15.8984 29.985L15.427 30.9451L16.3246 31.3858ZM38.8095 44.3675L39.6391 44.9259L40.2374 44.0371L39.3095 43.5014L38.8095 44.3675ZM16 37.1119C16 35.2132 16.4399 33.4202 17.2223 31.8265L15.427 30.9451C14.5129 32.807 14 34.901 14 37.1119H16ZM28.0096 49.1214C21.3769 49.1214 16 43.7445 16 37.1119H14C14 44.8491 20.2723 51.1214 28.0096 51.1214V49.1214ZM37.98 43.809C35.8215 47.0155 32.1613 49.1214 28.0096 49.1214V51.1214C32.8547 51.1214 37.1249 48.6609 39.6391 44.9259L37.98 43.809ZM39.3095 43.5014L16.8246 30.5198L15.8246 32.2518L38.3095 45.2335L39.3095 43.5014Z" fill="black" mask="url(#path-2-outside-1_95_55)"/>
<path fill-rule="evenodd" clip-rule="evenodd" d="M19.5552 33.1764C19.4121 33.8024 19.3365 34.454 19.3365 35.1234C19.3365 39.9277 23.2312 43.8224 28.0356 43.8224C30.3245 43.8224 32.407 42.9384 33.9602 41.4931L19.5552 33.1764Z" fill="#D47FFF"/>
<mask id="path-5-outside-2_95_55" maskUnits="userSpaceOnUse" x="39" y="29.3858" width="27" height="22" fill="black">
<rect fill="white" x="39" y="29.3858" width="27" height="22"/>
<path fill-rule="evenodd" clip-rule="evenodd" d="M63.6754 31.3858C64.5236 33.1136 65 35.0571 65 37.1119C65 44.2968 59.1754 50.1214 51.9904 50.1214C47.492 50.1214 43.5268 47.8382 41.1905 44.3675L63.6754 31.3858Z"/>
</mask>
<path fill-rule="evenodd" clip-rule="evenodd" d="M63.6754 31.3858C64.5236 33.1136 65 35.0571 65 37.1119C65 44.2968 59.1754 50.1214 51.9904 50.1214C47.492 50.1214 43.5268 47.8382 41.1905 44.3675L63.6754 31.3858Z" fill="#5736DF"/>
<path d="M63.6754 31.3858L63.1754 30.5198L64.1016 29.985L64.573 30.9451L63.6754 31.3858ZM41.1905 44.3675L40.3609 44.9259L39.7626 44.0371L40.6905 43.5014L41.1905 44.3675ZM64 37.1119C64 35.2132 63.5601 33.4202 62.7777 31.8265L64.573 30.9451C65.4871 32.807 66 34.901 66 37.1119H64ZM51.9904 49.1214C58.6231 49.1214 64 43.7445 64 37.1119H66C66 44.8491 59.7277 51.1214 51.9904 51.1214V49.1214ZM42.02 43.809C44.1785 47.0155 47.8387 49.1214 51.9904 49.1214V51.1214C47.1453 51.1214 42.8751 48.6609 40.3609 44.9259L42.02 43.809ZM40.6905 43.5014L63.1754 30.5198L64.1754 32.2518L41.6905 45.2335L40.6905 43.5014Z" fill="black" mask="url(#path-5-outside-2_95_55)"/>
<path fill-rule="evenodd" clip-rule="evenodd" d="M60.4448 33.1764C60.5879 33.8024 60.6635 34.454 60.6635 35.1234C60.6635 39.9277 56.7688 43.8224 51.9644 43.8224C49.6755 43.8224 47.593 42.9384 46.0398 41.4931L60.4448 33.1764Z" fill="#D47FFF"/>
<path d="M39.9652 18.202C38.7298 18.2175 37.7411 19.2415 37.7715 20.4671C37.7865 21.7083 38.8054 22.7013 40.0255 22.6858C41.2609 22.6702 42.2496 21.6463 42.2192 20.4206C42.2042 19.1794 41.1853 18.1864 39.9652 18.202ZM40.0103 21.7859C39.2691 21.8014 38.667 21.1963 38.6518 20.4516C38.6366 19.7069 39.2391 19.1018 39.9649 19.0863C40.7062 19.0708 41.3083 19.6759 41.3235 20.4206C41.3387 21.1653 40.7362 21.7704 40.0103 21.7859Z" fill="#33B0E5"/>
<path d="M47.7479 20.343C48.4121 19.769 49.0455 19.1484 49.6326 18.4967C51.5174 16.4022 52.1511 14.6956 51.4875 13.563C50.5305 11.9495 47.3955 12.2908 43.7813 13.6406C43.0413 9.85498 41.6833 6.96922 39.8147 7.00025C37.9461 7.03128 36.6633 9.93255 36.0288 13.7492C32.3846 12.508 29.2343 12.2443 28.3226 13.8888C27.689 15.0369 28.3679 16.7125 30.3131 18.7605C30.9151 19.3966 31.5635 20.0017 32.2428 20.5602C31.5786 21.1343 30.9452 21.7549 30.3581 22.4065C28.4733 24.501 27.8396 26.2076 28.5032 27.3402C28.9663 28.116 29.9082 28.4418 31.1745 28.4262C32.9042 28.3176 34.6031 27.9298 36.2094 27.2782C36.9494 31.0638 38.3074 33.9495 40.176 33.9185C42.0446 33.8875 43.3274 30.9862 43.9619 27.1695C45.5832 27.7746 47.2973 28.116 49.0269 28.178C50.2933 28.1625 51.2354 27.8057 51.6681 27.0299C52.3017 25.8818 51.6228 24.2062 49.6776 22.1583C49.0601 21.4911 48.4272 20.9015 47.7479 20.343ZM50.7151 14.0285C51.1473 14.7422 50.4827 16.2006 48.9687 17.8917C48.3662 18.5588 47.7174 19.1794 47.0377 19.769C46.204 19.1173 45.293 18.4657 44.3358 17.8451C44.259 16.7125 44.1204 15.5955 43.9509 14.5405C47.5187 13.1752 50.1441 13.0355 50.7151 14.0285ZM41.8166 23.5236C41.2142 23.8804 40.6272 24.2217 40.0403 24.532C39.4535 24.2372 38.8513 23.9269 38.2492 23.5856C37.647 23.2443 37.0603 22.903 36.5045 22.5461C36.4584 21.8945 36.4432 21.2118 36.4279 20.5137C36.4127 19.8155 36.4284 19.1329 36.4441 18.4812C37.0002 18.1089 37.5717 17.7365 38.1587 17.3952C38.7611 17.0384 39.348 16.697 39.935 16.3867C40.5217 16.6815 41.1239 16.9918 41.7261 17.3331C42.3282 17.6745 42.915 18.0158 43.4708 18.3726C43.5169 19.0243 43.5321 19.7069 43.5473 20.4051C43.5625 21.1032 43.5468 21.7859 43.5311 22.4375C42.9751 22.7944 42.4035 23.1667 41.8166 23.5236ZM43.469 23.5391C43.4224 24.3769 43.3294 25.1836 43.2365 25.9439C42.5262 25.6801 41.7851 25.3698 41.0285 25.013C41.4455 24.7803 41.8626 24.5475 42.2642 24.2993C42.6658 24.0511 43.0828 23.8028 43.469 23.5391ZM39.0672 25.0285C38.3103 25.4009 37.5844 25.7422 36.8893 26.0214C36.766 25.2767 36.6737 24.47 36.5967 23.6322C36.9982 23.8804 37.4151 24.1131 37.832 24.3458C38.218 24.5786 38.6348 24.8113 39.0672 25.0285ZM35.5781 21.9255C34.8987 21.4601 34.2503 20.9946 33.6327 20.5292C34.2352 20.0482 34.8685 19.5518 35.5327 19.0863C35.5171 19.5673 35.517 20.0327 35.5322 20.5137C35.5321 20.9791 35.5474 21.4446 35.5781 21.9255ZM36.4908 17.3331C36.5374 16.4953 36.6304 15.6886 36.7233 14.9283C37.4336 15.1921 38.1748 15.5179 38.9314 15.8592C38.5143 16.0919 38.0973 16.3247 37.6957 16.5729C37.294 16.8367 36.8924 17.0849 36.4908 17.3331ZM40.9081 15.8592C41.6649 15.4869 42.3909 15.1455 43.0859 14.8663C43.2092 15.611 43.3016 16.4178 43.3785 17.2556C42.9771 17.0073 42.5602 16.7746 42.1433 16.5264C41.7573 16.2936 41.3404 16.0764 40.9081 15.8592ZM44.3972 18.9622C45.0765 19.4121 45.725 19.8776 46.3425 20.3585C45.7401 20.8395 45.1067 21.336 44.4425 21.8014C44.4581 21.3205 44.4583 20.855 44.443 20.374C44.4432 19.9086 44.4279 19.4276 44.3972 18.9622ZM39.8298 7.88459C40.9726 7.86908 42.2227 10.1808 42.9472 13.9509C41.9587 14.3543 40.9393 14.8197 39.9353 15.3472C38.9163 14.8508 37.8817 14.4163 36.878 14.0285C37.4971 10.2584 38.687 7.90011 39.8298 7.88459ZM30.9464 18.1399C29.3718 16.4798 28.6928 15.0525 29.0946 14.3233C29.3418 13.8888 29.9905 13.6561 30.9634 13.6406C32.6467 13.7027 34.3145 14.044 35.8895 14.6491C35.7347 15.7196 35.6416 16.8367 35.5795 17.9692C34.6218 18.6209 33.7413 19.288 32.9225 19.9707C32.2278 19.3811 31.5639 18.776 30.9464 18.1399ZM29.2601 26.8592C28.828 26.1301 29.4925 24.6872 31.0065 22.9961C31.609 22.3289 32.2579 21.7083 32.9376 21.1188C33.7713 21.7704 34.6822 22.422 35.6395 23.0426C35.7317 24.1752 35.8549 25.2923 36.0244 26.3473C32.4566 27.6971 29.8312 27.8367 29.2601 26.8592ZM40.1454 32.9876C39.0181 33.0031 37.7525 30.6914 37.028 26.9213C38.0165 26.5179 39.0359 26.0525 40.0399 25.525C41.059 26.0214 42.0935 26.4559 43.0972 26.8437C42.4782 30.6294 41.2882 32.9721 40.1454 32.9876ZM50.8807 26.5645C50.3244 27.5574 47.6991 27.4954 44.0858 26.2387C44.2406 25.1681 44.3336 24.0511 44.3958 22.9185C45.3535 22.2669 46.234 21.5997 47.0527 20.9171C47.7475 21.4911 48.4113 22.0962 49.0288 22.7323C50.6034 24.4079 51.2825 25.8353 50.8807 26.5645Z" fill="#33B0E5"/>
</svg>
