<svg width="100" height="101" viewBox="0 0 100 101" fill="none" xmlns="http://www.w3.org/2000/svg">
<path d="M48.8268 99.8902C47.9858 99.6956 47.1959 99.3698 46.625 98.982C46.096 98.6227 2.57496 55.2863 1.59091 54.139C-0.286201 51.9505 -0.526686 48.8106 0.999872 46.4222C1.30821 45.9398 5.28116 41.9014 16.0341 31.1402C24.0725 23.0957 30.6962 16.5139 30.7535 16.5139C30.8108 16.5139 32.5527 18.2094 34.6243 20.2816L38.391 24.0493L38.1325 24.6976C37.189 27.0641 37.3107 29.9177 38.4552 32.2604C39.309 34.008 40.9599 35.6704 42.6295 36.4638C43.0617 36.6691 43.4842 36.8756 43.5685 36.9225C43.7034 36.9977 43.7216 38.5579 43.7216 50.0038C43.7216 61.4497 43.7033 63.0099 43.5685 63.0851C43.4842 63.132 43.0617 63.3385 42.6295 63.5438C40.9592 64.3375 39.3468 65.9595 38.4709 67.7271C36.9519 70.7926 37.2443 74.5404 39.2184 77.3068C39.8679 78.217 41.2593 79.489 42.1753 80.0098C43.7973 80.9321 45.4068 81.308 47.3463 81.2173C48.5815 81.1596 49.2843 81.0093 50.3978 80.5647C53.3499 79.3859 55.5554 76.6421 56.122 73.4433C56.3858 71.9539 56.1531 69.8004 55.5753 68.384C54.6894 66.2124 52.7827 64.2394 50.6879 63.3268L50.001 63.0276V49.9949V36.9623L50.4727 36.7822L50.9445 36.602L57.1647 42.8223L63.385 49.0425L63.0266 50.1137C62.4498 51.8374 62.3715 53.7941 62.8103 55.5174C63.0637 56.5127 63.9033 58.1554 64.6034 59.0257C65.4338 60.0578 66.5425 60.9289 67.8022 61.5388C69.4669 62.3448 71.0535 62.6296 72.856 62.4461C75.1351 62.2141 77.0517 61.2576 78.7037 59.5278C80.3874 57.7648 81.2446 55.6025 81.2446 53.1179C81.2446 50.511 80.2347 48.1445 78.3659 46.3722C76.5798 44.6783 74.7733 43.907 72.3507 43.8041C70.8648 43.741 70.0663 43.8513 68.747 44.3018L67.8381 44.6122L61.6109 38.385L55.3837 32.1578L55.6554 31.4065C56.063 30.2796 56.2255 29.3469 56.2275 28.1239C56.2318 25.4996 55.2271 23.1365 53.3506 21.3569C51.5645 19.663 49.758 18.8917 47.3354 18.7888C45.8496 18.7257 45.0509 18.836 43.732 19.2864L42.8233 19.5967L39.0096 15.7839L35.1959 11.9712L40.2756 6.88479C43.0694 4.08726 45.6539 1.57169 46.019 1.29464C48.0948 -0.280965 50.9462 -0.430985 53.2614 0.913592C54.08 1.38903 98.4013 45.6822 99.0032 46.6264C100.445 48.8881 100.312 51.8951 98.6749 54.0369C98.4173 54.3738 88.2908 64.5559 76.1714 76.6637C59.1204 93.6984 53.9974 98.7603 53.5226 99.0423C52.1315 99.8685 50.2229 100.213 48.8268 99.8902Z" fill="#F13B2E"/>
</svg>
