<svg width="100" height="101" viewBox="0 0 100 101" fill="none" xmlns="http://www.w3.org/2000/svg">
<path d="M47.4546 99.9422C32.2765 99.1303 18.4162 91.5926 9.47855 79.2896C2.7429 70.0178 -0.620842 58.4377 0.0945904 46.9843C1.00082 32.4765 7.91249 19.4132 19.4363 10.4277C29.7904 2.35424 43.1635 -1.27497 56.3858 0.400247C65.8721 1.60213 74.6996 5.47569 82.2096 11.7319C83.5291 12.8311 86.3102 15.5558 87.5099 16.9246C97.5497 28.3805 101.796 43.2944 99.3015 58.3384C97.0452 71.9449 89.0904 84.1248 77.4445 91.8042C68.6851 97.5803 57.9184 100.502 47.4546 99.9422ZM38.088 85.2352L38.1258 80.2593L38.3919 79.2775C38.9219 77.3223 39.6904 76.0154 41.0684 74.7261L41.9427 73.9081L41.2538 73.8392C37.1902 73.4332 32.7669 72.2004 29.8051 70.6485C28.0407 69.7239 27.0078 68.9534 25.4522 67.4014C22.8878 64.8429 21.4603 62.256 20.517 58.4584C19.7925 55.5413 19.5363 53.0345 19.6184 49.6664C19.6763 47.2891 19.8578 46.043 20.4106 44.227C21.0478 42.1338 22.4225 39.6485 23.8796 37.9555L24.4828 37.2547L24.2276 36.5056C23.1179 33.2473 23.2778 29.1728 24.6654 25.3503C24.938 24.5994 24.9863 24.5319 25.3111 24.4477C25.8249 24.3146 27.9431 24.5323 29.0603 24.8331C31.2921 25.434 35.0979 27.3123 37.7014 29.0979L38.2062 29.4441L39.3345 29.1541C44.4385 27.8423 50.4396 27.5051 56.1306 28.2103C57.4481 28.3735 60.3363 28.9274 61.5914 29.2574L62.3059 29.4453L63.0204 28.9682C66.0723 26.9298 69.5018 25.327 72.3074 24.6276C73.2886 24.383 73.5501 24.356 74.3998 24.4117C75.1332 24.4597 75.4013 24.5166 75.4949 24.6443C75.6789 24.895 76.1989 26.5222 76.4855 27.744C76.873 29.3956 76.9884 30.6328 76.9224 32.4256C76.8638 34.0147 76.615 35.4473 76.1954 36.6115C76.1068 36.8571 76.0343 37.1156 76.0343 37.1859C76.0343 37.2561 76.3181 37.6523 76.665 38.0662C79.8454 41.8608 81.1753 46.3815 80.835 52.2409C80.4114 59.5334 78.3233 64.5875 74.2481 68.1842C70.881 71.156 65.6343 73.1267 59.157 73.8525L58.4577 73.9309L59.1294 74.4752C60.3401 75.4564 61.3439 76.9544 61.8936 78.6005C62.385 80.072 62.4577 80.9918 62.4584 85.7456C62.4587 88.1455 62.4782 90.1091 62.5018 90.1091C62.5254 90.1091 63.0651 89.9309 63.7012 89.7132C76.9937 85.1634 87.3009 73.9561 90.7176 60.3376C91.4583 57.3855 91.8131 54.9413 91.9474 51.8661C92.4668 39.9751 88.0807 28.675 79.6975 20.3065C72.1791 12.8012 62.4982 8.53013 51.9223 8.05232C42.8816 7.64388 34.1094 10.0907 26.5812 15.1208C24.062 16.804 21.784 18.7494 19.3887 21.2631C13.088 27.8753 9.19154 36.4452 8.20452 45.8615C7.99045 47.9038 7.99045 52.087 8.20452 54.1292C8.81865 59.9882 10.5237 65.4677 13.2544 70.3584C17.9288 78.7303 25.2223 85.2241 34.0323 88.858C35.3243 89.3909 37.6256 90.1971 37.8786 90.2055C38.0367 90.2108 38.0532 89.8174 38.088 85.2352L38.088 85.2352Z" fill="white"/>
</svg>
