<svg width="174" height="174" viewBox="0 0 174 174" fill="none" xmlns="http://www.w3.org/2000/svg">
<path d="M75.9794 166.248C51.9001 162.838 30.8591 148.891 18.3289 128.034C8.88578 112.317 5.13911 93.3899 7.87661 75.234C11.3442 52.2362 24.1824 32.3781 43.8033 19.6631C61.4327 8.23861 83.2543 4.31883 104.096 8.83282C119.049 12.0714 132.579 19.4765 143.677 30.4955C145.627 32.4316 149.679 37.1624 151.401 39.5114C165.806 59.1712 170.494 83.5347 164.42 107.166C158.927 128.539 144.549 146.843 124.915 157.459C110.148 165.444 92.5796 168.6 75.9794 166.248ZM63.1007 141.501L63.8548 133.575L64.4159 132.047C65.5332 129.004 66.9405 127.028 69.3167 125.166L70.8243 123.984L69.7358 123.778C63.3154 122.564 56.437 119.982 51.9326 117.096C49.2492 115.376 47.7103 114.004 45.4472 111.313C41.7167 106.877 39.802 102.555 38.8281 96.3704C38.0801 91.6199 38.0213 87.5884 38.6218 82.2315C39.0457 78.4504 39.5087 76.4896 40.6431 73.6721C41.9506 70.4245 44.4883 66.6548 47.0468 64.1596L48.106 63.1267L47.8038 61.8972C46.4894 56.549 47.3124 50.0768 50.0572 44.1776C50.5964 43.0188 50.6828 42.9179 51.2122 42.829C52.0498 42.6885 55.3956 43.3308 57.1343 43.9661C60.6078 45.235 66.412 48.7597 70.3127 51.9688L71.0691 52.5911L72.9079 52.2862C81.2262 50.907 90.8385 51.2063 99.8111 53.1239C101.888 53.5679 106.415 54.8534 108.369 55.5545L109.482 55.9537L110.687 55.2927C115.836 52.4694 121.526 50.3928 126.095 49.6694C127.693 49.4163 128.114 49.4098 129.46 49.6169C130.623 49.7957 131.042 49.9239 131.173 50.1405C131.432 50.5656 132.034 53.2318 132.32 55.2193C132.707 57.9057 132.719 59.8938 132.364 62.7423C132.049 65.2669 131.452 67.5157 130.621 69.3127C130.446 69.6919 130.294 70.0938 130.284 70.2058C130.274 70.3178 130.672 70.9888 131.167 71.6969C135.707 78.1888 137.196 85.5798 135.837 94.8717C134.144 106.436 130.112 114.201 123.114 119.365C117.333 123.633 108.696 126.042 98.27 126.296L97.1446 126.323L98.1392 127.284C99.9322 129.017 101.323 131.545 101.97 134.245C102.548 136.659 102.536 138.135 101.874 145.713C101.54 149.538 101.297 152.67 101.335 152.674C101.372 152.677 102.257 152.468 103.301 152.21C125.123 146.812 143.115 130.385 150.46 109.155C152.052 104.553 152.958 100.707 153.601 95.8239C156.087 76.9431 150.672 58.32 138.477 43.8124C127.54 30.8012 112.705 22.6435 95.9145 20.4071C81.5613 18.4954 67.2381 21.1721 54.5372 28.1398C50.2872 30.4714 46.3849 33.2545 42.2165 36.9271C31.2517 46.5877 23.846 59.704 20.9597 74.5752C20.3337 77.8006 19.7504 84.4682 19.8068 87.7532C19.9686 97.1775 21.9221 106.149 25.5926 114.325C31.8758 128.321 42.5955 139.689 56.1311 146.709C58.1161 147.739 61.6717 149.345 62.0738 149.394C62.325 149.424 62.4063 148.799 63.1007 141.501L63.1007 141.501Z" fill="#AE43C0"/>
</svg>
