<svg width="140" height="139" viewBox="0 0 140 139" fill="none" xmlns="http://www.w3.org/2000/svg">
<path d="M33.1065 96.3252C20.9093 81.2439 10.8653 68.7952 10.7866 68.6616C10.6644 68.4541 13.8671 63.9065 32.6859 37.5658C44.8093 20.5969 54.7496 6.79949 54.7755 6.90502C54.8495 7.20632 57.3625 55.05 57.3138 55.2317C57.281 55.3543 61.0127 56.3967 72.5739 59.4945C83.8109 62.5054 87.8886 63.5535 87.9194 63.4387C87.9424 63.3526 90.8242 58.8742 94.3234 53.4866C97.8226 48.0991 102.002 41.6618 103.612 39.1817C108.177 32.1469 114.117 23.0081 114.26 22.7995C114.331 22.6955 116.043 39.5917 118.063 60.3466C120.083 81.1014 121.693 98.1422 121.64 98.215C121.587 98.2877 112.091 101.983 100.537 106.426C88.9828 110.87 74.1428 116.579 67.559 119.112C60.9752 121.646 55.5198 123.726 55.4359 123.733C55.352 123.74 45.3037 111.407 33.1065 96.3252ZM51.8064 104.473C51.4456 97.3774 50.5096 79.3883 50.3629 76.7299C50.2664 74.9818 50.0485 70.9142 49.8786 67.6907L49.5697 61.8299L39.3841 59.1017L29.1986 56.3736L25.0273 62.2257C22.7332 65.4444 20.8482 68.1093 20.8384 68.1477C20.8198 68.2217 22.6163 70.4611 31.39 81.3012C34.3778 84.9925 40.1976 92.1856 44.3229 97.2857C48.4483 102.386 51.843 106.548 51.8668 106.534C51.8905 106.52 51.8633 105.593 51.8064 104.473L51.8064 104.473ZM90.1501 101.719C102.697 96.9016 112.983 92.8863 113.008 92.7965C113.034 92.7067 112.749 89.4494 112.376 85.5579L111.698 78.4826L101.519 75.7525L91.3407 73.0224L89.4452 75.9068C88.4027 77.4932 84.6197 83.307 81.0385 88.8263C74.6244 98.7119 73.4438 100.53 69.133 107.16C67.9365 109 66.9488 110.538 66.938 110.579C66.9272 110.619 67.0126 110.613 67.1278 110.566C67.2431 110.518 77.6031 106.537 90.1501 101.72L90.1501 101.719ZM60.8824 105.009C61.5614 103.952 68.5555 93.1751 78.5032 77.8583L83.04 70.8728L76.7449 69.1472C73.2826 68.1981 67.6087 66.6778 64.1362 65.7687L57.8225 64.1158L58.2562 72.4331C58.4948 77.0077 58.8218 83.235 58.9828 86.2715C59.1438 89.3081 59.4425 95.0067 59.6465 98.9351C59.8505 102.864 60.0512 106.088 60.0925 106.1C60.1338 106.113 60.4893 105.622 60.8824 105.009ZM49.0968 53.0652C49.1158 52.9941 49.0921 52.2329 49.0441 51.3736C48.9082 48.9426 48.3617 38.5884 48.1416 34.2729C48.0323 32.1326 47.9117 30.3731 47.8734 30.363C47.8157 30.3478 36.0873 46.6786 34.7464 48.6411L34.332 49.2476L41.6971 51.2211C46.1407 52.4117 49.0759 53.1433 49.0968 53.0653L49.0968 53.0652ZM110.76 69.0094C110.578 66.618 108.588 46.6329 108.531 46.6179C108.492 46.608 107.397 48.2426 106.096 50.2504C104.795 52.2583 102.024 56.5269 99.9382 59.7362C97.8522 62.9455 96.132 65.6215 96.1156 65.6829C96.0992 65.7442 99.4 66.6825 103.451 67.7679L110.816 69.7413L110.76 69.0094Z" fill="#FCA325"/>
</svg>
