<svg width="100" height="99" viewBox="0 0 100 99" fill="none" xmlns="http://www.w3.org/2000/svg">
<path d="M25.0396 80.2063C11.3691 70.2612 0.10525 62.0468 0.00882797 61.952C-0.140845 61.8049 1.52955 57.254 11.4307 30.8334C17.8091 13.8129 23.0652 -0.0450172 23.1108 0.037976C23.2411 0.274929 36.1493 39.9863 36.1493 40.1502C36.1493 40.2608 39.526 40.2966 49.9579 40.2966C60.0972 40.2966 63.7665 40.2591 63.7665 40.1555C63.7665 40.0778 65.1824 35.6575 66.913 30.3325C68.6435 25.0075 70.7103 18.6453 71.5057 16.1943C73.7619 9.24223 76.7013 0.208528 76.7747 0.000577552C76.8113 -0.102989 82.0634 13.7354 88.4461 30.7526C94.8288 47.7697 100.028 61.7527 99.9999 61.826C99.9718 61.8992 92.8105 67.1522 84.0859 73.4994C75.3612 79.8465 64.1556 88.0001 59.1845 91.6185C54.2135 95.237 50.0897 98.2179 50.0207 98.2429C49.9516 98.2679 38.7102 90.1514 25.0396 80.2063ZM42.6206 82.8479C40.7161 76.9552 35.8702 62.0219 35.147 59.817C34.6714 58.3671 33.5704 54.9918 32.7002 52.3164L31.1181 47.452L21.9277 47.4529L12.7374 47.4537L10.5459 53.3215C9.34055 56.5487 8.35477 59.2174 8.35526 59.252C8.35627 59.3184 10.3738 60.7984 20.2055 67.9453C23.5535 70.3789 30.0756 75.1217 34.6991 78.4848C39.3226 81.8479 43.1193 84.5857 43.1362 84.5688C43.1531 84.5519 42.9211 83.7774 42.6206 82.8477V82.8479ZM74.2799 71.8798C83.756 64.9934 91.5099 59.2927 91.5108 59.2114C91.5117 59.1302 90.5372 56.4522 89.3454 53.2602L87.1784 47.4566L77.9935 47.4543L68.8087 47.452L67.8636 50.3079C67.3438 51.8786 65.4705 57.6264 63.7007 63.0808C60.5308 72.8501 59.9469 74.647 57.8133 81.2008C57.2212 83.0198 56.7367 84.5378 56.7367 84.5742C56.7367 84.6106 56.8073 84.5865 56.8936 84.5205C56.9799 84.4545 64.8037 78.7663 74.2799 71.8799V71.8798ZM50.3824 81.2517C50.7155 80.2084 54.1726 69.5578 59.0921 54.419L61.3357 47.5147L55.6468 47.482C52.5179 47.4641 47.3982 47.4641 44.2697 47.482L38.5815 47.5147L40.8229 54.419C42.0557 58.2164 43.7357 63.3852 44.5563 65.9053C45.3768 68.4254 46.9137 73.1555 47.9716 76.4167C49.0295 79.6779 49.9258 82.347 49.9634 82.3481C50.001 82.3493 50.1895 81.8558 50.3824 81.2517ZM28.7429 40.18C28.7429 40.1157 28.5512 39.4803 28.3169 38.7677C27.6541 36.7518 24.8584 28.1581 23.6995 24.5747C23.1248 22.7974 22.6263 21.3434 22.5917 21.3435C22.5398 21.3438 16.3499 37.7379 15.6637 39.6926L15.4517 40.2966H22.0973C26.1068 40.2966 28.7429 40.2504 28.7429 40.18V40.18ZM84.2521 39.6929C83.5594 37.7207 77.3759 21.3448 77.324 21.3452C77.2895 21.3454 76.7359 22.9687 76.0938 24.9525C75.4517 26.9362 74.0818 31.1549 73.0496 34.3273C72.0174 37.4996 71.1729 40.1405 71.1729 40.1959C71.1729 40.2513 74.1634 40.2966 77.8185 40.2966H84.4641L84.2521 39.6929Z" fill="#FCA325"/>
</svg>
