<svg width="40" height="45" viewBox="0 0 40 45" fill="none" xmlns="http://www.w3.org/2000/svg">
<path d="M19.5755 44.9483C18.801 44.86 18.0521 44.545 17.4507 44.0546C17.2342 43.878 16.8965 43.516 16.7268 43.2784C16.543 43.0212 16.2952 42.5308 16.1952 42.2261C15.9568 41.5001 15.9295 40.7188 16.1169 39.987C16.14 39.8969 16.1568 39.8216 16.1543 39.8197C16.151 39.8173 11.0811 36.8933 7.29579 34.711L6.91789 34.4932L6.68515 34.698C6.05005 35.2568 5.35223 35.5794 4.52918 35.6948C4.15723 35.747 3.57833 35.7277 3.21244 35.6509C1.73008 35.34 0.557735 34.2534 0.153547 32.8158C0.0418417 32.4184 0.012431 32.1958 0.0115008 31.7406C0.0100475 31.043 0.124428 30.539 0.419382 29.9429C0.923445 28.9243 1.84844 28.1595 2.94701 27.853L3.07327 27.8178V22.4826C3.07327 18.2335 3.0677 17.1458 3.0458 17.1393C2.32038 16.9234 1.84724 16.6766 1.35917 16.2595C0.642709 15.6473 0.132396 14.679 0.0203474 13.7194C-0.0213155 13.3625 0.00324617 12.7703 0.0735451 12.4371C0.173565 11.963 0.351674 11.5201 0.6028 11.1211C0.777222 10.8439 0.879408 10.714 1.11889 10.4651C1.70931 9.85135 2.45167 9.45675 3.31801 9.29615C3.57493 9.24853 4.1821 9.23137 4.44908 9.26422C5.32805 9.37231 6.10995 9.73536 6.76808 10.341L6.91651 10.4776L8.1515 9.76466C8.83074 9.37257 10.9083 8.17454 12.7682 7.10239C14.6281 6.03023 16.1524 5.1511 16.1554 5.14876C16.1583 5.14633 16.141 5.06652 16.1166 4.9712C15.767 3.60449 16.2038 2.09438 17.2315 1.11638C18.4776 -0.0693855 20.2974 -0.337005 21.8255 0.440823C23.4412 1.26324 24.2866 3.02705 23.9239 4.81853C23.894 4.96625 23.8639 5.10168 23.8571 5.11948C23.8478 5.14356 24.2034 5.35913 25.2455 5.96129C26.0159 6.40649 27.17 7.07357 27.8101 7.4437C28.4503 7.81383 29.552 8.4508 30.2586 8.85919C30.9651 9.26757 31.892 9.80345 32.3182 10.05L33.0933 10.4983L33.2913 10.3099C34.0945 9.54561 35.2993 9.14447 36.4245 9.26676C37.8523 9.42195 39.0714 10.3023 39.6601 11.6034C39.7755 11.8585 39.8689 12.1509 39.9363 12.4683C39.9899 12.7205 39.9954 12.7905 39.9963 13.2292C39.9972 13.7496 39.9711 13.9477 39.8433 14.3883C39.6454 15.07 39.208 15.7589 38.6689 16.2377C38.2301 16.6274 37.613 16.9648 37.0604 17.1172L36.9341 17.152V22.4872C36.9341 26.7363 36.9397 27.824 36.9616 27.8305C37.6874 28.0466 38.1625 28.2945 38.6477 28.7103C39.3114 29.2792 39.7908 30.132 39.9561 31.038C40.0182 31.3787 40.0137 32.0966 39.9472 32.4264C39.8783 32.7681 39.8084 32.9993 39.6892 33.2795C39.1155 34.6286 37.8943 35.5374 36.4291 35.7057C36.0869 35.7451 35.541 35.7205 35.2068 35.6507C34.8235 35.5707 34.5748 35.4833 34.2002 35.2973C33.805 35.101 33.5326 34.911 33.2297 34.6203C33.1 34.4958 32.9916 34.4085 32.9748 34.415C32.9587 34.4212 32.2397 34.8337 31.377 35.3316C27.122 37.7877 26.1373 38.3562 25.0213 39.001C24.3571 39.3848 23.8162 39.7097 23.8194 39.7228C23.8228 39.7359 23.8492 39.839 23.8785 39.9519C24.0009 40.4228 24.037 41.0692 23.9669 41.5344C23.7067 43.2617 22.3846 44.6142 20.6625 44.9146C20.4139 44.958 19.8215 44.9764 19.5755 44.9483L19.5755 44.9483ZM25.9107 36.5671C27.4989 35.6491 29.1738 34.6811 29.6328 34.416C31.8495 33.1357 32.1691 32.9486 32.1691 32.9306C32.1691 32.9199 32.1536 32.8578 32.1346 32.7926L32.1001 32.6739H20.0039H7.9077L7.88183 32.7522C7.86763 32.7953 7.85945 32.8332 7.86366 32.8365C7.86802 32.8399 8.23696 33.0532 8.68383 33.3108C9.13069 33.5683 11.191 34.7569 13.2623 35.9521C15.3336 37.1473 17.0509 38.1356 17.0785 38.1483C17.1229 38.1688 17.1421 38.1586 17.2432 38.0615C17.8734 37.4559 18.6956 37.0769 19.5911 36.9792C20.6514 36.8635 21.7478 37.1988 22.5714 37.8905C22.6749 37.9774 22.8041 38.0947 22.8584 38.1511C22.9132 38.2079 22.9719 38.2497 22.9902 38.2449C23.0083 38.24 24.3225 37.4851 25.9107 36.5671H25.9107ZM32.1113 30.747C32.1953 30.4544 32.2318 30.348 32.3149 30.1534C32.5002 29.7196 32.769 29.3048 33.0897 28.9577L33.2263 28.8098L27.1971 18.3723C23.881 12.6317 21.1554 7.91792 21.1403 7.89731C21.1172 7.86597 21.1001 7.8636 21.0358 7.88264C20.8607 7.93456 20.4348 7.99472 20.1575 8.0067C19.8277 8.02095 19.492 7.99232 19.1693 7.92244C19.0546 7.89759 18.9435 7.87589 18.9224 7.87419C18.8935 7.87177 17.4044 10.4331 12.8359 18.3431L6.78773 28.8151L6.94571 28.9932C7.36996 29.4717 7.63691 29.9292 7.81989 30.4914L7.91527 30.7845L20.0077 30.785C31.5058 30.7854 32.1008 30.7835 32.1113 30.747V30.747ZM11.1902 17.3815L17.2382 6.90909L17.1898 6.85759C17.1632 6.82925 17.1338 6.8061 17.1246 6.8061C17.1153 6.8061 16.3686 7.23228 15.465 7.75317C14.5615 8.27406 13.1108 9.11043 12.2412 9.61179C11.3716 10.1132 10.171 10.8052 9.57316 11.1497C7.80642 12.1677 7.8711 12.1287 7.87341 12.1763C7.87438 12.1998 7.8971 12.3212 7.92349 12.4461C8.2053 13.779 7.76692 15.183 6.77045 16.1388C6.44397 16.4519 6.12277 16.6738 5.71935 16.8648C5.50629 16.9657 5.06043 17.1269 4.99437 17.1269C4.96564 17.1269 4.96176 17.7596 4.96176 22.4746V27.8223L5.01117 27.8426C5.03835 27.8537 5.07895 27.8609 5.10139 27.8583C5.13109 27.8549 6.79157 24.9979 11.1902 17.3814L11.1902 17.3815ZM34.9743 27.851L35.0237 27.8378V22.4877V17.1377L34.7591 17.0533C33.7301 16.7251 32.8715 15.9747 32.3984 14.9899C32.011 14.1835 31.907 13.3095 32.0923 12.4177C32.1223 12.2733 32.1395 12.1489 32.1305 12.1413C32.1215 12.1337 31.3632 11.6944 30.4453 11.1652C28.9191 10.2851 25.2323 8.15649 23.5746 7.1982C23.2015 6.98255 22.8895 6.80611 22.8812 6.80611C22.8729 6.80611 22.8444 6.82922 22.8178 6.85745L22.7696 6.90877L28.6466 17.0849C31.8789 22.6817 34.6022 27.3969 34.6984 27.5629C34.7946 27.729 34.885 27.8647 34.8991 27.8646C34.9133 27.8643 34.9472 27.8583 34.9744 27.851L34.9743 27.851Z" fill="#5736DF"/>
</svg>
