<svg width="60" height="69" viewBox="0 0 60 69" fill="none" xmlns="http://www.w3.org/2000/svg">
<path d="M0 0.911133L5.45707 62.147L29.9583 68.951L54.5221 62.14L60 0.911133H0ZM49.8496 58.2382L30.1041 63.716V63.7508L30.0555 63.7369L30.0069 63.7508V63.716L10.2615 58.2451L5.58204 5.91692H54.5152L49.8496 58.2382ZM39.2201 36.1391L38.3522 45.8799L29.9861 48.1363L29.9722 48.1433L21.5992 45.8868L21.0646 39.8952H13.5246L14.58 51.6911L29.9653 55.9609H29.9722H29.9861L30 55.954L45.3714 51.6911L47.4335 28.6339H20.0579L19.3775 20.9412H48.093H48.1208L48.7943 13.4291H11.1641L13.1914 36.1391H39.2201Z" fill="#F78740"/>
</svg>
