<svg width="103" height="104" viewBox="0 0 103 104" fill="none" xmlns="http://www.w3.org/2000/svg">
<g clip-path="url(#clip0_7_12)">
<path d="M5.3783 26.9542L35.42 91.1083L64.6309 88.8196L88.5437 71.7643L70.3449 3.30833L5.3783 26.9542ZM81.9467 69.3809L62.7257 83.0939L62.7393 83.1315L62.6812 83.1356L62.6341 83.1698L62.6204 83.1322L39.0844 84.99L13.3952 30.1745L66.3788 10.89L81.9467 69.3809ZM61.7282 49.6417L64.6273 60.5308L56.4579 66.2711L56.4456 66.284L46.4902 67.1407L43.5501 60.8637L35.386 63.8352L41.1774 76.1916L59.519 74.7515L59.5265 74.7488L59.5416 74.7433L59.5539 74.7303L74.5177 64.0567L67.6636 38.2783L38.022 49.067L34.2536 41.0057L65.3461 29.6889L65.3762 29.678L63.1449 21.2786L22.3998 36.1086L33.5449 59.8995L61.7282 49.6417Z" fill="#F78740"/>
</g>
<defs>
<clipPath id="clip0_7_12">
<rect width="80" height="80" fill="white" transform="translate(0.000244141 28.0603) rotate(-20)"/>
</clipPath>
</defs>
</svg>
