<svg width="206" height="205" viewBox="0 0 206 205" fill="none" xmlns="http://www.w3.org/2000/svg">
<path d="M103.4 0L192.168 51.25V153.75L103.4 205L14.6324 153.75V51.25L103.4 0Z" fill="#D47FFF"/>
<path d="M93.1724 131.877C88.815 131.58 88.6046 131.161 88.4256 122.427L88.3191 117.224L87.1306 116.451C82.0811 113.166 78.0118 108.554 75.4228 103.182C73.6198 99.4412 72.8475 96.2601 72.675 91.8638C72.4156 85.2548 74.1903 78.472 77.4132 73.7544C84.9931 62.6589 97.1215 57.5352 109.734 60.1002C117.356 61.6501 124.518 66.5734 129.072 73.3922C134.021 80.8027 135.455 90.3622 132.921 99.056C131.932 102.452 130.289 105.784 128.273 108.488C126.29 111.146 122.643 114.522 119.651 116.469L118.435 117.259L118.434 121.177C118.432 126.329 118.198 128.954 117.632 130.19C116.97 131.635 116.697 131.723 112.288 131.898C107.776 132.078 95.9249 132.065 93.1725 131.877H93.1724ZM111.191 120.395C111.191 117.574 111.274 115.22 111.392 114.669C111.659 113.423 112.408 112.626 114.304 111.57C116.475 110.361 117.915 109.254 119.898 107.271C123.5 103.67 125.599 99.9593 126.769 95.1235C127.129 93.6372 127.196 88.5277 126.88 86.6099C125.379 77.4737 119.311 70.3595 110.602 67.5255C107.627 66.5574 102.939 66.2416 99.4193 66.7722C94.5487 67.5065 89.9329 69.9835 86.1947 73.8691C84.3079 75.8303 83.2299 77.3207 82.1514 79.4595C80.2706 83.1893 79.5791 86.5234 79.7329 91.1199C79.8689 95.1817 80.6438 98.2759 82.3227 101.462C84.1642 104.956 88.2412 109.006 92.2576 111.331C92.9458 111.73 93.904 112.422 94.3869 112.871C95.2336 113.656 95.2711 113.734 95.4354 115.044C95.5292 115.791 95.6084 118.378 95.6115 120.794L95.6172 125.185H103.404H111.191L111.191 120.395Z" fill="#303030"/>
<path d="M96.6131 145.094C94.7207 145.021 92.9562 144.876 92.6921 144.772C91.6359 144.357 90.6 142.259 90.7818 140.904C90.9034 139.997 91.69 138.978 92.6406 138.495C93.3198 138.149 93.7711 138.13 102.216 138.077C111.443 138.02 113.689 138.137 114.699 138.727C116.723 139.909 116.42 143.542 114.208 144.628C112.974 145.233 105.391 145.434 96.6131 145.094Z" fill="#303030"/>
</svg>
