<svg width="205" height="205" viewBox="0 0 205 205" fill="none" xmlns="http://www.w3.org/2000/svg">
<path d="M102.5 0L191.268 51.25V153.75L102.5 205L13.7324 153.75V51.25L102.5 0Z" fill="#D47FFF"/>
<path d="M61.5046 128.041C61.5149 121.377 61.8389 120.544 64.4944 120.356C66.2176 120.234 66.6492 119.894 67.0315 118.354C67.457 116.641 67.5415 114.484 67.6618 102.271C67.7777 90.4973 67.8931 86.501 68.2112 83.2427C68.504 80.2442 68.9942 78.2257 69.5522 77.7207C70.3274 77.0192 73.4344 76.58 79.8872 76.26C85.0709 76.0029 99.0934 75.8558 118.688 75.8531L138.024 75.8501V79.6147V83.3793H107.36H76.6953V101.86V120.341H93.6018H110.508V125.68V131.019H86.0042H61.5L61.5046 128.041Z" fill="#303030"/>
<path d="M119.974 130.593C117.828 130.402 116.336 129.895 115.984 129.239C115.911 129.102 115.775 128.384 115.682 127.643C115.352 125.005 115.492 105.38 115.93 92.927L116.016 90.4971H129.758H143.5V110.347C143.5 129.159 143.488 130.197 143.26 130.198C143.129 130.2 139.417 130.322 135.012 130.47C126.699 130.751 122.166 130.788 119.974 130.593L119.974 130.593ZM135.149 108.772V97.2049H129.742H124.335V108.772V120.34H129.742H135.149V108.772Z" fill="#303030"/>
</svg>
