<svg width="201" height="217" viewBox="0 0 201 217" fill="none" xmlns="http://www.w3.org/2000/svg">
<path d="M187.531 91.8538L168.141 165.68C166.882 170.471 163.129 174.231 158.357 175.545L84.6546 195.317C82.2915 195.961 79.8153 195.946 77.4448 195.311C75.1098 194.685 72.934 193.454 71.1977 191.711L53.1436 173.357C50.4209 170.721 52.1353 170.513 53.303 170.426C57.9512 170.089 58.8956 169.98 64.119 168.615C64.6704 168.477 65.2661 168.751 65.6725 169.165L79.5294 183.306C80.0287 183.802 80.8842 184.031 81.5078 183.836L155.21 164.064C155.887 163.883 156.457 163.312 156.644 162.599L176.035 88.7734C176.226 88.0432 176.03 87.2661 175.5 86.7427L121.2 32.7111C120.701 32.2151 119.917 32.0049 119.222 32.181L45.5773 51.9492C44.8599 52.1383 44.2854 52.7278 44.1029 53.4224L24.7128 127.248C24.5257 127.961 24.7448 128.725 25.2797 129.23L40.1566 144.064C48.4255 151.37 55.7274 147.321 57.2056 141.693L76.3478 68.8112C76.6191 67.7781 77.6495 67.1963 78.6833 67.4733L86.7931 69.6464C87.809 69.9186 88.4316 70.9623 88.1649 71.9776L69.0228 144.859C65.6921 157.541 56.8632 162.972 44.8321 159.749C41.1426 158.76 38.2195 157.977 31.1444 151.792L16.8945 137.621C13.3684 134.122 11.9806 128.946 13.239 124.155L32.6244 50.3468C33.8828 45.5557 37.6282 41.7551 42.408 40.4812L116.12 20.6738C120.769 19.4604 126.152 20.9027 129.577 24.2796L183.875 78.3872C187.397 81.9045 188.789 87.0627 187.531 91.8538ZM114.824 143.863C95.7169 138.743 92.7867 132.83 93.872 122.96C93.9782 121.901 93.3013 120.919 92.2675 120.642L82.9278 118.14C81.7693 117.829 80.5992 118.507 80.2951 119.665C77.1048 131.812 79.9142 148.064 111.498 156.527C134.366 162.654 149.847 157.175 153.973 141.466C158.066 125.881 148.622 118.909 127.198 110.042C105.58 101.046 103.701 98.9031 105.076 93.6667C106.213 89.3387 109.653 84.0838 126.265 88.5349C141.094 92.5084 145.729 97.1627 145.351 107.756C145.299 108.753 145.976 109.659 146.957 109.922L156.332 112.434C156.92 112.591 157.538 112.49 158.038 112.185C158.547 111.845 158.911 111.333 159.012 110.731C162.056 93.111 152.718 82.0301 129.583 75.831C108.996 70.3149 94.4553 75.7029 90.6334 90.2544C86.4887 106.035 97.5472 113.688 116.786 120.921C139.812 129.569 140.741 133.516 139.52 138.165C137.405 146.215 130.028 147.937 114.824 143.863Z" fill="#A3D132"/>
</svg>
