<svg width="81" height="91" viewBox="0 0 81 91" fill="none" xmlns="http://www.w3.org/2000/svg">
<path d="M80.1287 26.8778L80.3173 64.9539C80.3295 67.425 79.0062 69.7215 76.8768 70.9708L43.9163 90.0134C42.8608 90.6289 41.6657 90.9412 40.4414 90.9412C39.2356 90.9412 38.0282 90.6289 36.9666 90.0134L25.8976 83.5005C24.2454 82.5819 25.0446 82.2604 25.596 82.0675C27.7922 81.3051 28.2331 81.1305 30.5738 79.7986C30.8216 79.6608 31.1441 79.7159 31.3933 79.8629L39.896 84.8876C40.2006 85.0622 40.6424 85.0622 40.9177 84.8876L73.8783 65.845C74.1812 65.6704 74.3819 65.3214 74.3801 64.9539L74.1915 26.8778C74.1896 26.5011 73.9946 26.1521 73.6715 25.9684L40.5316 6.94406C40.2269 6.76953 39.8219 6.76953 39.5098 6.94406L6.57684 25.9775C6.25558 26.1613 6.05485 26.5195 6.05662 26.8778L6.24527 64.9539C6.24709 65.3214 6.45128 65.6612 6.77432 65.8358L15.8579 71.0626C20.7854 73.5153 23.7811 70.6217 23.7667 67.7189L23.5805 30.1296C23.5779 29.5968 23.9992 29.1835 24.5331 29.1835H28.7214C29.246 29.1835 29.6808 29.606 29.6834 30.1296L29.8696 67.7189C29.902 74.2594 26.3491 78.0165 20.1358 78.0165C18.2304 78.0165 16.7208 78.0165 12.5131 75.9496L3.81732 70.9616C1.66647 69.7307 0.329493 67.4158 0.31725 64.9447L0.12865 26.8778C0.116407 24.4067 1.43045 22.0918 3.5691 20.8609L36.5295 1.79988C38.6132 0.614883 41.3931 0.614883 43.4793 1.79988L76.6286 20.8609C78.7795 22.101 80.1164 24.4067 80.1287 26.8778ZM51.8101 61.3254C41.9424 61.3254 39.767 58.8544 39.0156 53.9582C38.9301 53.4346 38.4772 53.0488 37.9433 53.0488H33.1199C32.5216 53.0488 32.0453 53.5265 32.0482 54.1236C32.0793 60.3885 35.5313 67.8567 51.8424 67.8567C63.6524 67.8567 70.4042 63.2178 70.3641 55.1157C70.3242 47.0779 64.8735 44.9375 53.4059 43.431C41.8277 41.8878 40.6455 41.0978 40.6322 38.3971C40.6211 36.1649 41.6005 33.1886 50.1795 33.1886C57.838 33.1886 60.672 34.8329 61.8574 39.9863C61.961 40.4731 62.4046 40.8222 62.9109 40.8222H67.7527C68.0564 40.8222 68.3412 40.6936 68.5426 40.4823C68.744 40.2526 68.853 39.9587 68.8239 39.6556C68.0159 30.7727 62.0858 26.6389 50.1378 26.6389C39.5061 26.6389 33.1953 31.1125 33.2325 38.6175C33.2728 46.7564 39.5894 49.0161 49.7934 50.0174C62.0051 51.2116 62.962 52.9937 62.9739 55.3912C62.9944 59.5433 59.6619 61.3254 51.8101 61.3254Z" fill="#A3D132"/>
</svg>
