<svg width="130" height="126" viewBox="0 0 130 126" fill="none" xmlns="http://www.w3.org/2000/svg">
<path d="M84.1352 70.2128L94.6529 74.1106C96.152 74.6677 97.3824 75.6662 98.2581 76.9662C103.741 70.378 109.408 60.2709 113.858 48.3406C122.421 25.4067 123.263 4.53731 115.705 1.7448C108.148 -1.0477 95.0864 15.2863 86.5107 38.2213C82.0595 50.1394 79.7197 61.4672 79.5344 70.0254C79.9671 69.9138 80.4131 69.8133 80.8644 69.7738C81.9865 69.6757 83.0812 69.8257 84.1352 70.2128Z" fill="#5736DF"/>
<path d="M76.7955 89.8564L87.3132 93.7541C88.0882 94.0428 88.8827 94.133 89.6512 94.0658C91.4076 93.9122 92.9752 92.8655 93.8675 91.2634C87.4893 87.618 80.6629 85.0319 73.522 83.346C72.7613 86.0305 74.1407 88.8719 76.7955 89.8564Z" fill="#5736DF"/>
<path d="M76.8459 74.6975C77.825 74.9314 78.7941 75.1908 79.7642 75.4623C84.8165 76.8762 89.6808 78.8105 94.4455 81.0115C95.3807 81.4459 96.317 81.8925 97.2533 82.3391C97.5469 81.0597 97.3729 79.7721 96.7968 78.6672C96.2054 77.5268 95.2132 76.5812 93.9178 76.1045L83.4002 72.2068C82.6252 71.9181 81.8296 71.8157 81.0612 71.8829C80.5367 71.9288 80.0197 72.0601 79.5335 72.2624C78.3935 72.7185 77.4605 73.5745 76.8459 74.6975Z" fill="#5736DF"/>
<path d="M74.4318 80.8205C77.1444 81.4804 79.8177 82.2543 82.4418 83.1678C84.0771 83.7376 85.7157 84.344 87.3119 85.0278C89.9032 86.1285 92.4463 87.3809 94.9158 88.7749L96.3711 84.8989C94.959 84.2113 93.5357 83.5369 92.1034 82.9002C88.2506 81.1478 84.3162 79.587 80.2654 78.3805C78.7892 77.9443 77.2929 77.559 75.7876 77.2113L74.4318 80.8205Z" fill="#5736DF"/>
<path d="M20.9387 78.6671C35.401 67.3849 16.2807 53.5223 9.42996 46.0221C6.68438 43.0175 1.42425 46.6733 4.21069 49.7234C10.5578 56.6654 27.6216 66.6889 13.7124 76.0054C9.60265 78.7616 7.1151 83.3424 10.6532 87.6788C14.2454 92.0718 23.1125 91.7139 28.1276 92.0003C31.6243 92.2106 35.3355 92.9061 38.7684 93.9331C37.479 94.6482 36.0946 95.2609 34.7611 95.8938C28.0704 99.0725 13.203 106.568 19.5564 116.533C24.7544 124.669 37.1452 123.425 46.8448 122.749C46.7058 122.564 46.6012 122.352 46.5056 122.102C45.8007 120.087 47.3927 118.755 51.3057 116.139C45.0493 116.134 38.8314 116.85 32.5635 116.292C19.9535 115.171 27.2482 106.814 33.9875 103.348C37.5399 101.526 51.4659 97.0379 46.0525 90.6533C42.7899 86.7968 34.9481 86.5119 30.5098 85.7941C27.4553 85.2993 24.2547 85.3826 21.1732 85.0008C13.9166 84.0994 16.7162 81.9617 20.9387 78.6671Z" fill="#5736DF"/>
<path d="M54.2702 116.728C49.8572 119.67 46.1689 122.046 50.3159 121.683C51.4381 121.585 53.1562 121.275 55.5791 120.731C58.8817 119.987 63.4961 118.785 69.8306 117.014C104.753 107.235 76.2702 92.1392 76.2702 92.1392C74.4031 91.5897 72.6566 91.4352 71.0465 91.5761C62.2523 92.3455 57.7426 102.192 62.5726 108.369C63.9975 110.186 58.7532 113.742 54.2702 116.728Z" fill="#5736DF"/>
</svg>
