<svg width="130" height="94" viewBox="0 0 130 94" fill="none" xmlns="http://www.w3.org/2000/svg">
<path d="M60.8873 93.3058C50.6002 92.3154 40.3812 87.681 32.8751 80.6019C27.5548 75.5844 23.6796 69.4932 21.2522 62.3327C20.5233 60.1824 19.6706 58.3603 18.7653 57.0187C18.0077 55.8958 16.9681 54.0985 16.4553 53.0247C15.9424 51.9509 15.4572 51.0713 15.377 51.07C15.2968 51.0689 14.7718 51.8027 14.2103 52.7011C13.2739 54.1995 11.1279 55.9979 10.2764 55.9979C10.0827 55.9979 9.69247 54.0138 9.28681 50.9666C7.83735 40.0784 5.47084 28.9074 3.41755 23.2611C2.90767 21.8589 1.90324 19.8246 1.18549 18.7402C0.0930276 17.0898 -0.0941805 16.6053 0.0360648 15.7653C0.262846 14.3027 0.95166 13.792 3.57979 13.138C5.25264 12.7216 7.98011 11.5189 13.059 8.95802C23.4042 3.74167 29.066 2.0157 34.3967 2.4534C35.7265 2.56259 37.077 2.66378 37.3978 2.67825C37.7187 2.69272 39.0023 2.42804 40.2503 2.09007C43.7751 1.13554 47.2243 0.780071 51.252 0.956249C55.1595 1.12717 57.6139 1.56365 61.3171 2.74614C64.1997 3.6666 64.5009 3.66895 66.4961 2.78655C67.3807 2.39535 69.333 1.74575 70.8345 1.343C77.1508 -0.351223 82.8563 -0.438592 89.3888 1.05888C91.3572 1.5101 91.6087 1.51034 92.9952 1.06251C98.1852 -0.613675 106.731 1.73427 118.919 8.18486C122.931 10.3086 124.211 10.8315 127.461 11.6755C129.959 12.3241 130.739 14.3745 129.238 16.3474C127.288 18.9104 125.442 24.0468 123.73 31.6735C122.862 35.5361 120.904 47.013 120.364 51.4041C120.171 52.9682 119.892 54.2478 119.743 54.2478C118.817 54.2478 116.185 51.9486 115.273 50.3419C114.788 49.488 112.11 55.1271 111.063 59.2062C105.479 80.9684 84.0445 95.5351 60.8873 93.3057V93.3058ZM73.1689 88.4001C76.5192 87.8196 81.4448 86.3457 81.0802 86.0328C80.957 85.9271 79.9375 85.5402 78.8146 85.1731C76.6839 84.4766 74.07 83.2497 72.1942 82.0656L71.094 81.371L70.6918 82.3335C69.97 84.0612 67.7083 85.4495 65.6073 85.4546C63.9122 85.459 61.5349 83.8361 60.8644 82.2173L60.5176 81.3802L59.3119 82.129C57.4198 83.3041 54.0875 84.7922 51.7765 85.4941L49.6624 86.1363L51.67 86.8135C53.5555 87.4495 58.1964 88.5146 60.1479 88.7592C62.8988 89.1039 70.2815 88.9003 73.1689 88.4001ZM50.0854 81.3834C54.2938 80.2367 59.7268 76.9285 63.4358 73.2543L65.7271 70.9844L68.3333 73.4427C74.1006 78.8826 80.7189 82.0572 86.2521 82.0377C91.7447 82.0183 94.4795 78.4973 93.1269 73.1866C91.5083 66.8315 86.1757 60.3332 79.2693 56.2996C77.3063 55.1532 73.7451 53.6206 72.2269 53.2688L71.4726 53.0941L72.1777 54.5188C72.6961 55.5663 72.8806 56.4156 72.8743 57.7263C72.8443 63.9998 65.4257 67.0803 60.7774 62.7493C58.3842 60.5194 57.9238 56.4652 59.7695 53.8731L60.3517 53.0555L59.5206 53.2545C50.8368 55.3334 41.3717 63.8401 38.8458 71.8359C36.6633 78.7447 39.8524 82.6795 47.0229 81.9252C47.9854 81.8239 49.3635 81.5802 50.0854 81.3834ZM34.7804 69.8521C37.8944 60.7437 48.2059 51.5878 58.2852 48.9814C61.106 48.252 66.927 48.0062 70.5021 48.4657C82.7784 50.0433 95.8379 62.0742 97.7641 73.5804L97.9488 74.6838L99.0013 73.4346C100.419 71.7522 102.889 67.935 104.024 65.6729C105.161 63.4075 106.794 58.5498 107.277 55.9979C107.509 54.7732 108.086 53.3226 108.908 51.9003C110.36 49.385 112.015 44.9743 112.491 42.3494C112.782 40.7436 112.724 40.1113 111.921 36.1312C110.344 28.3111 108.632 23.0693 105.983 17.9506C104.158 14.424 102.262 12.3024 98.9413 10.07C92.6067 5.81134 84.9161 3.86243 77.507 4.63821C74.0905 4.99594 70.1919 5.99055 67.623 7.15982C65.5232 8.11559 63.2158 8.11125 60.4201 7.14628C50.3434 3.66829 39.2574 5.24528 30.5912 11.3895C28.0934 13.1604 26.4721 15.1183 24.4639 18.7887C21.8025 23.653 19.6372 29.9947 18.1431 37.3006C17.419 40.8415 17.3856 41.3 17.7201 43.1028C18.518 47.4038 20.7035 52.3518 23.2983 55.7323C23.7433 56.3121 24.6283 58.3824 25.2816 60.3718C26.8903 65.271 29.389 69.8708 32.549 73.7506L33.5862 75.0241L33.934 73.1673C34.1253 72.146 34.5062 70.6541 34.7804 69.8521V69.8521ZM39.1479 54.4222C35.8035 53.3618 33.3659 51.2608 31.907 48.1814C31.0691 46.4127 30.9812 45.9639 30.9812 43.4562C30.9812 40.9642 31.0718 40.4946 31.8814 38.7895C33.0697 36.287 35.0263 34.3177 37.4781 33.1562C39.2547 32.3146 39.7007 32.227 42.2104 32.227C44.718 32.227 45.1668 32.315 46.9356 33.1529C49.422 34.3308 51.3357 36.2445 52.5137 38.731C53.3516 40.4997 53.4395 40.9486 53.4395 43.4562C53.4395 45.8541 53.334 46.4522 52.6555 47.8999C51.608 50.135 50.5964 51.4121 48.8695 52.6798C46.2531 54.6004 42.0727 55.3497 39.1479 54.4222ZM38.688 49.1178C39.3591 48.553 39.5854 48.1179 39.5854 47.3916C39.5854 46.0192 39.341 45.5373 38.3978 45.0496C36.4688 44.052 34.627 45.092 34.627 47.1789C34.627 49.5727 36.8729 50.645 38.688 49.1178ZM48.3651 43.9608C51.157 42.0957 50.9106 37.7595 47.9324 36.3463C44.9723 34.9416 41.6255 36.997 41.6281 40.2181C41.631 43.712 45.511 45.8675 48.3651 43.9608ZM85.7522 53.2581C82.7187 52.2688 80.0804 49.9241 78.7187 47.0073C77.6242 44.6626 77.4717 40.8301 78.377 38.4155C79.6351 35.06 82.3475 32.5062 85.7704 31.4542C92.2399 29.4658 98.9291 33.6179 100.261 40.4484C101.197 45.2534 98.3275 50.5532 93.6174 52.7168C91.5913 53.6476 87.7556 53.9115 85.7522 53.2581ZM85.6912 47.8536C86.2731 47.2718 86.5438 46.709 86.5438 46.0812C86.5438 45.4534 86.2731 44.8906 85.6912 44.3088C85.1093 43.7269 84.5466 43.4562 83.9188 43.4562C82.664 43.4562 81.2938 44.8265 81.2938 46.0812C81.2938 46.709 81.5644 47.2718 82.1463 47.8536C82.7282 48.4355 83.2909 48.7062 83.9188 48.7062C84.5466 48.7062 85.1093 48.4355 85.6912 47.8536ZM94.868 42.9936C97.479 41.7546 97.9347 38.1638 95.7573 35.9864C94.0091 34.2382 91.1919 34.3829 89.5019 36.3077C88.3293 37.6433 88.0838 39.0306 88.7236 40.7059C89.6505 43.1328 92.4097 44.1601 94.868 42.9936ZM65.0701 40.6711C64.6527 40.0342 64.5786 38.9563 64.5529 33.148C64.5263 27.1171 64.58 26.2811 65.04 25.5789C65.6884 24.5893 66.8254 24.525 67.3935 25.4458C67.7141 25.9656 67.7469 26.6951 67.551 28.9549C67.4142 30.5326 67.4164 33.7267 67.5565 36.1008C67.7079 38.676 67.7018 40.5979 67.5413 40.9041C67.1222 41.7035 65.6564 41.5653 65.0706 40.6711H65.0701ZM68.7331 40.7957C68.2953 39.9778 68.5579 36.4574 69.2372 34.0364C69.8402 31.8873 71.1977 30.3312 72.4696 30.3312C72.9523 30.3312 73.5041 30.5201 73.6958 30.751C74.2322 31.3974 73.9529 32.7679 73.219 33.0901C72.3077 33.4901 71.9958 34.3735 71.6366 37.5711C71.4622 39.1235 71.2208 40.5906 71.1001 40.8312C70.9795 41.0718 70.4761 41.3092 69.9816 41.3587C69.2949 41.4273 69 41.2944 68.7331 40.7957ZM61.3986 40.3208C61.1544 40.0401 60.866 39.2198 60.7576 38.4979C60.4658 36.555 59.5176 34.8149 58.3612 34.1002C57.5113 33.5749 57.3597 33.3275 57.434 32.5874C57.7033 29.9066 61.1512 31.4365 62.7203 34.9329C63.1401 35.8684 63.5692 37.3627 63.674 38.2537C63.8478 39.7324 63.8048 39.9154 63.1808 40.3524C62.311 40.9617 61.9504 40.9553 61.3986 40.3208V40.3208Z" fill="#BD4229"/>
</svg>
