<svg width="60" height="45" viewBox="0 0 60 45" fill="none" xmlns="http://www.w3.org/2000/svg">
<path d="M28.1019 43.9753C23.3539 43.5183 18.6375 41.3793 15.1731 38.112C12.7176 35.7963 10.929 32.9849 9.80872 29.6801C9.47229 28.6876 9.07872 27.8467 8.66092 27.2275C8.31123 26.7092 7.83145 25.8797 7.59475 25.3841C7.35805 24.8885 7.1341 24.4825 7.09708 24.4819C7.06006 24.4814 6.81775 24.8201 6.55861 25.2347C6.12643 25.9263 5.13597 26.7563 4.74293 26.7563C4.65354 26.7563 4.47345 25.8406 4.28622 24.4342C3.61724 19.4089 2.525 14.253 1.57733 11.647C1.342 10.9999 0.87842 10.0609 0.547148 9.56046C0.0429358 8.79873 -0.0434679 8.5751 0.0166453 8.18742C0.121314 7.51239 0.439228 7.27669 1.65221 6.97481C2.4243 6.78266 3.68313 6.22756 6.02721 5.0456C10.8019 2.63806 13.4151 1.84146 15.8754 2.04347C16.4891 2.09387 17.1125 2.14057 17.2605 2.14725C17.4086 2.15393 18.0011 2.03177 18.5771 1.87578C20.2039 1.43523 21.7958 1.27117 23.6548 1.35248C25.4582 1.43136 26.5911 1.63282 28.3002 2.17858C29.6306 2.60341 29.7696 2.6045 30.6905 2.19724C31.0988 2.01668 31.9998 1.71687 32.6929 1.53098C35.6081 0.74903 38.2414 0.708706 41.2564 1.39985C42.1648 1.6081 42.2809 1.60822 42.9209 1.40152C45.3163 0.627898 49.2605 1.71157 54.8856 4.68876C56.7375 5.66895 57.3282 5.91031 58.8282 6.29983C59.981 6.5992 60.3409 7.5455 59.6483 8.45609C58.7485 9.639 57.8965 12.0097 57.106 15.5297C56.7057 17.3124 55.802 22.6094 55.5524 24.6361C55.4635 25.358 55.3347 25.9486 55.2661 25.9486C54.8386 25.9486 53.6241 24.8874 53.2029 24.1458C52.9791 23.7518 51.743 26.3544 51.2599 28.2371C48.6825 38.2811 38.7898 45.0042 28.1019 43.9753V43.9753ZM33.7703 41.7112C35.3165 41.4432 37.5899 40.763 37.4216 40.6186C37.3648 40.5698 36.8942 40.3912 36.376 40.2218C35.3926 39.9004 34.1862 39.3341 33.3204 38.7876L32.8126 38.467L32.627 38.9112C32.2938 39.7086 31.25 40.3494 30.2803 40.3517C29.4979 40.3538 28.4007 39.6047 28.0912 38.8576L27.9312 38.4712L27.3747 38.8168C26.5015 39.3592 24.9635 40.046 23.8969 40.37L22.9211 40.6663L23.8477 40.9789C24.7179 41.2724 26.8599 41.764 27.7606 41.8769C29.0302 42.036 32.4376 41.9421 33.7703 41.7112ZM23.1163 38.4727C25.0587 37.9435 27.5662 36.4166 29.2781 34.7208L30.3356 33.6732L31.5385 34.8078C34.2003 37.3185 37.2549 38.7837 39.8086 38.7747C42.3437 38.7657 43.6059 37.1407 42.9816 34.6896C42.2346 31.7564 39.7734 28.7572 36.5858 26.8956C35.6798 26.3664 34.0362 25.6591 33.3355 25.4968L32.9874 25.4161L33.3128 26.0737C33.552 26.5571 33.6372 26.9491 33.6343 27.554C33.6204 30.4495 30.1965 31.8713 28.0511 29.8723C26.9465 28.8432 26.7341 26.972 27.5859 25.7757L27.8546 25.3983L27.4711 25.4901C23.4631 26.4496 19.0946 30.3758 17.9289 34.0662C16.9215 37.2548 18.3934 39.0709 21.7029 38.7228C22.1471 38.676 22.7831 38.5635 23.1163 38.4727ZM16.0525 33.1506C17.4897 28.9467 22.2489 24.7209 26.9008 23.518C28.2028 23.1813 30.8894 23.0679 32.5394 23.2799C38.2054 24.008 44.2329 29.5608 45.1219 34.8713L45.2071 35.3806L45.6929 34.804C46.3471 34.0275 47.4872 32.2658 48.0111 31.2217C48.5358 30.1761 49.2897 27.9341 49.5126 26.7563C49.6196 26.1911 49.886 25.5216 50.2651 24.8651C50.9355 23.7042 51.6993 21.6685 51.919 20.457C52.0534 19.7159 52.0267 19.424 51.6561 17.5871C50.9279 13.9778 50.1376 11.5585 48.9151 9.19603C48.0728 7.56834 47.1979 6.58915 45.6652 5.5588C42.7416 3.59329 39.192 2.69379 35.7725 3.05184C34.1956 3.21695 32.3963 3.676 31.2106 4.21566C30.2415 4.65679 29.1765 4.65479 27.8862 4.20941C23.2354 2.60419 18.1188 3.33203 14.119 6.16781C12.9662 6.98515 12.2179 7.88879 11.2911 9.58282C10.0627 11.8279 9.06332 14.7549 8.37374 18.1268C8.03953 19.7611 8.0241 19.9727 8.17849 20.8048C8.54679 22.7898 9.55547 25.0735 10.7531 26.6337C10.9585 26.9013 11.3669 27.8568 11.6684 28.775C12.4109 31.0362 13.5641 33.1592 15.0226 34.9499L15.5013 35.5376L15.6619 34.6806C15.7501 34.2093 15.9259 33.5207 16.0525 33.1505V33.1506ZM18.0682 26.0291C16.5247 25.5397 15.3996 24.57 14.7263 23.1487C14.3396 22.3324 14.299 22.1252 14.299 20.9678C14.299 19.8177 14.3408 19.601 14.7145 18.814C15.263 17.659 16.166 16.75 17.2976 16.214C18.1175 15.8256 18.3234 15.7851 19.4817 15.7851C20.6391 15.7851 20.8462 15.8257 21.6626 16.2125C22.8102 16.7561 23.6934 17.6394 24.2371 18.787C24.6238 19.6033 24.6644 19.8105 24.6644 20.9678C24.6644 22.0746 24.6157 22.3506 24.3026 23.0188C23.8191 24.0504 23.3522 24.6398 22.5552 25.2249C21.3476 26.1113 19.4182 26.4571 18.0682 26.0291ZM17.856 23.5809C18.1658 23.3202 18.2702 23.1194 18.2702 22.7842C18.2702 22.1508 18.1574 21.9284 17.7221 21.7032C16.8317 21.2428 15.9817 21.7228 15.9817 22.686C15.9817 23.7908 17.0183 24.2858 17.856 23.5809ZM22.3224 21.2007C23.6109 20.3399 23.4972 18.3386 22.1227 17.6864C20.7564 17.038 19.2118 17.9867 19.213 19.4733C19.2143 21.0859 21.0051 22.0808 22.3224 21.2007ZM39.5779 25.4918C38.1778 25.0352 36.9602 23.953 36.3317 22.6068C35.8265 21.5247 35.7562 19.7558 36.174 18.6414C36.7547 17.0927 38.0065 15.914 39.5863 15.4284C42.5723 14.5107 45.6596 16.4271 46.2742 19.5796C46.7065 21.7973 45.3819 24.2434 43.208 25.242C42.2729 25.6715 40.5026 25.7934 39.5779 25.4918ZM39.5498 22.9974C39.8183 22.7289 39.9433 22.4691 39.9433 22.1794C39.9433 21.8896 39.8183 21.6299 39.5498 21.3613C39.2812 21.0928 39.0215 20.9678 38.7317 20.9678C38.1526 20.9678 37.5202 21.6003 37.5202 22.1794C37.5202 22.4691 37.6451 22.7289 37.9137 22.9974C38.1822 23.266 38.442 23.3909 38.7317 23.3909C39.0215 23.3909 39.2812 23.266 39.5498 22.9974ZM43.7852 20.7543C44.9903 20.1825 45.2006 18.5252 44.1957 17.5202C43.3888 16.7134 42.0886 16.7802 41.3086 17.6685C40.7674 18.2849 40.6541 18.9252 40.9494 19.6985C41.3771 20.8186 42.6506 21.2927 43.7852 20.7543ZM30.0323 19.6824C29.8397 19.3884 29.8055 18.891 29.7937 16.2102C29.7813 13.4267 29.8062 13.0409 30.0185 12.7168C30.3177 12.26 30.8425 12.2304 31.1047 12.6553C31.2527 12.8953 31.2678 13.2319 31.1774 14.2749C31.1142 15.0031 31.1153 16.4773 31.1799 17.573C31.2498 18.7616 31.247 19.6486 31.1729 19.79C30.9795 20.1589 30.303 20.0951 30.0326 19.6824H30.0323ZM31.723 19.7399C31.5209 19.3624 31.6421 17.7376 31.9556 16.6202C32.2339 15.6284 32.8605 14.9101 33.4475 14.9101C33.6703 14.9101 33.925 14.9973 34.0134 15.1039C34.261 15.4023 34.1321 16.0348 33.7934 16.1835C33.3728 16.3681 33.2288 16.7758 33.063 18.2516C32.9825 18.9681 32.8711 19.6452 32.8154 19.7563C32.7598 19.8674 32.5275 19.9769 32.2992 19.9997C31.9823 20.0314 31.8461 19.9701 31.723 19.7399ZM28.3378 19.5207C28.2251 19.3912 28.092 19.0126 28.042 18.6794C27.9073 17.7827 27.4697 16.9795 26.936 16.6497C26.5437 16.4072 26.4737 16.2931 26.508 15.9515C26.6323 14.7142 28.2236 15.4203 28.9478 17.034C29.1416 17.4658 29.3397 18.1555 29.388 18.5667C29.4682 19.2492 29.4484 19.3336 29.1604 19.5353C28.7589 19.8165 28.5925 19.8136 28.3378 19.5207V19.5207Z" fill="#BD4229"/>
</svg>
