<svg width="161" height="182" viewBox="0 0 161 182" fill="none" xmlns="http://www.w3.org/2000/svg">
<path d="M79.829 76.1882C71.5267 76.2925 64.8825 83.1736 65.0872 91.4101C65.1881 99.7509 72.0352 106.424 80.2337 106.319C88.536 106.215 95.1802 99.3339 94.9755 91.0973C94.8746 82.7566 88.0275 76.084 79.829 76.1882ZM80.132 100.272C75.1506 100.376 71.1047 96.3103 71.0026 91.3059C70.9006 86.3014 74.9493 82.2353 79.827 82.131C84.8084 82.0268 88.8543 86.0929 88.9563 91.0973C89.0584 96.1018 85.0096 100.168 80.132 100.272Z" fill="#33B0E5"/>
<path d="M132.128 90.5762C136.592 86.7186 140.848 82.5482 144.794 78.1693C157.459 64.0942 161.718 52.6256 157.258 45.0147C150.828 34.1717 129.76 36.4654 105.473 45.536C100.5 20.0966 91.3746 0.704279 78.8173 0.912799C66.2601 1.12132 57.6398 20.6179 53.376 46.2658C28.8872 37.925 7.71704 36.1526 1.5903 47.2041C-2.66728 54.9193 1.89507 66.1794 14.9664 79.9417C19.0122 84.2163 23.3695 88.2825 27.9344 92.0358C23.4706 95.8934 19.2143 100.064 15.2692 104.443C2.60337 118.518 -1.65551 129.986 2.80432 137.597C5.91586 142.81 12.2456 145 20.7554 144.895C32.3788 144.166 43.7953 141.559 54.5898 137.18C59.5623 162.62 68.6881 182.012 81.2453 181.803C93.8026 181.595 102.423 162.098 106.687 136.45C117.582 140.517 129.101 142.81 140.724 143.227C149.233 143.123 155.565 140.725 158.472 135.512C162.73 127.797 158.168 116.537 145.096 102.775C140.947 98.2914 136.693 94.3295 132.128 90.5762ZM152.068 48.1425C154.973 52.9384 150.507 62.7388 140.332 74.1031C136.284 78.5863 131.923 82.7567 127.356 86.7186C121.753 82.3397 115.632 77.9607 109.199 73.7904C108.683 66.1794 107.751 58.6727 106.612 51.583C130.588 42.4082 148.231 41.4698 152.068 48.1425ZM92.27 111.949C88.2219 114.347 84.2775 116.641 80.3332 118.726C76.3903 116.745 72.3437 114.66 68.2971 112.366C64.2506 110.073 60.3078 107.779 56.5726 105.381C56.2628 101.002 56.1606 96.4147 56.0584 91.723C55.9563 87.0313 56.0617 82.4439 56.167 78.065C59.9038 75.5628 63.7445 73.0605 67.6889 70.7668C71.737 68.3688 75.6814 66.0751 79.6257 63.9899C83.5686 65.9709 87.6152 68.0561 91.6618 70.3498C95.7083 72.6435 99.6511 74.9372 103.386 77.3352C103.696 81.7141 103.798 86.3015 103.9 90.9932C104.003 95.6849 103.897 100.272 103.792 104.651C100.055 107.049 96.2144 109.551 92.27 111.949ZM103.374 112.054C103.061 117.684 102.436 123.105 101.812 128.214C97.0388 126.442 92.0582 124.356 86.9739 121.958C89.7764 120.394 92.579 118.831 95.2778 117.162C97.9766 115.494 100.779 113.826 103.374 112.054ZM73.794 122.063C68.708 124.565 63.8296 126.859 59.159 128.735C58.3305 123.731 57.7097 118.309 57.1927 112.679C59.8904 114.347 62.6919 115.911 65.4933 117.475C68.0873 119.039 70.8887 120.603 73.794 122.063ZM50.3473 101.211C45.7822 98.0829 41.4246 94.9551 37.2746 91.8273C41.323 88.5952 45.5791 85.2589 50.0426 82.1311C49.9377 85.3632 49.9366 88.491 50.0393 91.723C50.0382 94.8508 50.1409 97.9786 50.3473 101.211ZM56.481 70.3498C56.7942 64.7198 57.4188 59.2983 58.0432 54.1895C62.8164 55.9619 67.797 58.1514 72.8813 60.4451C70.0788 62.009 67.2762 63.5729 64.5774 65.2411C61.8786 67.0135 59.1798 68.6816 56.481 70.3498ZM86.165 60.4451C91.251 57.9429 96.1293 55.6492 100.8 53.7725C101.628 58.777 102.249 64.1985 102.766 69.8285C100.069 68.1603 97.2671 66.5964 94.4657 64.9283C91.8718 63.3644 89.0702 61.9047 86.165 60.4451ZM109.612 81.2971C114.177 84.3206 118.534 87.4484 122.684 90.6804C118.636 93.9125 114.38 97.2488 109.916 100.377C110.021 97.1445 110.022 94.0168 109.92 90.7847C109.921 87.6569 109.818 84.4248 109.612 81.2971ZM78.919 6.8556C86.5987 6.75134 94.9993 22.286 99.8681 47.6212C93.2254 50.3319 86.3749 53.4597 79.6281 57.0045C72.7799 53.6682 65.8278 50.7489 59.0831 48.1425C63.243 22.8073 71.2394 6.95986 78.919 6.8556ZM19.2227 75.7713C8.64118 64.6155 4.07827 55.0236 6.7782 50.1234C8.43966 47.2041 12.7989 45.6402 19.337 45.536C30.6486 45.953 41.8559 48.2467 52.4399 52.3128C51.3996 59.5068 50.7743 67.0135 50.3566 74.6244C43.9208 79.0033 38.0039 83.4865 32.5021 88.0739C27.8334 84.1121 23.3723 80.0459 19.2227 75.7713ZM7.89058 134.365C4.98649 129.465 9.45231 119.769 19.6265 108.405C23.6754 103.921 28.0355 99.751 32.6032 95.7892C38.2057 100.168 44.3271 104.547 50.7599 108.717C51.3799 116.328 52.2075 123.835 53.3466 130.925C29.3707 139.995 11.7281 140.934 7.89058 134.365ZM81.04 175.548C73.4641 175.652 64.9597 160.117 60.0909 134.782C66.7336 132.072 73.5841 128.944 80.3309 125.399C87.1791 128.735 94.1312 131.655 100.876 134.261C96.7159 159.7 88.7196 175.444 81.04 175.548ZM153.181 132.384C149.442 139.057 131.8 138.64 107.519 130.195C108.559 123.001 109.185 115.494 109.602 107.883C116.038 103.504 121.955 99.0212 127.457 94.4338C132.126 98.2914 136.587 102.358 140.736 106.632C151.318 117.892 155.881 127.484 153.181 132.384Z" fill="#33B0E5"/>
</svg>
