<svg width="167" height="187" viewBox="0 0 167 187" fill="none" xmlns="http://www.w3.org/2000/svg">
<path d="M82.3582 78.0454C74.0647 78.4408 67.6658 85.5508 68.1593 93.7751C68.5527 102.107 75.6296 108.536 83.8194 108.144C92.113 107.749 98.5118 100.639 98.0184 92.4142C97.625 84.0821 90.5481 77.6537 82.3582 78.0454ZM83.5057 102.104C78.531 102.383 74.345 98.4613 74.0674 93.4635C73.7899 88.4656 77.6936 84.26 82.5646 83.9847C87.5393 83.7058 91.7254 87.6275 92.0029 92.6254C92.2804 97.6232 88.3767 101.829 83.5057 102.104Z" fill="#33B0E5"/>
<path d="M135.13 90.5902C139.456 86.5784 143.564 82.2612 147.353 77.7466C159.517 63.2359 163.371 51.6249 158.647 44.175C151.84 33.5642 130.866 36.5954 106.911 46.5123C101.05 21.2628 91.2493 2.20239 78.707 2.85121C66.1647 3.50002 58.2334 23.2871 54.8718 49.0689C30.1054 41.5921 8.88599 40.5633 3.15059 51.8229C-0.833798 59.6828 4.1207 70.776 17.6667 84.0714C21.86 88.2016 26.3573 92.1124 31.0511 95.7034C26.7253 99.7152 22.6178 104.032 18.8287 108.547C6.66425 123.058 2.8102 134.669 7.53425 142.119C10.8267 147.219 17.2294 149.185 25.7304 148.783C37.3211 147.646 48.6393 144.64 59.2736 139.885C65.1353 165.135 74.9357 184.195 87.4779 183.547C100.02 182.898 107.952 163.111 111.313 137.329C122.344 141.01 133.936 142.899 145.567 142.908C154.068 142.505 160.311 139.887 163.034 134.575C167.019 126.715 162.064 115.622 148.518 102.326C144.214 97.9914 139.824 94.1811 135.13 90.5902ZM153.57 47.483C156.641 52.1741 152.521 62.1252 142.752 73.8394C138.862 78.4619 134.651 82.7827 130.225 86.9023C124.473 82.7226 118.201 78.561 111.626 74.6188C110.843 67.0306 109.649 59.5611 108.262 52.5157C131.902 42.5055 149.501 40.949 153.57 47.483ZM96.0459 113.348C92.0843 115.887 88.2228 118.318 84.354 120.54C80.3441 118.698 76.2268 116.756 72.1022 114.606C67.9777 112.456 63.9569 110.302 60.1398 108.036C59.6766 103.671 59.4136 99.0896 59.147 94.4044C58.8803 89.7191 58.8247 85.1308 58.7764 80.7508C62.4232 78.1191 66.1738 75.4837 70.0353 73.053C73.9969 70.5145 77.8584 68.0838 81.7272 65.8616C85.7371 67.703 89.8545 69.645 93.979 71.7954C98.1035 73.9458 102.124 76.0998 105.941 78.3653C106.405 82.7307 106.668 87.3118 106.934 91.997C107.201 96.6823 107.256 101.271 107.305 105.651C103.654 108.178 99.9038 110.814 96.0459 113.348ZM107.147 113.063C107.031 118.701 106.597 124.141 106.153 129.268C101.32 127.664 96.2693 125.755 91.104 123.537C93.85 121.876 96.596 120.214 99.2347 118.453C101.873 116.691 104.616 114.925 107.147 113.063ZM77.9358 124.103C72.9407 126.783 68.1457 129.246 63.5437 131.285C62.5402 126.313 61.7297 120.917 61.0156 115.308C63.7701 116.881 66.6247 118.345 69.4793 119.81C72.1265 121.282 74.9811 122.747 77.9358 124.103ZM53.7721 104.087C49.1 101.121 44.6354 98.1477 40.3782 95.1674C44.3108 91.7953 48.4473 88.3117 52.7984 85.0293C52.8069 88.2631 52.9155 91.389 53.1315 94.6155C53.2401 97.7414 53.4525 100.864 53.7721 104.087ZM58.8196 73.0293C58.9352 67.3917 59.3693 61.9516 59.8141 56.8241C64.6466 58.428 69.7009 60.4415 74.8626 62.5555C72.1166 64.2167 69.3706 65.8779 66.732 67.6397C64.0969 69.5057 61.4583 71.2675 58.8196 73.0293ZM88.1381 62.0896C93.1333 59.4105 97.9282 56.9471 102.53 54.9077C103.534 59.8801 104.344 65.2765 105.058 70.885C102.304 69.3124 99.4493 67.8478 96.591 66.2789C93.9438 64.8069 91.0928 63.4464 88.1381 62.0896ZM112.302 82.1065C116.97 84.968 121.435 87.9411 125.696 91.0256C121.763 94.3977 117.627 97.8812 113.276 101.164C113.267 97.9299 113.158 94.804 112.942 91.5775C112.834 88.4516 112.618 85.2251 112.302 82.1065ZM79.0171 8.78682C86.6884 8.41328 95.6288 23.6439 101.383 48.7928C94.8396 51.7349 88.103 55.101 81.4846 58.8804C74.5236 55.7863 67.4733 53.1126 60.6413 50.7443C63.9101 25.2787 71.3458 9.16037 79.0171 8.78682ZM21.7742 79.7543C10.8079 68.9764 5.9113 59.5504 8.43772 54.5585C9.99578 51.5827 14.2975 49.8669 20.8279 49.5334C32.1473 49.5534 43.4282 51.4527 54.1483 55.1451C53.361 62.3711 52.9994 69.8952 52.8489 77.5162C46.5706 82.1181 40.8145 86.8061 35.4769 91.5837C30.6722 87.788 26.0712 83.8808 21.7742 79.7543ZM12.5041 138.71C9.42987 133.915 13.5529 124.068 23.3223 112.354C27.2115 107.731 31.4227 103.41 35.8486 99.2907C41.6013 103.47 47.8725 107.632 54.4477 111.574C55.3343 119.159 56.4247 126.632 57.8117 133.677C34.1686 143.583 16.5696 145.14 12.5041 138.71ZM87.0533 177.302C79.4857 177.672 70.4416 162.445 64.6872 137.296C71.2308 134.354 77.9674 130.988 84.5858 127.208C91.5468 130.303 98.5971 132.976 105.429 135.345C102.164 160.914 94.7246 176.928 87.0533 177.302ZM157.636 131.635C154.134 138.434 136.488 138.636 111.926 131.048C112.713 123.822 113.075 116.298 113.225 108.677C119.503 104.075 125.259 99.3869 130.597 94.6093C135.398 98.3008 139.999 102.208 144.296 106.335C155.266 117.217 160.163 126.643 157.636 131.635Z" fill="#33B0E5"/>
</svg>
