<svg width="40" height="39" viewBox="0 0 40 39" fill="none" xmlns="http://www.w3.org/2000/svg">
<path d="M28.248 38.8661C26.6393 38.6996 25.4869 38.4427 24.1111 37.9436C23.4375 37.6993 22.6931 37.3753 22.6786 37.3202C22.6731 37.2993 22.9715 37.0524 23.3418 36.7715C23.7121 36.4906 24.2178 36.0878 24.4656 35.8765L24.9161 35.4923L25.2268 35.6202C26.0698 35.9675 27.2573 36.2909 28.2714 36.4495C28.9427 36.5544 30.7656 36.5683 31.309 36.4726C32.2687 36.3036 33.2243 35.9783 33.9028 35.5896C34.5325 35.2289 34.8609 34.9731 35.447 34.3869C36.5806 33.2532 37.3107 31.8838 37.5497 30.4432C37.6493 29.843 37.625 28.6052 37.5023 28.029C37.1393 26.3231 36.224 24.4554 35.0199 22.9634C32.63 20.0019 28.5403 17.6934 24.299 16.9117C23.0397 16.6796 21.0916 16.5414 20.2255 16.6229L19.8674 16.6565L19.6904 16.9592C19.086 17.9927 17.8339 18.5563 16.6814 18.3138C15.3859 18.0411 14.4661 16.9728 14.4033 15.6679C14.3624 14.8177 14.6327 14.1166 15.2342 13.5125C15.8303 12.9137 16.5391 12.6434 17.3824 12.6932C18.3704 12.7515 19.089 13.1807 19.6793 14.0649C19.7464 14.1655 19.7757 14.1683 20.9603 14.191C22.5787 14.222 23.7189 14.3344 25.0935 14.5987C28.8196 15.3151 32.0559 16.8697 34.7673 19.2457C35.7329 20.0919 36.8734 21.3352 37.5727 22.3041C39.7998 25.3896 40.5643 29.2258 39.5741 32.3467C38.7777 34.8568 36.3656 37.1188 33.341 38.1921C32.7147 38.4143 31.7752 38.6447 31.0459 38.755C30.422 38.8494 28.7339 38.9164 28.248 38.8661V38.8661ZM9.67131 38.7988C6.69142 38.6482 3.857 37.4045 2.20253 35.5216C1.34808 34.5492 0.679739 33.2411 0.32747 31.8519C-0.054815 30.3442 -0.10497 28.5782 0.190566 27.0313C0.758265 24.0599 2.56056 21.31 5.37751 19.1173C5.63536 18.9165 5.86218 18.7523 5.88155 18.7523C5.90093 18.7523 5.9768 19.0099 6.05015 19.3248C6.1235 19.6397 6.27362 20.2128 6.38375 20.5983L6.58397 21.2993L6.45691 21.41C6.38702 21.4708 6.13242 21.6917 5.89112 21.9007C5.38114 22.3425 4.66011 23.125 4.19698 23.7394C2.74249 25.6688 2.0629 27.7169 2.24007 29.6369C2.399 31.3592 3.19834 33.0831 4.38794 34.269C5.46625 35.3441 6.85494 35.9894 8.67931 36.2634C9.52099 36.3898 11.4328 36.3777 12.3118 36.2404C14.297 35.9304 16.0066 35.2974 18.0895 34.101C19.8085 33.1136 21.1212 32.1246 22.3612 30.8825C23.5227 29.719 24.4358 28.4997 25.167 27.1358L25.3952 26.71L25.201 26.4582C24.7506 25.8743 24.5567 25.2665 24.5913 24.5473C24.6487 23.3538 25.4166 22.3436 26.548 21.973C27.0018 21.8244 27.8262 21.8124 28.2246 21.9487C29.2842 22.3111 29.9939 23.0834 30.2116 24.1111C30.5301 25.6143 29.5121 27.1796 28.0333 27.4604L27.7465 27.5149L27.5356 27.9355C26.9048 29.1932 25.9576 30.6198 24.9602 31.8144C24.4484 32.4273 23.0967 33.762 22.4817 34.2617C20.142 36.1625 17.5195 37.4756 14.5484 38.234C12.6556 38.7171 11.2575 38.879 9.67131 38.7988V38.7988ZM12.9795 31.0175C12.4912 30.8991 12.0659 30.6464 11.657 30.2315C11.0704 29.6363 10.8397 29.0725 10.8397 28.2344C10.8397 27.7643 10.9355 27.3407 11.1272 26.9639L11.2174 26.7868L10.9879 26.3797C9.57317 23.87 8.6145 21.1002 8.22662 18.4018C7.93355 16.363 7.98401 14.0321 8.36424 12.0452C8.57492 10.9442 8.97891 9.55978 9.40042 8.49426C10.3383 6.12343 12.0201 4.00949 14.0309 2.67411C17.08 0.649136 20.5733 0.354006 23.6164 1.86427C26.93 3.50874 29.2861 7.08402 30.0183 11.5787C30.1459 12.362 30.2608 13.3669 30.2266 13.4011C30.2143 13.4134 29.9444 13.3365 29.6268 13.2302C29.3092 13.124 28.7443 12.9503 28.3714 12.8442L27.6935 12.6513L27.6096 12.0683C27.3507 10.2699 26.6068 8.31838 25.588 6.76511C24.0151 4.3668 21.8205 3.15717 19.4468 3.38006C17.5851 3.55486 15.7093 4.29321 14.3791 5.37476C13.2643 6.2812 12.0166 8.2601 11.3608 10.1617C10.7999 11.7886 10.5702 13.1762 10.5268 15.2006C10.4511 18.7319 11.2165 21.8389 12.9274 24.9445L13.1848 25.4119L13.683 25.4153C14.1102 25.4184 14.238 25.4387 14.5804 25.5583C14.8 25.6351 15.0988 25.7769 15.2442 25.8735C15.7833 26.2313 16.2365 26.8599 16.4277 27.5149C16.5271 27.8554 16.5383 28.5309 16.4507 28.8936C16.1967 29.9441 15.3698 30.7754 14.3365 31.019C13.9727 31.1047 13.3364 31.1041 12.9795 31.0175L12.9795 31.0175Z" fill="#916FCE"/>
</svg>
