<svg width="100" height="28" viewBox="0 0 100 28" fill="none" xmlns="http://www.w3.org/2000/svg">
<path d="M3.6261 26.7751C3.44958 26.55 3.4546 26.545 3.67968 26.7215C3.81626 26.8286 3.92802 26.9404 3.92802 26.9699C3.92802 27.0866 3.81148 27.0115 3.6261 26.7751L3.6261 26.7751ZM96.0266 26.979C96.0266 26.9546 96.2341 26.747 96.4878 26.5178L96.949 26.101L96.5322 26.5622C96.1436 26.9921 96.0266 27.0886 96.0266 26.979ZM1.57985 24.5755L1.01889 23.9724L1.622 24.5333C2.18289 25.055 2.29032 25.1786 2.18296 25.1786C2.15977 25.1786 1.88838 24.9072 1.57985 24.5755ZM4.20698 24.0788L3.43134 23.2628L4.21183 24.0013C4.96591 24.7147 5.02355 24.7414 5.91473 24.7899L6.83714 24.8401L5.90988 24.8674L4.98263 24.8948L4.20698 24.0788ZM94.0398 24.7899C94.931 24.7414 94.9887 24.7147 95.7427 24.0013L96.5232 23.2628L95.7476 24.0788L94.9719 24.8948L94.0447 24.8674L93.1174 24.8401L94.0398 24.7899ZM98.439 24.3981C98.6223 24.203 98.8042 24.0433 98.8432 24.0433C98.8823 24.0433 98.7642 24.203 98.5809 24.3981C98.3976 24.5932 98.2157 24.7529 98.1767 24.7529C98.1376 24.7529 98.2557 24.5932 98.439 24.3981ZM15.897 23.2628C15.8975 22.6384 15.9224 22.4007 15.9524 22.7344C15.9824 23.0682 15.982 23.5791 15.9514 23.8697C15.9209 24.1603 15.8964 23.8873 15.8969 23.2628H15.897ZM21.8571 23.2628C21.8577 22.6384 21.8826 22.4007 21.9126 22.7344C21.9425 23.0682 21.9421 23.5791 21.9116 23.8697C21.8811 24.1603 21.8566 23.8873 21.8571 23.2628H21.8571ZM35.1965 23.2628C35.1971 22.6384 35.222 22.4007 35.2519 22.7344C35.2819 23.0682 35.2815 23.5791 35.251 23.8697C35.2205 24.1603 35.1959 23.8873 35.1965 23.2628H35.1965ZM54.7253 23.6555C54.3773 23.2861 54.2682 23.1375 54.4829 23.3254C55.185 23.9401 54.892 23.4137 54.0926 22.6243C53.6634 22.2003 53.3121 21.9111 53.3121 21.9816C53.3121 22.052 53.1206 21.9262 52.8864 21.7018L52.4607 21.294L52.4914 19.5821L52.5221 17.8703L52.5666 19.5879C52.6097 21.254 52.6226 21.3157 52.9971 21.6456L53.3831 21.9857L53.0639 21.6217C52.7735 21.2908 52.7446 21.1142 52.7446 19.6705V18.0832H53.596H54.4475V19.2307V20.3783L55.3214 21.2884L56.1954 22.1985H58.7675H61.3397L62.0968 21.4319C62.5149 21.0086 62.8108 20.5955 62.7577 20.5095C62.7047 20.4238 62.7337 20.3537 62.8221 20.3537C62.9366 20.3537 62.9697 19.7623 62.937 18.3011L62.891 16.2484L62.1868 15.5338L61.4826 14.8193H58.635H55.7874L54.8771 13.9008C54.3764 13.3956 53.9352 13.0137 53.8967 13.0522C53.8582 13.0907 53.5833 12.8844 53.2857 12.5938L52.7446 12.0654V9.35582V6.6462L53.2857 6.11784C53.5833 5.82723 53.8583 5.62096 53.8967 5.65943C53.9352 5.69794 54.3764 5.31606 54.8771 4.81088L55.7874 3.89234H58.8607C61.4092 3.89234 61.9638 3.92841 62.1092 4.10366C62.2057 4.21986 62.3304 4.28667 62.3863 4.25211C62.4422 4.21758 62.8341 4.55261 63.2571 4.9967C63.6802 5.44078 63.8188 5.61746 63.5651 5.38932C62.7976 4.69901 63.0486 5.19552 63.8844 6.02097L64.6649 6.79178V8.32214V9.8525H63.7425H62.8201V8.67412C62.8201 7.52617 62.8079 7.48395 62.3496 7.03967C62.0908 6.78884 61.8466 6.616 61.8071 6.65558C61.7675 6.69515 61.5482 6.52068 61.3197 6.26783L60.9043 5.80812L61.401 6.23384L61.8977 6.65956L61.4809 6.19836L61.0641 5.73716H58.7757H56.4873L56.106 6.13517C55.5331 6.73315 55.6475 6.85695 56.2568 6.29844C56.5495 6.03018 56.4399 6.17729 56.0133 6.62537C55.2191 7.45961 54.8335 7.75093 55.4516 7.0498L55.7956 6.65956L55.4054 7.00359L55.0151 7.34762V9.38663V11.4256L55.6731 12.1291C56.035 12.516 56.4 12.8326 56.4843 12.8326C56.5685 12.8326 56.3203 12.495 55.9327 12.0825C55.2919 11.4004 55.3032 11.4068 56.0576 12.1535L56.8872 12.9745H59.6492C61.4543 12.9745 62.3807 12.9254 62.3234 12.8326C62.1326 12.5239 62.369 12.729 63.1793 13.5754C63.6451 14.062 63.8188 14.2735 63.5651 14.0455C62.7333 13.2978 63.0828 13.8842 64.0263 14.8193L64.9487 15.7335V18.4415V21.1495L64.452 21.6309C63.8666 22.1983 63.7784 22.5445 64.3456 22.0489C64.5602 21.8614 64.3897 22.0708 63.9667 22.5143C63.5436 22.9578 63.1543 23.294 63.1015 23.2614C63.0487 23.2287 62.8241 23.3913 62.6024 23.6227L62.1994 24.0434H58.7408C56.4712 24.0434 55.3123 24.0922 55.3699 24.1853C55.5537 24.4826 55.3357 24.3034 54.7254 23.6555L54.7253 23.6555ZM55.2988 23.9898C55.2988 23.9603 55.1871 23.8485 55.0505 23.7414C54.8254 23.5649 54.8204 23.5699 54.997 23.795C55.1823 24.0314 55.2989 24.1065 55.2989 23.9897L55.2988 23.9898ZM63.6094 22.7307L64.0262 22.2695L63.565 22.6863C63.1351 23.0748 63.0386 23.1919 63.1482 23.1919C63.1727 23.1919 63.3802 22.9843 63.6094 22.7307ZM63.1038 13.6378C63.1038 13.6124 62.9282 13.4368 62.7136 13.2476L62.3233 12.9035L62.6673 13.2938C62.9889 13.6585 63.1038 13.7491 63.1038 13.6378ZM53.4819 12.5065L53.0283 12.0386V9.38948V6.74039L53.4824 6.20329L53.9364 5.66621L53.4114 6.15525L52.8864 6.64428V9.34142V12.0386L53.34 12.5065C53.5894 12.7639 53.8255 12.9745 53.8645 12.9745C53.9035 12.9745 53.7313 12.7639 53.4819 12.5065ZM63.1038 4.9814C63.1038 4.95596 62.9282 4.78037 62.7136 4.59115L62.3233 4.24712L62.6673 4.63736C62.9889 5.0021 63.1038 5.0927 63.1038 4.9814ZM16.1321 23.2628V22.4823L16.7352 22.4801C17.067 22.4793 17.482 22.4396 17.6576 22.3925L17.9769 22.307V13.9513V5.59525H17.0545H16.1321V4.7438V3.89235H21.4227H26.7132L27.5491 4.73711C28.0089 5.20172 28.4274 5.55571 28.4791 5.52376C28.5308 5.49182 28.8404 5.73803 29.1671 6.07094L29.7611 6.67622L29.7198 9.71892L29.6784 12.7616L29.6459 9.70392L29.6134 6.6462L29.0202 6.08525L28.427 5.52429L28.9493 6.15295L29.4715 6.7816V9.71139V12.6412L29.1167 12.9745C28.633 13.429 28.6648 13.6765 29.1522 13.2506C29.3669 13.063 29.1963 13.2724 28.7733 13.716C28.3502 14.1595 27.9585 14.4942 27.9028 14.4597C27.8 14.3962 26.6333 15.5877 26.6333 15.7563C26.6333 16.022 27.3971 17.4988 27.5013 17.4344C27.5685 17.3929 27.5814 17.4685 27.53 17.6024C27.4616 17.7807 27.4869 17.8148 27.6245 17.7298C27.7551 17.6491 27.7788 17.6681 27.7022 17.792C27.572 18.0026 28.1813 19.3852 28.3565 19.2769C28.4216 19.2366 28.4329 19.3132 28.3815 19.4472C28.3185 19.6113 28.3416 19.6576 28.4524 19.5891C28.5632 19.5207 28.5863 19.5669 28.5234 19.731C28.455 19.9093 28.4803 19.9434 28.6179 19.8584C28.7484 19.7777 28.7721 19.7967 28.6955 19.9206C28.5654 20.1312 29.1746 21.5138 29.3498 21.4055C29.415 21.3652 29.4262 21.4418 29.3748 21.5758C29.3151 21.7313 29.3366 21.7852 29.4342 21.7249C29.5312 21.6649 29.5601 21.7333 29.5133 21.9119C29.4293 22.2332 29.9109 22.4823 30.616 22.4823C31.0262 22.4823 31.0325 22.4941 31.0325 23.2628V24.0433H28.691H26.3495V23.2628C26.3495 22.5201 26.3671 22.4823 26.7127 22.4823C26.9538 22.4823 27.0413 22.4265 26.9732 22.3163C26.9065 22.2083 26.945 22.1788 27.0831 22.2318C27.2168 22.2831 27.3008 22.2264 27.3097 22.0785C27.3302 21.7366 26.7525 20.4929 26.6131 20.579C26.548 20.6193 26.5367 20.5427 26.5881 20.4087C26.6511 20.2446 26.628 20.1983 26.5172 20.2668C26.4064 20.3353 26.3832 20.289 26.4462 20.1249C26.5146 19.9466 26.4893 19.9125 26.3517 19.9975C26.2212 20.0782 26.1975 20.0592 26.2741 19.9353C26.4042 19.7247 25.795 18.3421 25.6198 18.4504C25.5546 18.4907 25.5434 18.4141 25.5948 18.2801C25.6577 18.116 25.6346 18.0697 25.5238 18.1382C25.413 18.2067 25.3899 18.1604 25.4529 17.9963C25.5213 17.818 25.496 17.7839 25.3584 17.8689C25.2278 17.9496 25.2041 17.9306 25.2807 17.8067C25.4216 17.5788 24.7943 16.2181 24.6028 16.3364C24.5236 16.3854 24.5048 16.353 24.5603 16.2633C24.615 16.1748 24.5907 15.9733 24.5063 15.8156C24.3628 15.5475 24.2148 15.5289 22.2292 15.5289C20.8291 15.5289 20.1056 15.5801 20.1056 15.6792C20.1056 15.7618 20.1854 15.7844 20.2829 15.7293C20.4249 15.6491 20.4249 15.6673 20.2829 15.8202C20.1521 15.9612 20.1056 16.8375 20.1056 19.1593C20.1056 22.304 20.1058 22.3074 20.4249 22.3929C20.6005 22.44 20.9517 22.4794 21.2054 22.4804L21.6666 22.4827V23.2632V24.0437H18.8993H16.1321L16.1321 23.2628ZM28.4161 13.9324L28.8329 13.4712L28.3717 13.888C27.9418 14.2765 27.8453 14.3936 27.9549 14.3936C27.9794 14.3936 28.1869 14.186 28.4161 13.9324ZM26.736 12.8012L27.6267 11.9184V9.70339V7.48843L26.8343 6.61279L26.0419 5.73716H23.0737C21.0793 5.73716 20.1056 5.78644 20.1056 5.88744C20.1056 5.97009 20.1854 5.99265 20.283 5.93756C20.4249 5.85744 20.4249 5.8756 20.283 6.02851C20.1506 6.17108 20.1056 7.14368 20.1056 9.85721C20.1056 11.8579 20.1481 13.5374 20.2002 13.5894C20.2522 13.6414 21.5436 13.684 23.07 13.684H25.8452L26.736 12.8012ZM23.0137 13.4358L25.8509 13.394L26.7033 12.5811L27.5558 11.7682L26.7087 12.6552L25.8617 13.5421L23.0191 13.5098L20.1765 13.4775L23.0137 13.4358ZM26.699 6.83694L25.9948 6.09192L26.7398 6.79614C27.4321 7.4505 27.5499 7.58196 27.444 7.58196C27.4215 7.58196 27.0863 7.2467 26.699 6.83694ZM35.4317 23.2628V22.4823L36.0348 22.4801C36.3665 22.4793 36.7816 22.4396 36.9572 22.3925L37.2765 22.307V13.9513V5.59525H36.3541H35.4317V4.7438V3.89235H41.7466H48.0615V6.3048V8.71724H47.2149H46.3682L46.328 7.19173L46.2877 5.66622L42.8406 5.62817L39.3934 5.59011L39.4121 9.35322L39.4309 13.1163H42.611H45.7911V13.9678V14.8192H42.5981H39.4052V18.5633V22.3073L39.7245 22.3928C39.9001 22.4399 41.3458 22.4793 42.9373 22.4803C45.5222 22.4819 45.8524 22.4558 46.0343 22.2339C46.1462 22.0974 46.1974 22.0654 46.148 22.163C46.0986 22.2605 46.1258 22.3403 46.2084 22.3403C46.3051 22.3403 46.3587 21.7834 46.3587 20.7793V19.2184H47.2102H48.0616V21.6308V24.0432H41.7467H35.4318L35.4317 23.2628ZM71.3345 23.2628V22.4823H72.5136C73.2335 22.4823 73.7868 22.4133 73.9342 22.3049C74.1576 22.1409 74.173 21.5087 74.1387 13.8969L74.1017 5.66621H71.8312H69.5607L69.5204 7.19172L69.4801 8.71723H68.7044H67.9287V6.30479V3.89234H75.1661H82.4034V6.30479V8.71723H81.552H80.7005V7.15264V5.58804L78.4654 5.62715L76.2304 5.66628L76.1938 13.9865L76.1572 22.3068L76.4776 22.3927C76.6538 22.4399 77.261 22.4794 77.8269 22.4805L78.8557 22.4828V23.2633V24.0438H75.0951H71.3346L71.3345 23.2628ZM1.11225 23.6176C1.11225 23.4225 1.14446 23.3427 1.18383 23.4402C1.2232 23.5378 1.2232 23.6974 1.18383 23.795C1.14446 23.8926 1.11225 23.8127 1.11225 23.6176ZM98.734 23.3929C98.7409 23.2276 98.7744 23.194 98.8197 23.3072C98.8608 23.4096 98.8557 23.532 98.8086 23.5792C98.7615 23.6263 98.7279 23.5425 98.734 23.3929H98.734ZM3.5247 22.6243C3.5247 22.4291 3.55691 22.3493 3.59627 22.4469C3.63564 22.5444 3.63564 22.7041 3.59627 22.8016C3.5569 22.8992 3.5247 22.8194 3.5247 22.6243ZM96.3216 22.3996C96.3285 22.2342 96.362 22.2006 96.4073 22.3138C96.4483 22.4163 96.4433 22.5387 96.3961 22.5858C96.349 22.633 96.3155 22.5491 96.3216 22.3996H96.3216ZM73.9554 13.9678C73.9554 9.40194 73.9733 7.53407 73.9952 9.81703C74.0172 12.1 74.0172 15.8357 73.9952 18.1187C73.9733 20.4016 73.9554 18.5338 73.9554 13.9678ZM1.24296 21.8319C1.24976 21.6666 1.28339 21.633 1.3287 21.7462C1.36969 21.8486 1.36465 21.971 1.3175 22.0182C1.27034 22.0653 1.2368 21.9815 1.24297 21.8319H1.24296ZM61.8976 21.3471C62.282 20.9568 62.6284 20.6375 62.6674 20.6375C62.7065 20.6375 62.4239 20.9568 62.0395 21.3471C61.6551 21.7373 61.3087 22.0566 61.2697 22.0566C61.2306 22.0566 61.5132 21.7373 61.8976 21.3471ZM46.1383 20.4247L46.146 19.0056L47.2103 18.9948L48.2746 18.984L47.2506 19.0364L46.2267 19.0887L46.1789 20.4662L46.1311 21.8437L46.1387 20.4246L46.1383 20.4247ZM98.6033 21.6309C98.6033 21.4358 98.6356 21.3559 98.6749 21.4535C98.7143 21.5511 98.7143 21.7107 98.6749 21.8083C98.6356 21.9058 98.6033 21.826 98.6033 21.6309ZM55.1087 20.8027L54.5771 20.2583L54.6253 19.0643L54.6735 17.8703L54.7024 19.0706C54.7307 20.2477 54.7414 20.2812 55.2567 20.8089C55.5458 21.1049 55.7503 21.3471 55.7113 21.3471C55.6722 21.3471 55.4011 21.1021 55.1087 20.8027H55.1087ZM3.6666 20.9214C3.6666 20.7262 3.69882 20.6464 3.73818 20.744C3.77755 20.8415 3.77755 21.0012 3.73818 21.0987C3.69881 21.1963 3.6666 21.1165 3.6666 20.9214ZM96.1909 20.6375C96.1909 20.4424 96.2231 20.3626 96.2625 20.4601C96.3018 20.5577 96.3018 20.7174 96.2625 20.8149C96.2231 20.9125 96.1909 20.8327 96.1909 20.6375ZM1.39607 20.0699C1.39607 19.8748 1.42828 19.795 1.46764 19.8925C1.50701 19.9901 1.50701 20.1497 1.46764 20.2473C1.42827 20.3448 1.39607 20.265 1.39607 20.0699ZM98.4614 19.7861C98.4614 19.591 98.4936 19.5111 98.533 19.6087C98.5723 19.7063 98.5723 19.8659 98.533 19.9635C98.4936 20.061 98.4614 19.9812 98.4614 19.7861ZM3.79731 19.1357C3.80411 18.9704 3.83775 18.9367 3.88304 19.0499C3.92403 19.1524 3.919 19.2748 3.87184 19.3219C3.82469 19.3691 3.79115 19.2853 3.79731 19.1357H3.79731ZM96.049 18.9346C96.049 18.7395 96.0812 18.6597 96.1205 18.7572C96.1599 18.8548 96.1599 19.0145 96.1205 19.112C96.0812 19.2096 96.049 19.1297 96.049 18.9346ZM1.53798 18.2251C1.53798 18.03 1.57019 17.9501 1.60955 18.0477C1.64892 18.1453 1.64892 18.3049 1.60955 18.4025C1.57018 18.5 1.53798 18.4202 1.53798 18.2251ZM98.3083 18.0004C98.3152 17.8351 98.3487 17.8015 98.394 17.9147C98.4351 18.0171 98.43 18.1395 98.3828 18.1867C98.3357 18.2338 98.3021 18.15 98.3083 18.0004H98.3083ZM3.93922 17.4328C3.94602 17.2675 3.97966 17.2338 4.02495 17.347C4.06594 17.4495 4.06091 17.5719 4.01375 17.619C3.96659 17.6662 3.93305 17.5823 3.93922 17.4328H3.93922ZM95.9071 17.2317C95.9071 17.0366 95.9393 16.9568 95.9786 17.0543C96.018 17.1519 96.018 17.3116 95.9786 17.4091C95.9393 17.5067 95.9071 17.4268 95.9071 17.2317ZM1.66868 16.4394C1.67548 16.2741 1.70912 16.2405 1.75442 16.3537C1.79541 16.4561 1.79038 16.5785 1.74322 16.6257C1.69607 16.6728 1.66252 16.589 1.66869 16.4394H1.66868ZM26.7753 15.821C26.7753 15.7476 26.8384 15.6485 26.9155 15.6008C26.996 15.551 27.0198 15.6077 26.9713 15.7343C26.877 15.9802 26.7753 16.0252 26.7753 15.821ZM98.7228 15.901C98.7228 15.8715 98.8346 15.7598 98.9712 15.6526C99.1962 15.4761 99.2012 15.4811 99.0247 15.7062C98.8393 15.9426 98.7228 16.0178 98.7228 15.901L98.7228 15.901ZM0.787929 15.5643C0.611413 15.3392 0.616432 15.3342 0.841509 15.5108C0.978096 15.6179 1.08985 15.7296 1.08985 15.7591C1.08985 15.8759 0.973316 15.8007 0.787932 15.5643L0.787929 15.5643ZM42.9466 14.9982L45.9206 14.9556L45.9715 14.0005L46.0225 13.0454L46.0132 14.0388L46.0038 15.0321L42.9882 15.0367L39.9726 15.0413L42.9466 14.9987V14.9982ZM55.2144 14.6419L54.9441 14.3226L55.2634 14.5929C55.439 14.7416 55.5827 14.8853 55.5827 14.9122C55.5827 15.0258 55.4685 14.942 55.2144 14.6419ZM97.2958 14.5031C97.7762 13.9772 97.7775 13.9722 97.5112 13.6517L97.2433 13.3293L97.5897 13.6493L97.936 13.9694L97.3742 14.5008L96.8125 15.0322L97.2958 14.5031ZM0 13.9678C0 13.4605 0.0257575 13.253 0.0572351 13.5066C0.0887128 13.7603 0.0887128 14.1754 0.0572351 14.429C0.0257575 14.6827 0 14.4752 0 13.9678ZM2.36526 14.3207C2.08868 14.0263 2.06323 13.9335 2.21943 13.7886C2.37076 13.6482 2.3873 13.6507 2.30202 13.801C2.23734 13.9149 2.32265 14.1243 2.5188 14.3331C2.69668 14.5225 2.81029 14.6774 2.77127 14.6774C2.73224 14.6774 2.54954 14.5169 2.36526 14.3207V14.3207ZM0.380306 12.779C0.380306 12.7495 0.492058 12.6378 0.628645 12.5307C0.85372 12.3541 0.858739 12.3592 0.682225 12.5842C0.49684 12.8206 0.380306 12.8958 0.380306 12.779V12.779ZM3.36038 12.7882C3.36038 12.7637 3.56792 12.5562 3.82158 12.327L4.28279 11.9102L3.86599 12.3714C3.47747 12.8013 3.36038 12.8978 3.36038 12.7882V12.7882ZM96.084 12.3714L95.8137 12.0521L96.133 12.3224C96.3086 12.4711 96.4523 12.6148 96.4523 12.6417C96.4523 12.7553 96.3381 12.6714 96.084 12.3714ZM99.1304 12.4423C98.9539 12.2173 98.9589 12.2122 99.184 12.3888C99.3206 12.4959 99.4324 12.6076 99.4324 12.6371C99.4324 12.7539 99.3158 12.6788 99.1304 12.4424V12.4423ZM1.54916 11.6633C1.64776 11.453 1.75181 11.3489 1.78038 11.4321C1.80896 11.5152 1.72828 11.6873 1.60111 11.8145C1.38741 12.0282 1.38347 12.0167 1.54916 11.6633ZM95.8958 10.7631C95.9027 10.5978 95.9363 10.5641 95.9816 10.6773C96.0226 10.7798 96.0176 10.9022 95.9704 10.9493C95.9232 10.9965 95.8897 10.9127 95.8958 10.7631H95.8958ZM3.95042 10.562C3.95042 10.3669 3.98263 10.2871 4.02199 10.3847C4.06136 10.4822 4.06136 10.6419 4.02199 10.7394C3.98262 10.837 3.95042 10.7572 3.95042 10.562ZM98.3195 9.9944C98.3195 9.79928 98.3517 9.71946 98.3911 9.81703C98.4304 9.91458 98.4304 10.0742 98.3911 10.1718C98.3517 10.2693 98.3195 10.1895 98.3195 9.9944ZM63.214 10.0322C63.5478 10.0023 64.0586 10.0027 64.3493 10.033C64.6399 10.0635 64.3668 10.088 63.7424 10.0875C63.118 10.0869 62.8802 10.062 63.214 10.032V10.0322ZM1.53798 9.71059C1.53798 9.51546 1.57019 9.43564 1.60955 9.5332C1.64892 9.63076 1.64892 9.79041 1.60955 9.88798C1.57018 9.98553 1.53798 9.9057 1.53798 9.71059ZM96.049 9.00104C96.049 8.80592 96.0812 8.7261 96.1205 8.82367C96.1599 8.92123 96.1599 9.08088 96.1205 9.17843C96.0812 9.276 96.049 9.19615 96.049 9.00104ZM3.79731 8.77636C3.80411 8.61105 3.83775 8.57742 3.88304 8.69063C3.92403 8.79307 3.919 8.91546 3.87184 8.96262C3.82469 9.00976 3.79115 8.92595 3.79731 8.77636H3.79731ZM46.7489 8.8984C47.0025 8.86692 47.4176 8.86692 47.6713 8.8984C47.9249 8.92987 47.7174 8.95563 47.2101 8.95563C46.7027 8.95563 46.4952 8.92987 46.7489 8.8984ZM68.3215 8.89824C68.5765 8.86669 68.9597 8.86731 69.1729 8.89978C69.3862 8.93218 69.1775 8.958 68.7092 8.95723C68.2409 8.95647 68.0664 8.92996 68.3215 8.89833V8.89824ZM69.6858 7.36909C69.6861 6.4325 69.709 6.06782 69.7368 6.55869C69.7646 7.04955 69.7644 7.81586 69.7362 8.26159C69.7082 8.70731 69.6854 8.30567 69.6857 7.36909H69.6858ZM80.9456 8.89863C81.1975 8.8673 81.6446 8.86678 81.939 8.89787C82.2334 8.92858 82.0273 8.95426 81.4809 8.95487C80.9346 8.95544 80.6937 8.93034 80.9456 8.89901V8.89863ZM46.1273 7.44006C46.1273 6.62054 46.1508 6.28528 46.1794 6.69504C46.2081 7.1048 46.2081 7.77532 46.1794 8.18508C46.1508 8.59484 46.1273 8.25957 46.1273 7.44006ZM98.4614 8.1496C98.4614 7.95448 98.4936 7.87465 98.533 7.97221C98.5723 8.06978 98.5723 8.22943 98.533 8.32699C98.4936 8.42455 98.4614 8.34471 98.4614 8.1496ZM1.38487 7.92491C1.39167 7.7596 1.42531 7.72597 1.4706 7.83917C1.51159 7.94161 1.50656 8.06401 1.4594 8.11116C1.41225 8.1583 1.37871 8.07449 1.38487 7.92491H1.38487ZM96.1909 7.29814C96.1909 7.10302 96.2231 7.02321 96.2625 7.12077C96.3018 7.21833 96.3018 7.37797 96.2625 7.47553C96.2231 7.57309 96.1909 7.49326 96.1909 7.29814ZM3.6554 7.07346C3.6622 6.90814 3.69583 6.87452 3.74114 6.98773C3.78213 7.09017 3.77709 7.21256 3.72994 7.25972C3.68278 7.30686 3.64924 7.22304 3.65541 7.07346H3.6554ZM98.5921 6.36392C98.599 6.1986 98.6325 6.16498 98.6778 6.27818C98.7189 6.38062 98.7138 6.50302 98.6666 6.55018C98.6195 6.59732 98.5859 6.5135 98.5921 6.36392ZM1.25416 6.16288C1.25416 5.96776 1.28637 5.88793 1.32573 5.9855C1.3651 6.08306 1.3651 6.24271 1.32573 6.34027C1.28636 6.43783 1.25416 6.358 1.25416 6.16288ZM96.3328 5.59525C96.3328 5.40013 96.365 5.3203 96.4044 5.41785C96.4437 5.51542 96.4437 5.67507 96.4044 5.77263C96.365 5.8702 96.3328 5.79036 96.3328 5.59525ZM15.91 4.67285L15.9193 3.67948L21.3919 3.64235L26.8646 3.60522L27.2102 3.99711L27.5558 4.389L27.1918 4.06971C26.8281 3.75053 26.826 3.75041 21.4153 3.75041H16.0027L15.9517 4.70829L15.9006 5.66617L15.91 4.67285ZM35.2095 4.67285L35.2188 3.67948L41.6757 3.67719L48.1325 3.6749L41.7173 3.71394L35.3021 3.75298L35.2512 4.70943L35.2002 5.66589L35.2095 4.67253V4.67285ZM3.5247 5.31143C3.5247 5.1163 3.55691 5.03649 3.59627 5.13405C3.63564 5.23161 3.63564 5.39126 3.59627 5.48882C3.5569 5.58638 3.5247 5.50654 3.5247 5.31143ZM98.7452 4.6019C98.7452 4.40677 98.7775 4.32694 98.8168 4.4245C98.8562 4.52206 98.8562 4.68171 98.8168 4.77927C98.7775 4.87684 98.7452 4.797 98.7452 4.6019ZM1.11225 4.31807C1.11225 4.12295 1.14446 4.04313 1.18383 4.14069C1.2232 4.23825 1.2232 4.3979 1.18383 4.49546C1.14446 4.59302 1.11225 4.51318 1.11225 4.31807ZM55.219 4.06973L55.6358 3.60853L58.8376 3.64115L62.0395 3.67378L58.8514 3.71488L55.6633 3.75598L55.2327 4.14343L54.8022 4.53089L55.219 4.06973ZM71.4409 3.64411C73.4897 3.62195 76.8423 3.62195 78.8911 3.64411C80.9399 3.66626 79.2636 3.68437 75.166 3.68437C71.0684 3.68437 69.3921 3.66626 71.4409 3.64411ZM95.2326 3.43115L94.9622 3.11185L95.2815 3.38219C95.4571 3.53087 95.6008 3.67455 95.6008 3.70148C95.6008 3.81504 95.4866 3.7312 95.2326 3.43115ZM98.0133 3.11185C97.6686 2.76063 97.4185 2.47326 97.4575 2.47326C97.4965 2.47326 97.8105 2.76063 98.1552 3.11185C98.4999 3.46307 98.75 3.75044 98.711 3.75044C98.6719 3.75044 98.358 3.46307 98.0133 3.11185ZM2.15416 2.75708C2.45901 2.44489 2.74037 2.18945 2.77939 2.18945C2.81842 2.18945 2.60092 2.44489 2.29607 2.75708C1.99121 3.06928 1.70986 3.32471 1.67083 3.32471C1.63181 3.32471 1.84931 3.06928 2.15416 2.75708Z" fill="#499FC6"/>
<path d="M2.55333 25.5238L1.15394 24.0254L1.45475 20.1787L1.75556 16.332L1.27693 15.9118C1.01368 15.6806 0.640381 15.3673 0.447381 15.2155C0.136466 14.9709 0.096587 14.8315 0.0974878 13.9919L0.0984816 13.0443L0.936937 12.3535L1.77539 11.6627L1.70561 10.9344C1.66722 10.5339 1.52639 8.80124 1.39265 7.08415L1.14948 3.96216L2.56267 2.43665L3.97586 0.911133H5.371H6.76614V2.04639V3.18166H5.87436C4.98544 3.18166 4.98021 3.18395 4.23916 3.93444L3.49574 4.68721L3.80001 8.36414L4.10429 12.0411L3.07652 13.0211L2.04876 14.0012L3.08051 14.945L4.11226 15.8887L3.79778 19.6321L3.48329 23.3755L4.23294 24.1346C4.98097 24.892 4.98451 24.8936 5.87436 24.8936H6.76614V25.958V27.0223H5.35944H3.95271L2.55333 25.5238ZM93.1884 25.958V24.8936H94.0802C94.9709 24.8936 94.9728 24.8929 95.7278 24.1283L96.4837 23.3629L96.1742 19.6227L95.8647 15.8825L96.9035 14.936L97.9423 13.9896L96.9001 13.0202L95.8578 12.0509L96.1684 8.40277L96.479 4.75462L95.8 3.96814L95.121 3.18166H94.1547H93.1884V2.04639V0.911133H94.5917H95.9949L97.4103 2.43665L98.8256 3.96216L98.5213 7.7811L98.217 11.6L98.7183 12.0623C98.9939 12.3165 99.3951 12.6621 99.6097 12.8302C99.9556 13.101 100 13.2297 100 13.9597V14.7835L99.1095 15.5654L98.2189 16.3472L98.5236 20.1592L98.8283 23.9712L98.4594 24.397C98.2565 24.6311 97.6116 25.3176 97.0264 25.9225L95.9623 27.0223H94.5753H93.1884V25.958ZM15.9902 23.2617V22.1974H16.9126H17.835V13.9667V5.73601H16.9126H15.9902V4.74265V3.74929H21.4408H26.8913L28.2493 5.20386L29.6072 6.65842L29.6103 9.72293C29.6133 12.6643 29.6013 12.7983 29.3135 13.0578C29.1486 13.2065 28.5076 13.8819 27.8891 14.5588L26.7646 15.7895L28.2444 18.958L29.7242 22.1264L30.4493 22.1693L31.1744 22.2122V23.2691V24.326H28.691H26.2076V23.2616C26.2076 22.2278 26.2175 22.1973 26.554 22.1973C26.7445 22.1973 26.9398 22.2612 26.9881 22.3392C27.0378 22.4197 26.9186 22.4811 26.7126 22.4811C26.3671 22.4811 26.3495 22.5189 26.3495 23.2616V24.0421H28.691H31.0325V23.2616V22.4811L30.5713 22.4711C30.3176 22.4658 29.9973 22.4166 29.8594 22.362C29.6501 22.2793 27.0094 16.9147 26.7035 15.9508C26.6397 15.7499 26.9719 15.3062 28.0451 14.1593L29.4715 12.6349V9.67441V6.71391L28.1019 5.30252L26.7323 3.8911H21.4322H16.1321V4.74256V5.59402H17.0545H17.9769V13.9501V22.3061L17.6576 22.3917C17.482 22.4387 17.0669 22.4781 16.7352 22.4792L16.1321 22.4815V23.262V24.0425H18.8993H21.6665V23.262V22.4815L21.2053 22.4792C20.9516 22.4784 20.6004 22.4387 20.4248 22.3917L20.1055 22.3061L20.1381 19.0942L20.1708 15.8824L20.2118 19.0398L20.2529 22.1973H21.0306H21.8084V23.2616V24.3259H18.8993H15.9902V23.2616L15.9902 23.2617ZM35.2898 23.2617V22.1974H36.2122H37.1346V13.9667V5.73601H36.2122H35.2898V4.74265V3.74929H41.7466H48.2034V6.33913V8.92895H47.2101H46.2167V7.33249V5.73601H42.8843H39.552L39.5114 9.24824L39.4708 12.7605L39.438 9.17477L39.4051 5.58905L42.8464 5.62703L46.2877 5.665L46.3279 7.19051L46.3682 8.71603H47.2149H48.0615V6.30358V3.89114H41.7466H35.4317V4.74259V5.59404H36.3541H37.2765V13.9501V22.3061L36.9572 22.3917C36.7816 22.4388 36.3665 22.4781 36.0348 22.4792L35.4317 22.4815V23.262V24.0425H41.7466H48.0615V21.63V19.2176H47.2101H46.3586V20.7786C46.3586 21.6371 46.3107 22.3397 46.2522 22.3399C46.1937 22.34 46.1656 21.6056 46.1898 20.7079L46.2339 19.0757H47.2187H48.2035V21.701V24.3263H41.7466H35.2898L35.2898 23.2617ZM54.0346 22.8149L52.6026 21.3038V19.622V17.9401H53.5959H54.5893V19.115V20.2898L55.48 21.1727L56.3708 22.0555H58.8653H61.3597L62.0899 21.2835C62.4914 20.8589 62.82 20.5577 62.82 20.6143C62.82 20.6708 62.4827 21.0501 62.0705 21.4572L61.321 22.1974H58.7582H56.1953L55.3213 21.2873L54.4474 20.3771V19.2296V18.082H53.5959H52.7445L52.7506 19.6785L52.7567 21.275L54.0862 22.6586L55.4157 24.0422H58.8222H62.2288L63.5876 22.5876L64.9464 21.1331L64.9472 18.4615L64.9479 15.7899L63.6353 14.3826L62.3226 12.9752L59.5199 12.9745C57.7466 12.9739 56.7172 12.9214 56.7172 12.8317C56.7172 12.742 57.7232 12.6898 59.4514 12.6898H62.1857L63.6377 14.1467L65.0898 15.6037V18.4147V21.2257L63.6352 22.7759L62.1806 24.3261L58.8232 24.3262L55.4658 24.3262L54.0346 22.8149ZM71.1926 23.2532V22.1803L72.4343 22.1982C73.1172 22.208 73.7558 22.2119 73.8534 22.2067C73.9931 22.1991 74.0308 20.4516 74.0308 13.9667V5.73599H71.8312H69.6316V7.33246V8.92893H68.7092H67.7868V6.3391V3.74927H75.166H82.5453L82.5455 6.3391L82.5458 8.92893L81.5521 8.88178L80.5585 8.83465V7.28529V5.73595H78.4299H76.3013V13.9666V22.1973H77.7204H79.1395V23.2616V24.326H75.166H71.1926V23.2532ZM78.8556 23.2617V22.4812L77.8268 22.4789C77.2609 22.4782 76.6538 22.4384 76.4776 22.3911L76.1571 22.3053L76.1937 13.985L76.2303 5.66471L78.4654 5.6256L80.7004 5.58648V7.15107V8.71568H81.5519H82.4033V6.30323V3.89079H75.166H67.9287V6.30323V8.71568H68.7044H69.4801L69.5203 7.19016L69.5606 5.66464H71.8311H74.1017L74.1386 13.8953C74.1729 21.5071 74.1575 22.1394 73.9341 22.3034C73.7867 22.4117 73.2334 22.4808 72.5135 22.4808H71.3344V23.2613V24.0418H75.095H78.8556V23.2613L78.8556 23.2617ZM39.6534 22.3834C39.4248 22.3237 39.4051 22.0206 39.4051 18.5683V14.8182H42.598H45.791V13.9694V13.1206L42.5626 13.0796L39.3341 13.0387L42.6335 13.006L45.9329 12.9733V13.9666V14.96H42.74H39.547V18.5787V22.1973H42.74C44.774 22.1973 45.9329 22.2488 45.9329 22.3392C45.9329 22.4801 40.1785 22.5205 39.6534 22.3833V22.3834ZM25.7779 18.8688L24.2919 15.6581L22.1985 15.6993C21.0471 15.722 20.1052 15.691 20.1053 15.6305C20.1055 15.5699 21.076 15.538 22.2621 15.5595L24.4186 15.5987L25.8832 18.7132C26.6888 20.4262 27.329 21.8845 27.3059 21.9537C27.2828 22.023 26.5952 20.6348 25.7779 18.8689V18.8688ZM62.6781 18.3251V16.2975L61.9991 15.6288L61.3202 14.9601H58.4632H55.6062L54.2474 13.5055L52.8886 12.0509V9.35469V6.65843L54.2474 5.20387L55.6062 3.74931H58.7884H61.9706L63.3837 5.20387L64.7969 6.65843L64.8015 8.32586L64.8061 9.99328H63.7417H62.6774V8.84435V7.69541L61.8796 6.78667L61.0818 5.87794H58.8592H56.6366L55.8965 6.62742L55.1563 7.37689V9.35469V11.3325L55.8965 12.082C56.3035 12.4942 56.5677 12.8314 56.4835 12.8314C56.3993 12.8314 56.0343 12.5149 55.6724 12.128L55.0144 11.4245V9.41552V7.4065L55.738 6.57127L56.4615 5.73603H58.7576H61.0537L61.9365 6.62677L62.8193 7.51752V8.68444V9.85137H63.7417H64.6641V8.34861V6.84584L63.2942 5.36854L61.9243 3.89122H58.8507H55.777L54.4023 5.29042L53.0277 6.68963V9.37296V12.0563L54.4138 13.4372L55.7999 14.8182H58.6409H61.4819L62.1861 15.5327L62.8903 16.2473L62.9362 18.2999C62.9675 19.6963 62.9331 20.3526 62.8298 20.3526C62.7283 20.3526 62.6774 19.675 62.6774 18.3251H62.6781ZM20.1696 13.5031C20.1316 13.4042 20.1188 11.6959 20.1411 9.70702L20.1816 6.0908L20.2145 9.81589L20.2475 13.541H23.0546H25.8617L26.6733 12.7209L27.4848 11.9008V9.7009V7.50099L26.6588 6.68361L25.8328 5.86622L22.969 5.90755C21.394 5.93024 20.1053 5.90068 20.1054 5.84246C20.1055 5.78394 21.4412 5.73603 23.0737 5.73603H26.0419L26.8343 6.61166L27.6267 7.48729V9.70227V11.9172L26.736 12.8001L25.8452 13.6829H23.0419C20.9098 13.6829 20.222 13.6398 20.1696 13.5031Z" fill="#1CB88A"/>
</svg>
