<svg width="206" height="205" viewBox="0 0 206 205" fill="none" xmlns="http://www.w3.org/2000/svg">
<path d="M103.35 0L192.118 51.25V153.75L103.35 205L14.5824 153.75V51.25L103.35 0Z" fill="#5736DF"/>
<path d="M106.622 128.343C82.8742 117.846 68.7039 103.151 63.8162 83.9541C62.0716 77.102 61.8209 63.9492 63.4046 62.3655C64.3729 61.3972 75.0755 61.1812 80.2272 62.026C100.75 65.3915 117.093 79.5878 128.188 103.687L130.767 109.29L129.789 110.769C128.517 112.691 124.196 118.054 123.186 118.964C122.421 119.653 122.141 119.401 112.404 109.234C106.906 103.494 102.216 98.7954 101.981 98.7934C101.746 98.7912 101.066 99.3 100.468 99.9237L99.3817 101.058L104.106 105.67C106.704 108.208 110.37 111.716 112.254 113.467C114.137 115.218 116.812 117.712 118.199 119.01L120.72 121.371L119.591 122.562C118.057 124.181 110.719 129.697 110.117 129.684C109.85 129.678 108.278 129.075 106.622 128.343ZM90.8138 96.0035C95.1679 94.0819 97.4341 90.691 97.7089 85.6861C97.866 82.8249 97.764 82.1472 96.8938 80.2677C93.3726 72.6632 83.9251 70.7465 77.5505 76.3434C72.915 80.4134 72.7649 88.6657 77.242 93.305C78.7955 94.9148 81.0996 96.2918 83.1423 96.8312C85.0542 97.3361 88.6808 96.9448 90.8138 96.0035Z" fill="#303030"/>
<path d="M98.9673 141.398C95.9355 139.468 88.9361 133.714 85.0524 129.959C82.4157 127.409 81.2269 125.953 80.9407 124.923C80.4661 123.214 80.3942 116.984 80.846 116.705C81.0177 116.599 82.4175 117.499 83.9565 118.705C87.7992 121.716 92.7707 124.768 98.5521 127.666C102.917 129.854 103.401 130.201 103.209 131.005C103.092 131.498 102.553 134.229 102.013 137.073C101.472 139.917 100.966 142.308 100.887 142.386C100.809 142.465 99.9449 142.02 98.9674 141.398H98.9673Z" fill="#303030"/>
<path d="M141.142 143.096C137.683 142.167 133.376 139.545 128.569 135.441C127.451 134.488 126.304 133.707 126.019 133.707C125.467 133.707 125.168 134.645 124.992 136.918L124.884 138.323L122.021 135.463C119.967 133.412 118.921 131.994 118.322 130.446L117.486 128.289L120.132 125.776L122.778 123.263L124.543 124.89C127.119 127.265 128.203 126.171 125.887 123.534C125.225 122.78 124.683 121.95 124.683 121.69C124.683 121.074 128.679 116.849 129.257 116.854C130.186 116.862 133.828 118.806 135.243 120.047C136.055 120.76 137.287 122.061 137.982 122.939L139.245 124.534L137.819 124.266C135.993 123.923 134.717 124.331 134.717 125.257C134.717 125.656 135.788 127.262 137.098 128.825C141.089 133.59 144.35 139.842 144.35 142.728C144.35 143.885 144.16 143.907 141.142 143.096Z" fill="#303030"/>
<path d="M128.142 97.2842C125.732 92.4798 121.733 86.1031 118.488 81.8876L117.063 80.037L119.262 79.8101C121.683 79.5602 125.763 80.0168 126.993 80.6752C129.562 82.0503 143.869 99.4041 143.082 100.191C142.869 100.404 132.243 102.402 131.321 102.402C130.94 102.402 129.744 100.477 128.142 97.2842Z" fill="#303030"/>
</svg>
