<svg width="50" height="61" viewBox="0 0 50 61" fill="none" xmlns="http://www.w3.org/2000/svg">
<path d="M7.36391 60.2442C7.46682 60.203 7.58978 60.2081 7.63715 60.2555C7.68453 60.3028 7.60032 60.3365 7.45004 60.3303C7.28397 60.3235 7.25019 60.2897 7.36391 60.2442V60.2442ZM2.57137 54.853C2.57428 54.6178 2.60623 54.5388 2.64237 54.6775C2.67852 54.8162 2.67614 55.0087 2.6371 55.1052C2.59805 55.2017 2.56848 55.0882 2.57138 54.853H2.57137ZM5.60864 48.2239C5.91489 47.9103 6.19754 47.6537 6.23674 47.6537C6.27595 47.6537 6.05745 47.9103 5.75119 48.2239C5.44494 48.5376 5.16229 48.7942 5.12309 48.7942C5.08389 48.7942 5.30238 48.5376 5.60864 48.2239ZM17.5237 45.7173C17.5305 45.5512 17.5643 45.5174 17.6098 45.6311C17.651 45.734 17.6459 45.857 17.5986 45.9044C17.5512 45.9517 17.5175 45.8675 17.5237 45.7173H17.5237ZM22.903 41.9964C23.0059 41.9553 23.1289 41.9603 23.1763 42.0077C23.2236 42.0551 23.1394 42.0887 22.9891 42.0826C22.8231 42.0757 22.7893 42.0419 22.903 41.9964V41.9964ZM24.7474 41.9994C24.8454 41.9598 25.0058 41.9598 25.1038 41.9994C25.2018 42.039 25.1216 42.0713 24.9256 42.0713C24.7296 42.0713 24.6494 42.0389 24.7474 41.9994ZM18.4401 40.0996C18.3902 40.0188 18.4474 39.9949 18.5742 40.0436C18.8212 40.1383 18.8664 40.2405 18.6613 40.2405C18.5876 40.2405 18.488 40.1771 18.4401 40.0996ZM22.7605 39.4303C22.8634 39.3892 22.9863 39.3942 23.0337 39.4416C23.0811 39.4889 22.9969 39.5226 22.8466 39.5164C22.6805 39.5096 22.6467 39.4758 22.7605 39.4303V39.4303ZM26.5321 28.1666C26.6708 28.1305 26.8633 28.1329 26.9598 28.1719C27.0563 28.211 26.9428 28.2406 26.7076 28.2377C26.4724 28.2347 26.3934 28.2028 26.5321 28.1667V28.1666ZM28.2401 28.1671C28.3773 28.1312 28.6019 28.1312 28.7391 28.1671C28.8763 28.2029 28.764 28.2323 28.4896 28.2323C28.2152 28.2323 28.1029 28.2029 28.2401 28.1671ZM6.00581 25.7705C6.00695 25.3784 6.03456 25.235 6.06733 25.4517C6.1001 25.6684 6.09923 25.9891 6.0654 26.1645C6.03156 26.3398 6.00475 26.1624 6.00582 25.7705H6.00581ZM27.0373 25.4592C27.1402 25.4181 27.2631 25.4231 27.3105 25.4705C27.3579 25.5179 27.2737 25.5516 27.1234 25.5454C26.9573 25.5385 26.9236 25.5047 27.0373 25.4592V25.4592ZM0 25.1291C0 24.9331 0.0323579 24.8529 0.0719054 24.9509C0.111453 25.0489 0.111453 25.2093 0.0719054 25.3073C0.0323575 25.4053 0 25.3251 0 25.1291ZM36.5106 5.63858C36.7273 5.60581 37.0481 5.60669 37.2234 5.64052C37.3988 5.67436 37.2213 5.70116 36.8294 5.70009C36.4374 5.69904 36.2939 5.67134 36.5106 5.63857V5.63858ZM47.8597 4.92116C47.6823 4.69505 47.6874 4.69 47.9135 4.86733C48.151 5.05357 48.2265 5.17064 48.1091 5.17064C48.0796 5.17064 47.9673 5.05837 47.8597 4.92116ZM47.2894 4.35091C47.1121 4.1248 47.1171 4.11976 47.3433 4.29709C47.4805 4.4047 47.5927 4.51696 47.5927 4.54657C47.5927 4.6639 47.4757 4.58838 47.2894 4.35091ZM38.0144 0.938994C38.1174 0.897813 38.2403 0.902877 38.2877 0.950251C38.3351 0.997622 38.2509 1.03132 38.1006 1.02513C37.9345 1.01828 37.9007 0.984504 38.0144 0.938994Z" fill="#D85176"/>
<path d="M7.78267 60.2472C7.88068 60.2076 8.04106 60.2076 8.13907 60.2472C8.23708 60.2867 8.15689 60.3191 7.96087 60.3191C7.76485 60.3191 7.68466 60.2867 7.78267 60.2472ZM8.71203 60.2428C8.85073 60.2066 9.04319 60.209 9.13971 60.2481C9.23623 60.2872 9.12274 60.3167 8.88751 60.3138C8.65229 60.3109 8.57332 60.279 8.71203 60.2428V60.2428ZM14.6612 53.5874C14.6612 53.5578 14.7735 53.4455 14.9107 53.3379C15.1368 53.1606 15.1419 53.1657 14.9645 53.3918C14.7783 53.6292 14.6612 53.7048 14.6612 53.5874ZM31.4203 52.9417C31.3764 52.8706 31.4688 52.846 31.6257 52.8871C31.9586 52.9741 32.0007 53.071 31.7056 53.071C31.5926 53.071 31.4643 53.0128 31.4203 52.9417ZM32.3279 44.6956L31.9823 44.3035L32.3744 44.6491C32.7408 44.9722 32.8318 45.0876 32.72 45.0876C32.6944 45.0876 32.518 44.9112 32.3279 44.6956ZM22.4753 41.9964C22.5782 41.9553 22.7012 41.9603 22.7486 42.0077C22.7959 42.055 22.7117 42.0887 22.5615 42.0826C22.3954 42.0757 22.3616 42.0419 22.4753 41.9964V41.9964ZM17.7899 39.4208L17.2986 38.8862L17.8332 39.3775C18.3308 39.8348 18.4333 39.9554 18.3245 39.9554C18.3007 39.9554 18.0601 39.7149 17.7899 39.4208ZM23.1792 39.4333C23.2772 39.3938 23.4376 39.3938 23.5356 39.4333C23.6336 39.4729 23.5534 39.5052 23.3574 39.5052C23.1614 39.5052 23.0812 39.4729 23.1792 39.4333ZM9.02337 32.079L8.45983 31.4731L9.06572 32.0366C9.62918 32.5607 9.73711 32.6848 9.62925 32.6848C9.60596 32.6848 9.33331 32.4122 9.02337 32.079ZM27.3151 28.1646C27.4925 28.1305 27.7491 28.1318 27.8854 28.1676C28.0217 28.2033 27.8766 28.2312 27.563 28.2296C27.2493 28.2279 27.1378 28.1988 27.3151 28.1647V28.1646ZM19.4975 25.4499L19.1519 25.0578L19.5439 25.4035C19.9103 25.7265 20.0013 25.8419 19.8895 25.8419C19.864 25.8419 19.6876 25.6655 19.4975 25.4499ZM19.358 23.3115L18.8668 22.7769L19.4014 23.2682C19.899 23.7254 20.0015 23.8461 19.8927 23.8461C19.8688 23.8461 19.6283 23.6055 19.358 23.3115ZM4.68198 15.5237C4.68198 15.4941 4.79424 15.3819 4.93146 15.2743C5.15757 15.0969 5.16261 15.102 4.98528 15.3281C4.79905 15.5655 4.68198 15.6411 4.68198 15.5237ZM49.8849 11.5027C49.8918 11.3366 49.9256 11.3028 49.9711 11.4166C50.0122 11.5195 50.0072 11.6424 49.9598 11.6898C49.9125 11.7372 49.8788 11.653 49.885 11.5027H49.8849ZM49.8849 9.79198C49.8918 9.6259 49.9256 9.59212 49.9711 9.70584C50.0122 9.80876 50.0072 9.93171 49.9598 9.97909C49.9125 10.0265 49.8788 9.94226 49.885 9.79198H49.8849ZM35.7246 5.64646C35.8226 5.60691 35.9829 5.60691 36.081 5.64646C36.179 5.68601 36.0988 5.71837 35.9028 5.71837C35.7067 5.71837 35.6265 5.68601 35.7246 5.64646ZM37.5778 5.64646C37.6758 5.60691 37.8362 5.60691 37.9342 5.64646C38.0322 5.68601 37.952 5.71837 37.756 5.71837C37.56 5.71837 37.4798 5.68601 37.5778 5.64646ZM34.0227 0.938994C34.1256 0.897813 34.2486 0.902877 34.296 0.950251C34.3433 0.997622 34.2591 1.03132 34.1089 1.02513C33.9428 1.01828 33.909 0.984504 34.0227 0.938994Z" fill="#D85176"/>
<path d="M4.16948 59.0228L3.89791 58.7021L4.21867 58.9736C4.5201 59.2289 4.60433 59.3436 4.49024 59.3436C4.46319 59.3436 4.31885 59.1992 4.16948 59.0228ZM17.0135 56.4924C17.3996 56.1003 17.7476 55.7796 17.7868 55.7796C17.8261 55.7796 17.5422 56.1003 17.156 56.4924C16.7699 56.8844 16.4219 57.2052 16.3827 57.2052C16.3435 57.2052 16.6273 56.8844 17.0135 56.4924ZM13.6633 54.5853C13.6633 54.5557 13.7756 54.4434 13.9128 54.3358C14.1389 54.1585 14.1439 54.1635 13.9666 54.3896C13.7804 54.6271 13.6633 54.7026 13.6633 54.5853ZM15.0889 53.1597C15.0889 53.1301 15.2012 53.0178 15.3384 52.9102C15.5645 52.7329 15.5695 52.7379 15.3922 52.964C15.206 53.2015 15.0889 53.277 15.0889 53.1597ZM34.192 51.574C34.3762 51.378 34.5589 51.2176 34.5981 51.2176C34.6373 51.2176 34.5187 51.378 34.3346 51.574C34.1504 51.7701 33.9677 51.9304 33.9285 51.9304C33.8893 51.9304 34.0079 51.7701 34.192 51.574ZM4.68199 49.3105C4.68199 49.2809 4.79426 49.1687 4.93147 49.061C5.15758 48.8837 5.16262 48.8888 4.9853 49.1149C4.79906 49.3523 4.68199 49.4279 4.68199 49.3105ZM10.1706 48.509C10.6361 48.0385 11.0491 47.6536 11.0883 47.6536C11.1275 47.6536 10.7787 48.0385 10.3131 48.509C9.84759 48.9794 9.43462 49.3644 9.39542 49.3644C9.35621 49.3644 9.70503 48.9794 10.1706 48.509ZM6.60656 47.3685C6.74848 47.2117 6.89666 47.0834 6.93587 47.0834C6.97507 47.0834 6.89104 47.2117 6.74912 47.3685C6.6072 47.5253 6.45901 47.6536 6.41981 47.6536C6.3806 47.6536 6.46464 47.5253 6.60656 47.3685ZM33.2564 42.4858L32.8377 42.0225L33.301 42.4412C33.5559 42.6715 33.7644 42.88 33.7644 42.9045C33.7644 43.0147 33.6467 42.9177 33.2564 42.4858ZM23.8937 39.4268C24.071 39.3928 24.3276 39.3941 24.4639 39.4298C24.6002 39.4655 24.4551 39.4934 24.1415 39.4918C23.8279 39.4901 23.7164 39.461 23.8937 39.4269V39.4268ZM25.5342 39.429C25.6729 39.3928 25.8654 39.3952 25.9619 39.4343C26.0584 39.4733 25.9449 39.5029 25.7097 39.5C25.4745 39.497 25.3955 39.4651 25.5342 39.429V39.429ZM16.5723 38.3516L16.3007 38.0308L16.6214 38.3024C16.9229 38.5576 17.0071 38.6724 16.893 38.6724C16.866 38.6724 16.7216 38.528 16.5723 38.3516ZM15.641 37.5675C15.4636 37.3414 15.4687 37.3364 15.6948 37.5137C15.832 37.6213 15.9443 37.7336 15.9443 37.7632C15.9443 37.8805 15.8272 37.805 15.641 37.5675ZM6.08941 34.5738C5.91208 34.3476 5.91712 34.3426 6.14323 34.5199C6.28045 34.6275 6.39272 34.7398 6.39272 34.7694C6.39272 34.8867 6.27565 34.8112 6.08941 34.5738ZM10.9365 33.861C10.7591 33.6348 10.7642 33.6298 10.9903 33.8071C11.1275 33.9147 11.2398 34.027 11.2398 34.0566C11.2398 34.1739 11.1227 34.0984 10.9365 33.861ZM4.95632 33.5758L4.61071 33.1838L5.00275 33.5294C5.36917 33.8524 5.46017 33.9679 5.34836 33.9679C5.32283 33.9679 5.14641 33.7915 4.95632 33.5758ZM9.94594 33.0056L9.60033 32.6136L9.99237 32.9592C10.3588 33.2822 10.4498 33.3976 10.338 33.3976C10.3124 33.3976 10.136 33.2212 9.94594 33.0056ZM3.46126 32.0789L3.04254 31.6156L3.50586 32.0343C3.76069 32.2646 3.96919 32.4731 3.96919 32.4977C3.96919 32.6078 3.85156 32.5108 3.46126 32.0789ZM8.22782 31.2949C8.05049 31.0688 8.05553 31.0637 8.28164 31.241C8.41886 31.3487 8.53113 31.4609 8.53113 31.4905C8.53113 31.6079 8.41406 31.5323 8.22782 31.2949ZM29.7459 28.0255C29.8488 27.9843 29.9718 27.9894 30.0192 28.0367C30.0665 28.0841 29.9823 28.1178 29.8321 28.1116C29.666 28.1048 29.6322 28.071 29.7459 28.0255V28.0255ZM42.8882 23.222C42.8882 23.1924 43.0005 23.0801 43.1377 22.9725C43.3638 22.7952 43.3689 22.8002 43.1915 23.0264C43.0053 23.2638 42.8882 23.3393 42.8882 23.222ZM43.7436 22.5184C43.7436 22.4939 43.9521 22.2854 44.2069 22.0551L44.6702 21.6364L44.2515 22.0997C43.8612 22.5316 43.7436 22.6286 43.7436 22.5184ZM45.0266 21.2354C45.0266 21.2108 45.2351 21.0023 45.49 20.772L45.9533 20.3533L45.5346 20.8167C45.1443 21.2485 45.0266 21.3455 45.0266 21.2354ZM40.037 20.5134C40.037 20.4838 40.1493 20.3715 40.2865 20.2639C40.5126 20.0865 40.5177 20.0916 40.3403 20.3177C40.1541 20.5552 40.037 20.6307 40.037 20.5134ZM41.7477 18.9277C42.2529 18.4181 42.6982 18.0011 42.7374 18.0011C42.7766 18.0011 42.3954 18.4181 41.8903 18.9277C41.3852 19.4374 40.9398 19.8544 40.9006 19.8544C40.8614 19.8544 41.2426 19.4374 41.7477 18.9277ZM10.0933 17.3952C10.4429 17.0228 10.7476 16.718 10.7705 16.718C10.8775 16.718 10.7644 16.846 10.1349 17.4368L9.45777 18.0724L10.0933 17.3952ZM4.11175 16.2365C4.11175 16.2069 4.22401 16.0946 4.36123 15.987C4.58734 15.8097 4.59238 15.8147 4.41505 16.0408C4.22882 16.2783 4.11175 16.3538 4.11175 16.2365ZM11.5249 16.0939C11.5249 16.0643 11.6372 15.952 11.7744 15.8444C12.0005 15.6671 12.0055 15.6721 11.8282 15.8983C11.642 16.1357 11.5249 16.2112 11.5249 16.0939ZM5.96503 14.2232C6.47016 13.7135 6.91552 13.2965 6.95472 13.2965C6.99392 13.2965 6.61272 13.7135 6.10759 14.2232C5.60247 14.7328 5.15711 15.1498 5.11791 15.1498C5.0787 15.1498 5.45991 14.7328 5.96503 14.2232ZM7.67576 12.6725C7.67576 12.6429 7.78803 12.5306 7.92524 12.423C8.15135 12.2456 8.1564 12.2507 7.97907 12.4768C7.79283 12.7143 7.67576 12.7898 7.67576 12.6725ZM49.9145 10.6592C49.9157 10.2671 49.9432 10.1236 49.976 10.3403C50.0088 10.5571 50.0079 10.8778 49.9739 11.0532C49.9401 11.2285 49.9132 11.051 49.9143 10.6592H49.9145ZM35.1543 5.64639C35.2523 5.60685 35.4127 5.60685 35.5107 5.64639C35.6087 5.68594 35.5285 5.7183 35.3325 5.7183C35.1365 5.7183 35.0563 5.68594 35.1543 5.64639ZM38.157 5.6434C38.2599 5.60222 38.3829 5.60729 38.4302 5.65466C38.4776 5.70203 38.3934 5.73573 38.2431 5.72954C38.0771 5.7227 38.0433 5.68892 38.157 5.64341V5.6434ZM34.5155 0.937496C34.6542 0.901349 34.8467 0.903728 34.9432 0.942779C35.0397 0.98183 34.9262 1.0114 34.691 1.0085C34.4558 1.00559 34.3768 0.973643 34.5155 0.937496ZM37.0816 0.937496C37.2203 0.901349 37.4128 0.903728 37.5093 0.942779C37.6058 0.98183 37.4923 1.0114 37.2571 1.0085C37.0219 1.00559 36.9429 0.973643 37.0816 0.937496Z" fill="#D85176"/>
<path d="M6.01254 59.9742C4.5051 59.6015 3.40685 58.3441 2.90466 56.4161C2.47718 54.7749 2.78274 52.6451 3.68989 50.9431C5.0349 48.4196 8.42582 45.6078 13.6445 42.6884L15.6928 41.5426L13.9818 40.2856C13.0407 39.5943 11.3899 38.4199 10.3133 37.6758C4.2868 33.5106 1.22446 30.1023 0.320781 26.5546C-0.222517 24.4217 0.580477 21.5244 2.5546 18.4949C6.07148 13.0977 12.8149 8.09293 21.6787 4.30144C27.6803 1.7343 33.0574 0.643428 37.8081 1.0292C44.5907 1.57996 48.8777 4.33865 49.7368 8.70535C50.0164 10.1266 49.8468 12.677 49.3746 14.1518C47.8865 18.7996 44.1526 23.0039 39.3955 25.3885C37.0075 26.5856 33.2752 27.6421 30.2003 27.9915C28.3687 28.1996 25.0447 28.0857 23.8564 27.774C21.6812 27.2036 19.4418 25.6602 18.7369 24.2456C18.0388 22.8446 18.4082 22.4468 19.478 23.4474C20.3673 24.2793 21.198 24.7479 22.5021 25.1531C23.4502 25.4478 23.8457 25.4846 25.9948 25.4786C28.7265 25.471 30.2342 25.2202 32.909 24.329C38.2513 22.5488 42.76 18.9791 44.7968 14.9168C45.4751 13.5641 45.7407 12.479 45.7332 11.0925C45.7231 9.24651 45.2189 8.23509 43.8484 7.31147C42.3155 6.27838 40.4565 5.77522 37.6848 5.64324C32.7005 5.4059 26.7261 7.00662 20.5127 10.2441C10.6794 15.3679 5.68692 20.8305 6.00128 26.1224C6.12865 28.2665 6.85514 29.7719 8.73408 31.785C9.77699 32.9024 10.5294 33.5371 14.8884 36.9766C15.7436 37.6513 16.934 38.662 17.5338 39.2226L18.6243 40.2419L19.857 39.9491C21.3693 39.5899 24.6469 39.3852 26.3575 39.543C28.1241 39.7061 29.1997 40.0065 30.7706 40.7757C33.2851 42.0069 35.1515 44.31 35.6261 46.7672C35.9832 48.6159 35.4369 50.3879 34.1282 51.6256C33.2993 52.4096 32.3903 52.9283 31.8455 52.9283C31.3197 52.9283 31.3967 52.5961 32.018 52.1838C32.8665 51.6206 33.4874 50.9215 33.8715 50.0969C34.1767 49.4415 34.2181 49.1863 34.1617 48.3071C34.0706 46.8874 33.5809 45.8756 32.4262 44.7208C30.4841 42.7787 27.2659 41.8169 23.2876 41.9896C21.1143 42.084 20.021 42.3115 20.1521 42.6423C20.9273 44.598 21.0958 48.001 20.5302 50.2805C20.3566 50.9804 20.0447 51.9427 19.8372 52.4189C18.4134 55.6867 15.3471 58.5042 11.9873 59.6318C10.7558 60.0451 10.3881 60.1033 8.74496 60.1447C7.42558 60.178 6.6384 60.1289 6.01254 59.9742ZM10.9928 56.0645C13.0388 55.4326 15.386 53.3701 16.5034 51.2224C17.2693 49.7501 17.655 48.2289 17.655 46.6802C17.655 45.4176 17.4139 43.6619 17.2406 43.6619C17.0205 43.6619 13.8994 45.5217 12.7928 46.3123C11.3114 47.3705 9.31978 49.3225 8.6148 50.4071C7.65336 51.8862 7.33222 52.8387 7.32539 54.2317C7.31899 55.5369 7.48926 55.9345 8.17472 56.215C8.69267 56.427 10.0547 56.3543 10.9928 56.0645Z" fill="#D85176"/>
</svg>
