<svg width="206" height="205" viewBox="0 0 206 205" fill="none" xmlns="http://www.w3.org/2000/svg">
<path d="M103.45 0L192.218 51.25V153.75L103.45 205L14.6824 153.75V51.25L103.45 0Z" fill="#5736DF"/>
<path d="M71.2624 134.438C68.8664 133.164 66.8929 130.3 65.1804 125.609C59.955 111.297 62.2913 96.6668 71.6611 85.0267C79.2538 75.5943 89.6203 70.3796 102.012 69.7592C108.856 69.4165 114.504 70.5532 120.816 73.5432C126.022 76.0093 126.012 75.8862 121.266 78.9783C118.402 80.8446 118.223 80.8967 116.944 80.2356C112.602 77.9901 104.979 76.9669 99.1009 77.8406C91.6091 78.9542 85.7894 81.7839 80.483 86.8933C70.4285 96.5743 67.473 111.74 73.1746 124.395L74.4963 127.328H103.581H132.666L134.062 123.925C135.914 119.41 136.516 116.638 136.689 111.84C136.846 107.473 136.129 102.996 134.648 99.0995C134.123 97.7171 133.693 96.3595 133.693 96.0825C133.692 95.4012 137.913 88.8419 138.351 88.8419C139.038 88.8419 142.618 97.1316 143.585 100.96C144.425 104.289 144.545 105.913 144.395 111.989C144.233 118.565 144.101 119.459 142.688 123.573C140.673 129.439 138.657 132.75 136.233 134.178L134.314 135.307H103.606C74.6174 135.307 72.8062 135.258 71.2624 134.438Z" fill="#303030"/>
<path d="M100.004 117.885C96.0002 115.903 94.3495 110.226 96.7316 106.629C97.464 105.523 102.894 101.637 114.449 93.9493C123.613 87.8526 131.188 82.9307 131.281 83.0117C131.605 83.2922 110.328 114.897 108.68 116.583C106.243 119.076 103.302 119.518 100.004 117.885Z" fill="#303030"/>
</svg>
