<svg width="600" height="200" viewBox="0 0 600 200" fill="none" xmlns="http://www.w3.org/2000/svg">
<path fill-rule="evenodd" clip-rule="evenodd" d="M43.8621 99.8865C49.5591 108.526 56.8702 118.449 62.841 125.47C67.0137 130.377 75.0131 138.899 73.4741 136.797C72.9037 136.019 72.0606 134.852 71.6005 134.204C71.1404 133.557 74.2691 136.678 78.5532 141.141C94.3305 157.576 108.524 168.662 125.791 178.035C167.09 200.455 215.084 205.562 276.235 194.042C300.096 189.547 319.694 184.392 349.638 174.733C355.307 172.904 360.039 171.408 360.154 171.408C360.269 171.408 360.29 171.332 360.201 171.238C360.111 171.145 356.327 172.076 351.793 173.308C340.421 176.397 320.949 181.464 313.882 183.172C299.999 186.528 278.703 191.049 277.793 190.834C277.516 190.769 278.102 190.538 279.096 190.322C282.938 189.486 293.565 186.715 300.329 184.786C310.377 181.919 323.323 178.015 323.511 177.795C323.598 177.691 323.331 177.697 322.917 177.806C314.973 179.905 292.507 185.182 289.185 185.729C287.113 186.071 287.84 185.695 290.691 184.951C296.419 183.456 306.96 180.432 306.848 180.316C306.782 180.247 305.865 180.337 304.809 180.516C302.358 180.932 292.995 180.932 290.244 180.517C287.901 180.163 286.023 179.345 286.023 178.678C286.023 177.602 287.877 176.92 298.122 174.228C315.248 169.726 332.089 164.782 368.094 153.686C373.974 151.873 385.359 148.383 393.392 145.928C409.933 140.876 411.989 140.253 411.952 140.08C411.945 140.051 411.877 140.034 411.81 140.011C410.614 139.594 394.127 143.787 370.654 150.478C351.144 156.039 340.406 159.054 335.985 160.211C333.648 160.823 331.48 161.419 331.167 161.535C330.78 161.678 330.694 161.642 330.898 161.423C331.064 161.245 333.879 160.142 337.154 158.971C340.429 157.8 343.072 156.805 343.027 156.761C342.94 156.674 335.737 158.3 330.446 159.6C328.707 160.027 324.37 161.233 320.809 162.28C310.243 165.385 305.026 166.662 298.973 167.626C295.826 168.127 287.423 169.598 280.3 170.894C260.17 174.559 251.928 175.818 240.545 176.968C233.859 177.644 216.675 177.741 210.728 177.138C199.802 176.028 189.829 174.351 181.364 172.198C176.396 170.935 166.439 167.847 166.861 167.7C167.014 167.646 168.816 168.102 170.864 168.712C180.017 171.439 192.034 173.659 203.35 174.712C214.899 175.788 232.101 175.657 247.773 174.376C274.566 172.184 291.128 168.866 328.029 158.298C352.427 151.31 362.898 148.46 368.953 147.157C370.503 146.823 377.483 144.631 384.464 142.284C413.675 132.466 435.118 126.137 457.844 120.624C490.937 112.598 522.809 107.986 549.703 107.332C557.18 107.15 557.727 107.097 558.362 106.494C559.238 105.663 559.248 104.187 558.385 103.228L557.73 102.499L548.973 102.501C516.77 102.507 483.646 107.711 437.665 119.989C427.198 122.785 418.941 125.086 394.898 131.91C381.152 135.812 356.283 142.489 355.941 142.37C355.756 142.306 356.755 141.932 358.16 141.54C359.565 141.148 368.033 138.639 376.978 135.964C422.736 122.282 441.747 117.045 464.169 111.948C494.582 105.034 518.689 101.608 544.384 100.548L553.671 100.165L552.97 99.8865L522.143 99.8865C509.273 101.011 494.028 103.126 470.394 106.917C459.384 108.684 457.266 108.971 457.568 108.665C457.856 108.374 474.199 104.96 480.884 103.795C487.085 102.714 505.138 99.9823 506.082 99.9823C506.156 99.9823 506.212 99.9463 506.244 99.8865L66.4097 99.8865C70.3668 105.626 74.6657 111.4 78.8987 116.578C83.3066 121.97 94.7292 134.021 99.7447 138.57C129.25 165.333 157.243 177.059 199.133 180.204C205.404 180.675 217.459 181.155 223.108 181.158C225.775 181.16 228.791 181.252 229.809 181.363C231.43 181.54 231.66 181.648 231.66 182.229C231.66 182.86 231.505 182.892 228.423 182.922C226.642 182.939 222.813 183.183 219.914 183.465C212.443 184.192 199.874 184.721 195.971 184.473C194.149 184.357 191.438 184.211 189.947 184.149C182.942 183.855 172.727 181.915 164.092 179.238C160.454 178.11 162.125 178.304 167.227 179.602C172.84 181.03 182.353 182.918 185.279 183.186C186.459 183.294 185.184 182.941 182.068 182.297C161.251 177.994 143.617 171.527 127.453 162.268C125.879 161.367 124.727 160.776 124.893 160.955C125.305 161.4 132.051 165.311 135.735 167.239C139.431 169.174 145.556 172.003 150.875 174.231C153.072 175.152 154.823 175.956 154.765 176.016C154.707 176.077 153.124 175.554 151.248 174.855C120.654 163.454 94.7917 143.655 72.8005 114.8C69.8221 110.892 65.2357 104.276 62.3976 99.8865H48.3504C52.8292 106.858 58.5356 115.386 64.7501 124.361C69.4996 131.22 69.594 131.666 65.118 126.098C58.8508 118.301 51.9811 108.634 46.394 99.8865H43.8621ZM599.781 15.1686V18.0802C599.943 17.9595 600 17.637 600 17.0912C600 16.8098 599.922 16.1432 599.781 15.1686ZM62.847 99.8865C65.8435 104.328 68.5674 108.22 68.7964 108.367C69.1503 108.596 69.1489 108.593 66.9659 105.174C66.0822 103.789 64.8995 101.799 64.3378 100.752C64.2158 100.524 64.0373 100.229 63.8163 99.8865H62.847ZM69.5516 109.462C70.0294 109.853 70.04 109.842 69.6654 109.343C69.4377 109.04 69.2008 108.792 69.1382 108.792C68.8903 108.792 69.0499 109.051 69.5516 109.462ZM87.6222 130.858C88.1 131.249 88.1106 131.238 87.736 130.739C87.5084 130.436 87.2714 130.188 87.2088 130.188C86.9609 130.188 87.1205 130.447 87.6222 130.858ZM91.4623 134.75L90.4244 133.571C89.8535 132.922 89.3455 132.391 89.295 132.391C89.065 132.391 89.2816 132.657 90.3329 133.666L91.4623 134.75ZM93.6457 136.836C94.1235 137.227 94.1342 137.216 93.7596 136.717C93.5323 136.414 93.295 136.167 93.2324 136.167C92.9844 136.167 93.1441 136.425 93.6457 136.836ZM187.613 183.572C187.82 183.659 188.159 183.659 188.366 183.572C188.573 183.485 188.404 183.413 187.99 183.413C187.575 183.413 187.406 183.485 187.613 183.572ZM189.276 183.867C189.376 183.973 189.636 183.984 189.853 183.893L189.853 183.891C190.093 183.791 190.022 183.716 189.671 183.702C189.354 183.688 189.176 183.763 189.276 183.867ZM341.948 146.451C341.73 146.541 341.47 146.53 341.37 146.425L341.37 146.426C341.27 146.321 341.448 146.246 341.766 146.261C342.117 146.276 342.188 146.351 341.948 146.451ZM325.815 150.468C321.528 151.614 317.977 152.506 317.923 152.45L325.815 150.468ZM317.923 152.45C317.869 152.394 320.07 151.602 322.814 150.69L317.923 152.45ZM322.814 150.69C325.558 149.779 327.749 148.976 327.682 148.906L322.814 150.69ZM327.682 148.906C327.616 148.836 326.008 149.253 324.11 149.832L327.682 148.906ZM324.11 149.832C322.211 150.411 317.338 151.893 313.279 153.126L324.11 149.832ZM313.279 153.126C305.395 155.522 304.618 155.791 306.503 155.471L313.279 153.126ZM306.503 155.471C307.165 155.358 308.25 155.236 308.912 155.199L306.503 155.471ZM308.912 155.199C310.391 155.116 338.472 147.708 340.449 146.878L308.912 155.199ZM340.449 146.878C341.729 146.341 340.552 146.547 337.072 147.468L340.449 146.878ZM299.425 157.213C298.825 157.664 299.16 157.647 301.189 157.123L301.19 157.123C304.129 156.364 304.701 156.247 304.512 156.444C304.162 156.81 297.109 158.871 287.228 161.494C241.399 173.66 204.86 175.78 170.974 168.24C165.098 166.933 163.349 166.432 161.788 165.61C161.043 165.217 159.442 164.505 158.232 164.026C157.022 163.548 156.08 163.106 156.139 163.044C156.199 162.982 157.121 163.211 158.19 163.554C164.409 165.546 176.829 168.555 184.03 169.813C193.54 171.474 200.694 172.033 212.48 172.035C227.442 172.037 240.215 170.723 258.177 167.333C266.541 165.755 286.619 161.021 285.945 160.786C285.776 160.727 284.722 160.901 283.603 161.172C282.484 161.443 281.513 161.607 281.445 161.536C281.305 161.39 289.581 159.272 295.191 158.019C297.251 157.559 299.149 157.113 299.407 157.028C299.819 156.893 299.821 156.915 299.425 157.213ZM298.001 157.751C298.101 157.857 298.361 157.868 298.578 157.777L298.578 157.776C298.818 157.675 298.747 157.601 298.396 157.586C298.079 157.572 297.901 157.647 298.001 157.751ZM257.863 191.043C265.261 190.039 276.888 188.123 279.698 187.445C280.861 187.164 283.022 187.06 282.409 187.313C280.58 188.07 260.156 192.129 252.498 193.258C229.758 196.609 214.064 196.694 193.863 193.576C183.445 191.969 179.579 190.932 188.491 192.136C209.32 194.95 231.691 194.598 257.863 191.043ZM182.945 191.438C182.738 191.525 182.399 191.525 182.192 191.438C181.985 191.351 182.154 191.279 182.568 191.279C182.983 191.279 183.152 191.351 182.945 191.438ZM217.957 196.714C234.962 196.708 247.005 195.745 265.033 192.948C275.414 191.337 274.775 191.71 263.398 193.902C244.359 197.569 229.129 199.03 213.59 198.678C202.45 198.426 195.768 197.674 184.842 195.442C178.459 194.138 171.702 192.568 171.481 192.337C171.187 192.03 172.178 192.176 176.695 193.105C189.353 195.708 200.929 196.722 217.957 196.714ZM170.879 192.075C170.662 192.165 170.402 192.153 170.302 192.049L170.302 192.05C170.201 191.946 170.38 191.87 170.697 191.885C171.048 191.9 171.119 191.975 170.879 192.075ZM87.9987 151.763C86.7564 150.422 83.7747 147.435 81.3728 145.125C78.9709 142.816 76.9603 140.917 76.9052 140.906C76.8499 140.895 77.2512 141.488 77.7969 142.223C79.3163 144.271 82.3619 147.316 86.502 150.926L90.2576 154.202L87.9987 151.763ZM370.934 162.357C372.248 161.868 373.38 161.289 373.45 161.07V161.07C373.548 160.762 373.142 160.717 371.664 160.873C367.305 161.333 362.07 162.464 362.07 162.946C362.07 163.1 363.391 163.235 365.006 163.247C367.288 163.262 367.775 163.337 367.19 163.583C365.915 164.119 353.638 167.255 345.681 169.078C341.526 170.029 336.432 171.357 334.362 172.028C328.447 173.944 313.582 178.562 311.988 178.978C308.986 179.761 311.009 179.586 316.484 178.59C319.608 178.021 322.733 177.556 323.427 177.557C324.212 177.558 324.554 177.456 324.331 177.287C324.104 177.116 324.218 177.073 324.642 177.17C325.012 177.254 326.638 176.923 328.256 176.434C329.875 175.945 336.078 174.248 342.042 172.663C348.005 171.078 354.578 169.309 356.649 168.731C358.719 168.153 364.141 166.663 368.696 165.42C373.251 164.176 377.038 163.1 377.111 163.028C377.184 162.956 375.286 162.975 372.894 163.07L368.545 163.244L370.934 162.357Z" fill="#303030"/>
<path fill-rule="evenodd" clip-rule="evenodd" d="M556.138 100.114C550.441 91.4741 543.13 81.5514 537.159 74.5301C532.986 69.6232 524.987 61.1015 526.526 63.2027C527.096 63.9815 527.939 65.1484 528.4 65.796C528.86 66.4435 525.731 63.322 521.447 58.8593C505.67 42.424 491.476 31.3384 474.209 21.9647C432.91 -0.455394 384.916 -5.5618 323.765 5.95804C299.904 10.4531 280.306 15.6084 250.362 25.267C244.693 27.0955 239.961 28.5916 239.846 28.5916C239.731 28.5916 239.71 28.6681 239.799 28.7618C239.889 28.8554 243.673 27.9239 248.207 26.692C259.579 23.6027 279.051 18.5362 286.118 16.8278C300.001 13.472 321.297 8.95057 322.207 9.16574C322.484 9.23141 321.898 9.46194 320.904 9.67823C317.062 10.514 306.435 13.285 299.671 15.2145C289.623 18.0811 276.677 21.9846 276.489 22.205C276.402 22.3087 276.669 22.3031 277.083 22.1938C285.028 20.0951 307.493 14.8182 310.815 14.2706C312.887 13.929 312.16 14.3046 309.309 15.0487C303.581 16.5436 293.04 19.5676 293.152 19.6843C293.218 19.7531 294.135 19.6628 295.191 19.4837C297.642 19.0683 307.005 19.0681 309.756 19.4834C312.099 19.8371 313.977 20.6554 313.977 21.322C313.977 22.3976 312.123 23.0797 301.878 25.7724C284.752 30.274 267.911 35.2178 231.906 46.3142C226.026 48.1266 214.641 51.6174 206.608 54.0718C190.067 59.1241 188.011 59.7467 188.048 59.9197C188.055 59.9494 188.123 59.9659 188.19 59.9893C189.386 60.4058 205.873 56.2128 229.346 49.5219C248.856 43.9611 259.594 40.9463 264.015 39.7886C266.352 39.1766 268.52 38.581 268.834 38.4651C269.22 38.322 269.306 38.358 269.102 38.5773C268.936 38.7549 266.121 39.8582 262.846 41.0291C259.571 42.2 256.928 43.1945 256.973 43.2395C257.06 43.326 264.263 41.7003 269.554 40.4001C271.293 39.9727 275.63 38.7667 279.191 37.7201C289.757 34.6152 294.974 33.3378 301.027 32.3743C304.174 31.8733 312.577 30.4025 319.7 29.1058C339.83 25.4411 348.072 24.1819 359.455 23.0318C366.141 22.3564 383.325 22.2587 389.272 22.8623C400.198 23.9715 410.171 25.649 418.636 27.8018C423.604 29.0651 433.561 32.1534 433.139 32.3002C432.986 32.3537 431.184 31.8982 429.136 31.2881C419.983 28.5608 407.967 26.3414 396.65 25.2878C385.101 24.2123 367.899 24.3427 352.227 25.6245C325.434 27.8157 308.872 31.1336 271.971 41.7023C247.573 48.6899 237.102 51.5404 231.047 52.8432C229.497 53.1765 222.517 55.3691 215.536 57.7156C186.325 67.5339 164.882 73.8634 142.156 79.3756C109.063 87.4022 77.1907 92.0143 50.2966 92.6681C42.8198 92.8498 42.2726 92.9027 41.6377 93.5056C40.7623 94.337 40.752 95.8126 41.615 96.7723L42.2698 97.5005L51.0268 97.499C83.2301 97.493 116.354 92.2887 162.335 80.0105C172.802 77.2153 181.059 74.9138 205.102 68.0897C218.848 64.1881 243.717 57.5107 244.059 57.6297C244.244 57.6939 243.245 58.0675 241.84 58.4598C240.435 58.8521 231.967 61.3614 223.022 64.0362C177.264 77.7185 158.253 82.955 135.831 88.0525C105.418 94.9664 81.3107 98.3924 55.6163 99.4522L46.329 99.8353L47.0305 100.114H77.8573C90.7275 98.9894 105.972 96.8738 129.606 93.0833C140.616 91.316 142.734 91.0288 142.432 91.3346C142.144 91.6258 125.801 95.0398 119.116 96.2052C112.915 97.2861 94.8616 100.018 93.9184 100.018C93.8437 100.018 93.788 100.054 93.7557 100.114H533.59C529.633 94.3739 525.334 88.6003 521.101 83.4218C516.693 78.0296 505.271 65.9789 500.255 61.4296C470.75 34.6673 442.757 22.941 400.867 19.7959C394.596 19.325 382.541 18.8454 376.892 18.8419C374.225 18.8404 371.209 18.7479 370.191 18.6368C368.57 18.4598 368.34 18.3521 368.34 17.7715C368.34 17.1403 368.495 17.1076 371.577 17.0779C373.358 17.0611 377.187 16.8166 380.086 16.5349C387.558 15.8085 400.126 15.2793 404.029 15.5272C405.851 15.6431 408.562 15.7888 410.053 15.8512C417.058 16.145 427.273 18.0852 435.908 20.7617C439.546 21.8895 437.875 21.6955 432.773 20.3978C427.16 18.9699 417.647 17.0816 414.721 16.814C413.541 16.7062 414.816 17.0593 417.932 17.7034C438.749 22.0059 456.383 28.4728 472.547 37.7319C474.121 38.6333 475.273 39.2243 475.107 39.0452C474.695 38.5998 467.949 34.6895 464.265 32.761C460.569 30.8262 454.444 27.9972 449.125 25.7685C446.928 24.8476 445.177 24.0444 445.235 23.9839C445.293 23.9233 446.876 24.4457 448.752 25.145C479.346 36.5465 505.208 56.3454 527.2 85.2001C530.178 89.108 534.764 95.7237 537.602 100.114H551.65C547.171 93.1418 541.464 84.6139 535.25 75.6388C530.5 68.7796 530.406 68.3339 534.882 73.9023C541.149 81.6991 548.019 91.3658 553.606 100.114H556.138ZM0.219147 184.831V181.92C0.0566382 182.04 3.05176e-05 182.363 3.05176e-05 182.909C3.05176e-05 183.19 0.0777421 183.857 0.219147 184.831ZM537.153 100.114C534.157 95.672 531.433 91.7805 531.204 91.6327C530.85 91.4042 530.851 91.4067 533.034 94.8263C533.918 96.2108 535.101 98.2007 535.662 99.2483C535.784 99.4758 535.963 99.7708 536.184 100.114H537.153ZM530.448 90.5383C529.971 90.1471 529.96 90.1582 530.335 90.6573C530.562 90.9599 530.799 91.2078 530.862 91.2078C531.11 91.2078 530.95 90.9494 530.448 90.5383ZM512.378 69.1423C511.9 68.7511 511.889 68.7622 512.264 69.2613C512.492 69.5639 512.729 69.8118 512.791 69.8118C513.039 69.8118 512.879 69.5534 512.378 69.1423ZM508.538 65.2495L509.576 66.4295C510.146 67.0784 510.655 67.6094 510.705 67.6094C510.935 67.6094 510.718 67.3431 509.667 66.3338L508.538 65.2495ZM506.354 63.1641C505.876 62.7728 505.866 62.7839 506.24 63.283C506.468 63.5856 506.705 63.8335 506.768 63.8335C507.016 63.8335 506.856 63.5751 506.354 63.1641ZM412.387 16.4282C412.18 16.3408 411.841 16.3408 411.634 16.4282C411.427 16.5155 411.596 16.5868 412.01 16.5868C412.425 16.5868 412.594 16.5155 412.387 16.4282ZM410.724 16.1331C410.624 16.0271 410.364 16.016 410.147 16.1071L410.147 16.1085C409.907 16.2089 409.978 16.2836 410.329 16.2984C410.646 16.3118 410.824 16.2375 410.724 16.1331ZM258.052 53.5489C258.27 53.4593 258.53 53.4705 258.63 53.5749L258.63 53.5738C258.73 53.6786 258.552 53.754 258.234 53.7391C257.884 53.7239 257.812 53.6492 258.052 53.5489ZM274.185 49.5318C278.472 48.3857 282.023 47.494 282.077 47.5503L274.185 49.5318ZM282.077 47.5503C282.131 47.6064 279.93 48.3984 277.186 49.3099L282.077 47.5503ZM277.186 49.3099C274.442 50.2214 272.251 51.0242 272.318 51.0939L277.186 49.3099ZM272.318 51.0939C272.384 51.1638 273.992 50.7472 275.89 50.1681L272.318 51.0939ZM275.89 50.1681C277.789 49.5892 282.662 48.1066 286.721 46.8735L275.89 50.1681ZM286.721 46.8735C294.605 44.4779 295.382 44.2092 293.497 44.5293L286.721 46.8735ZM293.497 44.5293C292.835 44.6419 291.75 44.7641 291.088 44.8013L293.497 44.5293ZM291.088 44.8013C289.609 44.8838 261.528 52.2923 259.551 53.1217L291.088 44.8013ZM259.551 53.1217C258.271 53.6586 259.448 53.4532 262.928 52.5322L259.551 53.1217ZM300.575 42.7869C301.175 42.3356 300.84 42.3526 298.811 42.8768L298.81 42.8769C295.871 43.6362 295.299 43.7528 295.488 43.5559C295.838 43.1898 302.891 41.1295 312.772 38.5064C358.601 26.3404 395.14 24.22 429.026 31.76C434.902 33.0674 436.651 33.5682 438.212 34.3904C438.957 34.7829 440.558 35.4953 441.768 35.9735C442.978 36.4517 443.92 36.8938 443.861 36.9558C443.801 37.018 442.879 36.7888 441.811 36.4465C435.591 34.4535 423.172 31.445 415.97 30.187C406.46 28.5256 399.306 27.9669 387.52 27.9652C372.558 27.9631 359.785 29.2773 341.823 32.6668C333.459 34.2451 313.381 38.979 314.055 39.2138C314.224 39.2727 315.278 39.0992 316.397 38.8279C317.516 38.557 318.487 38.3927 318.555 38.4637C318.695 38.6102 310.419 40.7277 304.809 41.9808C302.749 42.441 300.851 42.8868 300.593 42.972C300.181 43.1072 300.179 43.0846 300.575 42.7869ZM301.999 42.2488C301.899 42.1429 301.639 42.1317 301.422 42.2228L301.422 42.2239C301.182 42.3246 301.253 42.3993 301.604 42.4142C301.921 42.4275 302.099 42.3532 301.999 42.2488ZM342.137 8.95656C334.739 9.96133 323.112 11.8774 320.302 12.555C319.139 12.8356 316.978 12.9404 317.591 12.6866C319.42 11.9296 339.844 7.87055 347.502 6.74217C370.242 3.39133 385.936 3.3061 406.138 6.42371C416.555 8.03116 420.421 9.06799 411.509 7.86391C390.68 5.04992 368.309 5.40232 342.137 8.95656ZM417.055 8.56211C417.262 8.47477 417.601 8.47477 417.808 8.56211C418.015 8.64944 417.846 8.72077 417.432 8.72077C417.017 8.72077 416.848 8.64944 417.055 8.56211ZM382.043 3.28553C365.038 3.29188 352.995 4.25537 334.967 7.05219C324.586 8.66257 325.225 8.29018 336.603 6.09841C355.641 2.43094 370.871 0.97048 386.41 1.32204C397.55 1.57412 404.232 2.32628 415.158 4.55807C421.541 5.8619 428.298 7.43216 428.519 7.66294C428.813 7.96991 427.823 7.82403 423.305 6.89491C410.647 4.29179 399.071 3.27809 382.043 3.28553ZM429.121 7.92504C429.339 7.83548 429.598 7.84664 429.698 7.95107L429.698 7.94956C429.799 8.05436 429.62 8.12981 429.303 8.11495C428.952 8.10008 428.881 8.02538 429.121 7.92504ZM512.001 48.2366C513.244 49.5778 516.225 52.5649 518.627 54.8745C521.029 57.1842 523.04 59.0828 523.095 59.094C523.15 59.105 522.749 58.5122 522.203 57.7767C520.684 55.7293 517.638 52.6843 513.498 49.0735L509.742 45.798L512.001 48.2366ZM229.066 37.6435C227.753 38.1315 226.62 38.7107 226.55 38.9303V38.9295C226.452 39.2383 226.858 39.2833 228.336 39.1272C232.695 38.6674 237.93 37.5362 237.93 37.0541C237.93 36.8999 236.609 36.7646 234.994 36.7534C232.712 36.7382 232.225 36.6631 232.81 36.4171C234.085 35.8809 246.363 32.7446 254.319 30.9223C258.474 29.9706 263.568 28.643 265.638 27.972C271.553 26.0555 286.418 21.4377 288.012 21.0219C291.014 20.2388 288.991 20.4136 283.516 21.4103C280.392 21.979 277.267 22.4437 276.573 22.4429C275.788 22.4422 275.446 22.5443 275.669 22.7127C275.896 22.884 275.782 22.9275 275.358 22.8305C274.989 22.7461 273.362 23.0772 271.744 23.5662C270.125 24.0553 263.922 25.752 257.958 27.3369C251.995 28.9217 245.422 30.6911 243.351 31.2688C241.281 31.8466 235.859 33.3366 231.304 34.5801C226.749 35.8236 222.962 36.9 222.889 36.9721C222.816 37.0441 224.714 37.0252 227.106 36.9297L231.455 36.7561L229.066 37.6435Z" fill="#303030"/>
</svg>
