<svg width="40" height="41" viewBox="0 0 40 41" fill="none" xmlns="http://www.w3.org/2000/svg">
<path d="M7.16057 36.156C7.09724 36.0753 7.09904 36.0735 7.1798 36.1368C7.2288 36.1753 7.2689 36.2153 7.2689 36.2259C7.2689 36.2678 7.22708 36.2409 7.16057 36.156L7.16057 36.156ZM32.675 36.2259C32.675 36.2154 32.7151 36.1752 32.7641 36.1368C32.8449 36.0735 32.8467 36.0753 32.7833 36.156C32.7168 36.2408 32.675 36.2678 32.675 36.2259H32.675ZM31.925 35.9044C31.9745 35.8915 32.0433 35.8923 32.0777 35.9065C32.1122 35.9204 32.0717 35.931 31.9877 35.9299C31.9037 35.9291 31.8755 35.9175 31.925 35.9045V35.9044ZM32.3822 35.9031C32.4593 35.8914 32.5853 35.8914 32.6623 35.9031C32.7393 35.9148 32.6763 35.9243 32.5223 35.9243C32.3682 35.9243 32.3052 35.9148 32.3822 35.9031ZM6.22276 35.3159L6.0215 35.0995L6.23789 35.3008C6.3569 35.4115 6.45427 35.5088 6.45427 35.5172C6.45427 35.5557 6.40993 35.5171 6.22276 35.3159ZM5.38122 34.4758L5.25779 34.3358L5.39781 34.4592C5.47481 34.5271 5.53782 34.5901 5.53782 34.5992C5.53782 34.6392 5.49659 34.6067 5.38122 34.4758ZM4.92036 33.9667C4.85703 33.8859 4.85883 33.8841 4.93958 33.9475C4.98858 33.9859 5.02868 34.026 5.02868 34.0366C5.02868 34.0785 4.98687 34.0515 4.92035 33.9667L4.92036 33.9667ZM25.7713 33.0757L25.6743 32.9611L25.7889 33.0581C25.8519 33.1115 25.9034 33.163 25.9034 33.1727C25.9034 33.2134 25.8624 33.1833 25.7713 33.0757ZM25.4896 32.7447C25.4263 32.664 25.4281 32.6622 25.5089 32.7255C25.5579 32.764 25.5979 32.804 25.5979 32.8146C25.5979 32.8565 25.5561 32.8296 25.4896 32.7447L25.4896 32.7447ZM32.5127 31.8317C32.5495 31.817 32.5934 31.8188 32.6103 31.8359C32.6272 31.8528 32.5972 31.8648 32.5435 31.8626C32.4842 31.8601 32.4721 31.8481 32.5127 31.8319L32.5127 31.8317ZM34.7116 31.0773C34.7773 31.0073 34.8426 30.95 34.8566 30.95C34.8706 30.95 34.8283 31.0073 34.7625 31.0773C34.6967 31.1473 34.6314 31.2046 34.6174 31.2046C34.6035 31.2046 34.6458 31.1473 34.7116 31.0773ZM35.3354 29.499C35.3358 29.387 35.3464 29.3471 35.3585 29.4105C35.3707 29.4738 35.3703 29.5654 35.3577 29.6141C35.345 29.6628 35.335 29.6108 35.3355 29.499H35.3354ZM35.3265 29.0874C35.3291 29.0281 35.341 29.016 35.3573 29.0566C35.372 29.0934 35.3702 29.1373 35.3531 29.1542C35.3362 29.1711 35.3242 29.1411 35.3264 29.0874L35.3265 29.0874ZM27.8317 24.344C27.7683 24.2632 27.7701 24.2614 27.8509 24.3248C27.8999 24.3632 27.94 24.4033 27.94 24.4139C27.94 24.4558 27.8982 24.4288 27.8317 24.344H27.8317ZM0.246777 24.1997C0.249206 24.1404 0.261286 24.1283 0.27754 24.1689C0.292249 24.2057 0.290439 24.2496 0.27352 24.2665C0.2566 24.2834 0.244567 24.2534 0.246777 24.1997V24.1997ZM39.7052 23.9452C39.7077 23.8858 39.7197 23.8738 39.7359 23.9144C39.7506 23.9511 39.7488 23.995 39.7318 24.012C39.7148 24.0289 39.7028 23.9988 39.705 23.9451L39.7052 23.9452ZM39.7561 23.5888C39.7586 23.5294 39.7706 23.5174 39.7868 23.558C39.8015 23.5947 39.7997 23.6386 39.7827 23.6556C39.7658 23.6725 39.7537 23.6424 39.7559 23.5887L39.7561 23.5888ZM39.807 23.1814C39.8095 23.1221 39.8215 23.1101 39.8378 23.1507C39.8525 23.1874 39.8507 23.2313 39.8336 23.2483C39.8167 23.2652 39.8046 23.2351 39.8068 23.1814L39.807 23.1814ZM0.0940349 23.1305C0.0964634 23.0712 0.108543 23.0592 0.124797 23.0998C0.139506 23.1365 0.137699 23.1804 0.120779 23.1973C0.103859 23.2143 0.0918241 23.1842 0.0940349 23.1305V23.1305ZM39.8579 22.6723C39.8604 22.613 39.8724 22.6009 39.8887 22.6415C39.9034 22.6783 39.9016 22.7222 39.8845 22.7391C39.8676 22.756 39.8555 22.726 39.8577 22.6723L39.8579 22.6723ZM0.0490283 22.5747C0.0500751 22.4907 0.0614757 22.4625 0.0743843 22.512C0.0872929 22.5616 0.0864423 22.6303 0.0724995 22.6648C0.0585526 22.6992 0.0479942 22.6587 0.0490283 22.5747ZM39.9147 22.1674C39.9156 22.0834 39.9272 22.0552 39.9401 22.1047C39.953 22.1543 39.9522 22.223 39.938 22.2575C39.9241 22.2919 39.9135 22.2514 39.9146 22.1674H39.9147ZM0 22.0401C0 21.9421 0.0104762 21.902 0.0232843 21.951C0.0360924 22 0.0360924 22.0802 0.0232843 22.1292C0.0104762 22.1782 0 22.1381 0 22.0401ZM26.0642 20.7164C26.0642 20.6463 26.0758 20.6177 26.0899 20.6527C26.104 20.6877 26.104 20.745 26.0899 20.78C26.0758 20.815 26.0642 20.7864 26.0642 20.7164ZM39.9638 20.6654C39.9638 20.5954 39.9753 20.5668 39.9894 20.6018C40.0035 20.6368 40.0035 20.6941 39.9894 20.7291C39.9753 20.7641 39.9638 20.7354 39.9638 20.6654ZM26.0216 19.8508C26.0216 19.6688 26.0308 19.5943 26.0421 19.6853C26.0534 19.7764 26.0534 19.9253 26.0421 20.0163C26.0308 20.1073 26.0216 20.0328 26.0216 19.8508ZM30.2352 19.6175C30.2377 19.5582 30.2496 19.5461 30.2659 19.5867C30.2806 19.6235 30.2788 19.6674 30.2617 19.6843C30.2448 19.7012 30.2328 19.6711 30.235 19.6175L30.2352 19.6175ZM39.9088 19.5156C39.9113 19.4563 39.9233 19.4443 39.9396 19.4849C39.9543 19.5216 39.9525 19.5655 39.9354 19.5824C39.9185 19.5994 39.9064 19.5693 39.9087 19.5156L39.9088 19.5156ZM0.0471404 18.9344C0.0471404 18.8644 0.0586977 18.8357 0.0728206 18.8707C0.0869434 18.9057 0.0869434 18.963 0.0728206 18.998C0.0586977 19.033 0.0471404 19.0044 0.0471404 18.9344ZM26.0642 18.9344C26.0642 18.8644 26.0758 18.8357 26.0899 18.8707C26.104 18.9057 26.104 18.963 26.0899 18.998C26.0758 19.033 26.0642 19.0044 26.0642 18.9344ZM39.8638 18.9089C39.8647 18.8249 39.8762 18.7967 39.8892 18.8462C39.9021 18.8958 39.9012 18.9645 39.8871 18.999C39.8731 19.0334 39.8626 18.9929 39.8636 18.9089H39.8638ZM26.1111 18.4974C26.1136 18.438 26.1256 18.426 26.1419 18.4666C26.1566 18.5033 26.1548 18.5472 26.1377 18.5642C26.1208 18.5811 26.1088 18.551 26.1109 18.4973L26.1111 18.4974ZM0.0940349 18.4464C0.0964634 18.3871 0.108543 18.3751 0.124797 18.4157C0.139506 18.4524 0.137699 18.4963 0.120779 18.5133C0.103859 18.5302 0.0918241 18.5001 0.0940349 18.4464V18.4464ZM34.4793 18.3616L34.3297 18.1961L34.4952 18.3456C34.5862 18.4279 34.6607 18.5024 34.6607 18.5111C34.6607 18.5504 34.6186 18.5158 34.4793 18.3616ZM39.807 18.4464C39.8095 18.3871 39.8215 18.3751 39.8378 18.4157C39.8525 18.4524 39.8507 18.4963 39.8336 18.5133C39.8167 18.5302 39.8046 18.5001 39.8068 18.4464L39.807 18.4464ZM30.7657 18.2725C30.8164 18.2165 30.8693 18.1707 30.8833 18.1707C30.8973 18.1707 30.8673 18.2165 30.8166 18.2725C30.766 18.3285 30.713 18.3743 30.699 18.3743C30.685 18.3743 30.715 18.3285 30.7657 18.2725ZM0.14495 18.0391C0.147378 17.9798 0.159458 17.9677 0.175712 18.0084C0.190421 18.0451 0.188612 18.089 0.171692 18.1059C0.154772 18.1229 0.142739 18.0928 0.14495 18.0391V18.0391ZM39.7561 17.9882C39.7586 17.9289 39.7706 17.9168 39.7868 17.9574C39.8015 17.9942 39.7997 18.0381 39.7827 18.055C39.7658 18.0719 39.7537 18.0419 39.7559 17.9882L39.7561 17.9882ZM32.2072 17.5758C32.244 17.5611 32.2879 17.5629 32.3048 17.58C32.3217 17.5969 32.2917 17.609 32.238 17.6068C32.1787 17.6042 32.1666 17.5923 32.2072 17.576L32.2072 17.5758ZM32.8182 17.5758C32.855 17.5611 32.8989 17.5629 32.9158 17.58C32.9327 17.5969 32.9026 17.609 32.849 17.6068C32.7896 17.6042 32.7776 17.5923 32.8182 17.576L32.8182 17.5758ZM0.297692 17.1227C0.30012 17.0634 0.312199 17.0513 0.328453 17.0919C0.343162 17.1287 0.341354 17.1726 0.324434 17.1895C0.307515 17.2064 0.295481 17.1763 0.297692 17.1227V17.1227ZM27.8127 14.9631C27.9221 14.8511 28.023 14.7594 28.037 14.7594C28.051 14.7594 27.973 14.8511 27.8636 14.9631C27.7542 15.0751 27.6533 15.1667 27.6393 15.1667C27.6253 15.1667 27.7033 15.0751 27.8127 14.9631ZM10.7143 14.0593C13.0433 14.052 16.8695 14.052 19.2169 14.0593C21.5644 14.0667 19.6588 14.0727 14.9824 14.0727C10.3059 14.0727 8.38529 14.0667 10.7143 14.0593ZM32.8182 13.5027C32.855 13.488 32.8989 13.4898 32.9158 13.5069C32.9327 13.5238 32.9026 13.5359 32.849 13.5336C32.7896 13.5311 32.7776 13.5191 32.8182 13.5029L32.8182 13.5027ZM32.255 13.4528C32.29 13.4387 32.3472 13.4387 32.3822 13.4528C32.4173 13.4669 32.3886 13.4785 32.3186 13.4785C32.2486 13.4785 32.22 13.4669 32.255 13.4528ZM4.51954 8.07044C4.51954 8.05989 4.55963 8.01978 4.60864 7.98135C4.68939 7.91802 4.69119 7.91982 4.62786 8.00056C4.56135 8.08538 4.51954 8.11234 4.51954 8.07044L4.51954 8.07044ZM4.82502 7.71405C4.82502 7.70345 4.86512 7.66338 4.91412 7.62495C4.99487 7.56162 4.99668 7.56342 4.93335 7.64417C4.86683 7.72898 4.82502 7.75595 4.82502 7.71404V7.71405ZM34.5819 7.16049L34.3806 6.9441L34.597 7.14537C34.716 7.25606 34.8134 7.35343 34.8134 7.36175C34.8134 7.40027 34.7691 7.36172 34.5819 7.16049ZM5.35962 7.1223C5.469 7.01029 5.56994 6.91865 5.58394 6.91865C5.59794 6.91865 5.51991 7.01029 5.41053 7.1223C5.30116 7.23431 5.20021 7.32596 5.18621 7.32596C5.17221 7.32596 5.25024 7.23431 5.35962 7.1223ZM6.22516 6.25677C6.33453 6.14475 6.43548 6.05311 6.44948 6.05311C6.46348 6.05311 6.38545 6.14475 6.27607 6.25677C6.1667 6.36878 6.06575 6.46042 6.05175 6.46042C6.03775 6.46042 6.11578 6.36878 6.22516 6.25677ZM33.5628 6.14221L33.4133 5.97674L33.5787 6.12628C33.6697 6.20852 33.7442 6.28299 33.7442 6.29175C33.7442 6.33106 33.7022 6.29644 33.5628 6.14221ZM6.70884 5.83023C6.70884 5.81968 6.74894 5.77956 6.79794 5.74113C6.87869 5.6778 6.8805 5.6796 6.81717 5.76035C6.75065 5.84515 6.70884 5.87213 6.70884 5.83022V5.83023ZM33.0758 5.70944C33.0125 5.62869 33.0143 5.62689 33.095 5.69022C33.1799 5.75673 33.2068 5.79854 33.1649 5.79854C33.1543 5.79854 33.1143 5.75843 33.0758 5.70944L33.0758 5.70944Z" fill="#0078CF"/>
<path d="M31.6704 35.9042C31.72 35.8913 31.7887 35.8922 31.8232 35.9063C31.8576 35.9203 31.8171 35.9308 31.7331 35.9298C31.6491 35.9289 31.6209 35.9173 31.6704 35.9044V35.9042ZM32.815 35.9059C32.85 35.8918 32.9073 35.8918 32.9423 35.9059C32.9773 35.92 32.9487 35.9316 32.8787 35.9316C32.8087 35.9316 32.78 35.92 32.815 35.9059ZM13.853 35.4942C14.492 35.4861 15.523 35.4861 16.1441 35.4942C16.7653 35.5023 16.2425 35.5089 14.9824 35.5089C13.7223 35.5089 13.214 35.5023 13.853 35.4941V35.4942ZM5.84056 34.9341L5.6651 34.7431L5.85603 34.9186C5.96104 35.0151 6.04696 35.101 6.04696 35.1095C6.04696 35.1484 6.00387 35.1116 5.84056 34.9341ZM4.66578 33.6612C4.60245 33.5805 4.60426 33.5787 4.68501 33.642C4.73401 33.6804 4.77411 33.7205 4.77411 33.7311C4.77411 33.773 4.7323 33.746 4.66578 33.6612V33.6612ZM32.2814 31.8312C32.3309 31.8183 32.3997 31.8191 32.4341 31.8333C32.4686 31.8472 32.4281 31.8578 32.3441 31.8567C32.2601 31.8559 32.2318 31.8443 32.2814 31.8314V31.8312ZM29.6646 30.9119C29.6013 30.8311 29.6031 30.8293 29.6838 30.8926C29.7328 30.9311 29.7729 30.9712 29.7729 30.9817C29.7729 31.0236 29.7311 30.9967 29.6646 30.9119L29.6646 30.9119ZM29.1554 30.4027C29.0921 30.322 29.0939 30.3202 29.1747 30.3835C29.2237 30.4219 29.2638 30.462 29.2638 30.4726C29.2638 30.5145 29.2219 30.4875 29.1554 30.4027L29.1554 30.4027ZM35.2756 29.8511C35.2782 29.7918 35.2901 29.7798 35.3064 29.8204C35.3211 29.8571 35.3193 29.901 35.3022 29.918C35.2853 29.9349 35.2733 29.9048 35.2755 29.8511L35.2756 29.8511ZM35.3266 29.2402C35.3291 29.1809 35.341 29.1688 35.3573 29.2094C35.372 29.2462 35.3702 29.2901 35.3531 29.307C35.3362 29.3239 35.3242 29.2938 35.3264 29.2402L35.3266 29.2402ZM34.6542 28.1116C34.5908 28.0308 34.5926 28.029 34.6734 28.0924C34.7582 28.1589 34.7852 28.2007 34.7432 28.2007C34.7327 28.2007 34.6926 28.1606 34.6541 28.1116H34.6542ZM38.6017 25.2349L38.5047 25.1204L38.6192 25.2174C38.6822 25.2707 38.7338 25.3223 38.7338 25.3319C38.7338 25.3727 38.6928 25.3426 38.6017 25.2349ZM38.3226 24.9549L38.1992 24.8149L38.3392 24.9383C38.4162 25.0062 38.4792 25.0692 38.4792 25.0783C38.4792 25.1183 38.438 25.0858 38.3226 24.9549ZM27.4539 24.013L27.2527 23.7966L27.469 23.9979C27.6703 24.185 27.7088 24.2294 27.6703 24.2294C27.662 24.2294 27.5646 24.132 27.4539 24.013ZM0.14495 23.436C0.147378 23.3767 0.159458 23.3646 0.175712 23.4052C0.190421 23.442 0.188612 23.4859 0.171692 23.5028C0.154772 23.5197 0.142739 23.4896 0.14495 23.436V23.436ZM39.807 23.0287C39.8095 22.9693 39.8215 22.9573 39.8378 22.9979C39.8525 23.0346 39.8507 23.0786 39.8336 23.0955C39.8167 23.1124 39.8046 23.0823 39.8068 23.0286L39.807 23.0287ZM39.8619 22.4983C39.8619 22.4283 39.8735 22.3997 39.8876 22.4347C39.9017 22.4697 39.9017 22.5269 39.8876 22.562C39.8735 22.597 39.8619 22.5683 39.8619 22.4983ZM39.9147 21.811C39.9156 21.727 39.9272 21.6988 39.9401 21.7483C39.953 21.7978 39.9522 21.8666 39.938 21.901C39.9241 21.9355 39.9135 21.895 39.9146 21.811H39.9147ZM0 21.7346C0 21.6366 0.0104762 21.5965 0.0232843 21.6455C0.0360924 21.6945 0.0360924 21.7747 0.0232843 21.8237C0.0104762 21.8727 0 21.8326 0 21.7346ZM30.8903 20.9836L30.7148 20.7927L30.9057 20.9681C31.0108 21.0646 31.0967 21.1506 31.0967 21.1591C31.0967 21.198 31.0536 21.1612 30.8903 20.9836ZM26.0602 20.8903C26.0627 20.831 26.0747 20.8189 26.091 20.8595C26.1057 20.8963 26.1039 20.9402 26.0868 20.9571C26.0699 20.974 26.0579 20.9439 26.06 20.8903L26.0602 20.8903ZM26.0171 20.309C26.0171 20.211 26.0275 20.1709 26.0404 20.2199C26.0532 20.2689 26.0532 20.3491 26.0404 20.3981C26.0275 20.4471 26.0171 20.407 26.0171 20.309ZM0.00205563 19.7999C0.00205563 19.6738 0.0119831 19.6223 0.0241213 19.6853C0.0362553 19.7483 0.0362553 19.8514 0.0241213 19.9144C0.0119873 19.9774 0.00205563 19.9259 0.00205563 19.7999ZM39.9147 19.7235C39.9156 19.6395 39.9272 19.6113 39.9401 19.6608C39.953 19.7104 39.9522 19.7791 39.938 19.8136C39.9241 19.848 39.9135 19.8075 39.9146 19.7235H39.9147ZM26.0181 19.3671C26.0185 19.2551 26.0291 19.2153 26.0413 19.2786C26.0534 19.3419 26.053 19.4336 26.0404 19.4822C26.0277 19.5309 26.0177 19.4793 26.0183 19.3671H26.0181ZM0.0471404 19.138C0.0471404 19.068 0.0586977 19.0393 0.0728206 19.0743C0.0869434 19.1093 0.0869434 19.1666 0.0728206 19.2016C0.0586977 19.2366 0.0471404 19.208 0.0471404 19.138ZM39.8579 19.1082C39.8604 19.0489 39.8724 19.0368 39.8887 19.0774C39.9034 19.1142 39.9016 19.1581 39.8845 19.175C39.8676 19.1919 39.8555 19.1618 39.8577 19.1082L39.8579 19.1082ZM26.0602 18.7518C26.0627 18.6925 26.0747 18.6804 26.091 18.721C26.1057 18.7578 26.1039 18.8017 26.0868 18.8186C26.0699 18.8355 26.0579 18.8054 26.06 18.7517L26.0602 18.7518ZM0.0940349 18.599C0.0964634 18.5397 0.108543 18.5276 0.124797 18.5682C0.139506 18.605 0.137699 18.6489 0.120779 18.6658C0.103859 18.6827 0.0918241 18.6527 0.0940349 18.599V18.599ZM34.1959 18.1323C34.1326 18.0516 34.1344 18.0498 34.2151 18.1131C34.3 18.1796 34.3269 18.2214 34.285 18.2214C34.2745 18.2214 34.2344 18.1813 34.1959 18.1323H34.1959ZM6.47745 16.083C6.47745 14.9769 6.48417 14.5244 6.49239 15.0775C6.50061 15.6305 6.50061 16.5355 6.49239 17.0886C6.48417 17.6416 6.47745 17.1891 6.47745 16.083ZM23.4827 16.083C23.4827 14.9769 23.4895 14.5244 23.4977 15.0775C23.5059 15.6305 23.5059 16.5355 23.4977 17.0886C23.4895 17.6416 23.4827 17.1891 23.4827 16.083ZM32.4339 17.5739C32.5113 17.5622 32.6258 17.5625 32.6884 17.5747C32.7511 17.5869 32.6876 17.5964 32.5477 17.596C32.4077 17.5956 32.3565 17.5858 32.4339 17.574V17.5739ZM38.1973 15.9685L37.9446 15.7012L38.2119 15.9538C38.4603 16.1886 38.5026 16.2358 38.4646 16.2358C38.4565 16.2358 38.3362 16.1155 38.1973 15.9685ZM4.67228 7.91755C4.67228 7.907 4.71237 7.86688 4.76138 7.82845C4.84213 7.76512 4.84393 7.76692 4.7806 7.84767C4.71409 7.93247 4.67228 7.95945 4.67228 7.91754L4.67228 7.91755ZM34.9087 7.54219C34.8454 7.46144 34.8472 7.45964 34.9279 7.52297C35.0128 7.58948 35.0397 7.63129 34.9978 7.63129C34.9873 7.63129 34.9472 7.59118 34.9087 7.54219L34.9087 7.54219ZM4.97776 7.56116C4.97776 7.55061 5.01786 7.51049 5.06686 7.47206C5.14762 7.40872 5.14942 7.41053 5.08609 7.49128C5.01957 7.57609 4.97776 7.60306 4.97776 7.56115V7.56116ZM34.1241 6.70211L33.8715 6.43481L34.1388 6.68747C34.3872 6.92224 34.4294 6.96941 34.3914 6.96941C34.3834 6.96941 34.2631 6.84912 34.1241 6.70211ZM5.79026 6.70211C5.9151 6.5691 6.02393 6.46027 6.0321 6.46027C6.07034 6.46027 6.02993 6.50598 5.80512 6.71697L5.56327 6.94395L5.79026 6.70211Z" fill="#0078CF"/>
<path d="M31.4403 35.9058C31.4753 35.8917 31.5326 35.8917 31.5676 35.9058C31.6026 35.9199 31.574 35.9314 31.504 35.9314C31.434 35.9314 31.4053 35.9199 31.4403 35.9058ZM6.54961 35.5958C6.48628 35.5151 6.48808 35.5133 6.56883 35.5766C6.65364 35.6431 6.68061 35.6849 6.63871 35.6849C6.62814 35.6849 6.58804 35.6448 6.54961 35.5958V35.5958ZM12.6907 26.775C12.6907 21.9725 12.6967 20.0079 12.704 22.4091C12.7113 24.8103 12.7113 28.7396 12.704 31.1409C12.6967 33.5421 12.6907 31.5774 12.6907 26.775ZM17.2729 26.775C17.2729 21.9725 17.2789 20.0079 17.2862 22.4091C17.2936 24.8103 17.2936 28.7396 17.2862 31.1409C17.2789 33.5421 17.2729 31.5774 17.2729 26.775ZM5.17757 34.2212L5.05414 34.0811L5.19415 34.2046C5.32502 34.3199 5.35752 34.3612 5.31758 34.3612C5.30847 34.3612 5.24546 34.2982 5.17757 34.2212ZM26.7116 34.0175C26.6482 33.9367 26.65 33.9349 26.7308 33.9983C26.7798 34.0367 26.8199 34.0768 26.8199 34.0874C26.8199 34.1293 26.7781 34.1023 26.7116 34.0175H26.7116ZM4.81853 33.8138C4.7552 33.7331 4.757 33.7313 4.83775 33.7946C4.92256 33.8611 4.94953 33.9029 4.90763 33.9029C4.89706 33.9029 4.85696 33.8628 4.81853 33.8138V33.8138ZM26.1054 33.4574L25.8271 33.1647L26.1198 33.443C26.3918 33.7015 26.4359 33.7502 26.3981 33.7502C26.3902 33.7502 26.2584 33.6185 26.1054 33.4574ZM4.30939 33.2029C4.24606 33.1221 4.24786 33.1203 4.32861 33.1836C4.41342 33.2502 4.44039 33.292 4.39849 33.292C4.38792 33.292 4.34782 33.2519 4.30939 33.2029V33.2029ZM31.8986 31.8304C31.9616 31.8183 32.0647 31.8183 32.1277 31.8304C32.1907 31.8426 32.1392 31.8525 32.0131 31.8525C31.8871 31.8525 31.8356 31.8426 31.8986 31.8304ZM29.4138 30.6572L29.2383 30.4662L29.4292 30.6417C29.607 30.805 29.6436 30.8481 29.6047 30.8481C29.5962 30.8481 29.5103 30.7622 29.4138 30.6572ZM35.2756 29.6983C35.2782 29.639 35.2901 29.6269 35.3064 29.6675C35.3211 29.7043 35.3193 29.7482 35.3022 29.7651C35.2853 29.782 35.2733 29.7519 35.2755 29.6983L35.2756 29.6983ZM34.8866 28.3406L34.737 28.1751L34.9025 28.3246C35.0567 28.464 35.0914 28.506 35.052 28.506C35.0433 28.506 34.9688 28.4316 34.8866 28.3406ZM39.0328 25.7185C38.9694 25.6377 38.9712 25.6359 39.052 25.6993C39.101 25.7377 39.1411 25.7778 39.1411 25.7884C39.1411 25.8303 39.0993 25.8033 39.0328 25.7185ZM38.8053 25.4385L38.7083 25.3239L38.8229 25.4209C38.8859 25.4743 38.9374 25.5258 38.9374 25.5355C38.9374 25.5762 38.8965 25.5461 38.8053 25.4385ZM38.0925 24.7257L37.9955 24.6111L38.1101 24.7081C38.1731 24.7615 38.2246 24.813 38.2246 24.8227C38.2246 24.8634 38.1837 24.8333 38.0925 24.7257ZM27.146 23.7074L27.049 23.5928L27.1636 23.6898C27.2266 23.7432 27.2781 23.7947 27.2781 23.8044C27.2781 23.8451 27.2371 23.8151 27.146 23.7074ZM39.7561 23.334C39.7586 23.2747 39.7706 23.2627 39.7869 23.3033C39.8016 23.34 39.7998 23.3839 39.7827 23.4008C39.7658 23.4178 39.7537 23.3877 39.7559 23.334L39.7561 23.334ZM0.144953 23.2831C0.147381 23.2238 0.159461 23.2117 0.175715 23.2523C0.190424 23.2891 0.188615 23.333 0.171695 23.3499C0.154775 23.3668 0.142742 23.3368 0.144953 23.2831V23.2831ZM0.0431251 22.2648C0.0455536 22.2055 0.057632 22.1935 0.073886 22.2341C0.088595 22.2708 0.0867872 22.3147 0.0698674 22.3316C0.0529476 22.3486 0.0409143 22.3185 0.0431251 22.2648V22.2648ZM39.9147 21.5563C39.9156 21.4723 39.9272 21.4441 39.9401 21.4936C39.953 21.5431 39.9522 21.6119 39.938 21.6463C39.9241 21.6808 39.9135 21.6403 39.9146 21.5563H39.9147ZM0.00396758 21.3017C0.00425272 21.1337 0.0137566 21.0711 0.0250909 21.1626C0.0364209 21.2541 0.0361916 21.3916 0.0245893 21.4681C0.0129703 21.5446 0.00370044 21.4698 0.00398515 21.3017H0.00396758ZM26.0602 21.0429C26.0627 20.9836 26.0747 20.9715 26.091 21.0121C26.1057 21.0489 26.1039 21.0928 26.0868 21.1097C26.0699 21.1266 26.0579 21.0966 26.06 21.0429L26.0602 21.0429ZM26.0093 20.5338C26.0118 20.4744 26.0238 20.4624 26.0401 20.503C26.0548 20.5397 26.053 20.5836 26.0359 20.6006C26.019 20.6175 26.0069 20.5874 26.0091 20.5337L26.0093 20.5338ZM0.00344849 20.258C0.00344849 20.104 0.0129946 20.0409 0.0246596 20.118C0.0363247 20.195 0.0363247 20.321 0.0246596 20.398C0.0129946 20.475 0.00344849 20.412 0.00344849 20.258ZM39.9206 20.1307C39.9209 19.9627 39.9304 19.9001 39.9417 19.9916C39.953 20.0831 39.9528 20.2206 39.9413 20.2971C39.9297 20.3736 39.9204 20.2987 39.9207 20.1307H39.9206ZM30.2861 19.77C30.2886 19.7107 30.3006 19.6987 30.3168 19.7393C30.3315 19.776 30.3297 19.8199 30.3127 19.8369C30.2957 19.8538 30.2837 19.8237 30.2859 19.77L30.2861 19.77ZM30.2903 19.4433C30.2903 19.3733 30.3018 19.3447 30.3159 19.3797C30.33 19.4147 30.33 19.472 30.3159 19.507C30.3018 19.542 30.2903 19.5133 30.2903 19.4433ZM0.0431251 19.3118C0.0455536 19.2525 0.057632 19.2404 0.073886 19.281C0.088595 19.3178 0.0867872 19.3617 0.0698674 19.3786C0.0529476 19.3955 0.0409143 19.3655 0.0431251 19.3118V19.3118ZM39.8579 19.2609C39.8604 19.2016 39.8724 19.1895 39.8887 19.2301C39.9034 19.2669 39.9016 19.3108 39.8845 19.3277C39.8676 19.3446 39.8555 19.3146 39.8577 19.2609L39.8579 19.2609ZM26.0133 19.0869C26.0133 19.0169 26.0249 18.9883 26.039 19.0233C26.0531 19.0583 26.0531 19.1156 26.039 19.1506C26.0249 19.1856 26.0133 19.1569 26.0133 19.0869ZM34.5285 18.4632L34.4315 18.3487L34.5461 18.4457C34.6538 18.5368 34.6838 18.5778 34.6431 18.5778C34.6334 18.5778 34.5819 18.5263 34.5285 18.4632ZM30.6894 18.4058C30.6894 18.3953 30.7295 18.3552 30.7785 18.3167C30.8592 18.2534 30.861 18.2552 30.7977 18.336C30.7312 18.4208 30.6894 18.4477 30.6894 18.4058L30.6894 18.4058ZM0.144953 18.2935C0.147381 18.2342 0.159461 18.2222 0.175715 18.2628C0.190424 18.2995 0.188615 18.3434 0.171695 18.3603C0.154775 18.3773 0.142742 18.3472 0.144953 18.2935V18.2935ZM39.7601 18.2723C39.7601 18.2023 39.7717 18.1737 39.7858 18.2087C39.7999 18.2437 39.7999 18.3009 39.7858 18.3359C39.7717 18.3709 39.7601 18.3423 39.7601 18.2723ZM30.893 18.2022C30.893 18.1916 30.9331 18.1515 30.9821 18.1131C31.0629 18.0497 31.0647 18.0515 31.0013 18.1323C30.9348 18.2171 30.893 18.2441 30.893 18.2022L30.893 18.2022ZM0.199886 17.865C0.199886 17.795 0.211442 17.7663 0.225565 17.8013C0.239688 17.8364 0.239688 17.8936 0.225565 17.9286C0.211442 17.9636 0.199886 17.935 0.199886 17.865ZM38.5507 16.3248L38.4538 16.2103L38.5683 16.3073C38.6313 16.3606 38.6829 16.4122 38.6829 16.4218C38.6829 16.4626 38.6419 16.4325 38.5507 16.3248ZM37.8617 15.6375C37.7984 15.5567 37.8002 15.5549 37.881 15.6183C37.9658 15.6848 37.9927 15.7266 37.9508 15.7266C37.9403 15.7266 37.9002 15.6865 37.8617 15.6375L37.8617 15.6375ZM27.3799 15.4019C27.3799 15.3913 27.4201 15.3512 27.469 15.3128C27.5498 15.2495 27.5516 15.2513 27.4883 15.332C27.4218 15.4168 27.3799 15.4438 27.3799 15.4019L27.3799 15.4019ZM28.0927 14.6891C28.0927 14.6785 28.1329 14.6384 28.1818 14.6C28.2626 14.5367 28.2644 14.5385 28.2011 14.6192C28.1346 14.704 28.0927 14.731 28.0927 14.6891L28.0927 14.6891ZM35.5706 8.35679C35.5073 8.27604 35.5091 8.27424 35.5898 8.33758C35.6746 8.40409 35.7016 8.4459 35.6597 8.4459C35.6492 8.4459 35.609 8.40579 35.5706 8.3568V8.35679ZM35.1124 7.79674C35.0491 7.71599 35.0509 7.71418 35.1316 7.77752C35.1806 7.81596 35.2207 7.85605 35.2207 7.86662C35.2207 7.90853 35.1789 7.88157 35.1124 7.79675L35.1124 7.79674ZM5.20688 7.32579C5.25757 7.26978 5.31049 7.22396 5.32449 7.22396C5.33849 7.22396 5.30848 7.26978 5.25779 7.32579C5.20711 7.38179 5.15419 7.42762 5.14018 7.42762C5.12618 7.42762 5.1562 7.38179 5.20688 7.32579ZM6.53065 6.00202C6.58133 5.94601 6.63425 5.90019 6.64826 5.90019C6.66226 5.90019 6.63224 5.94601 6.58156 6.00202C6.53088 6.05803 6.47795 6.10385 6.46395 6.10385C6.44995 6.10385 6.47996 6.05803 6.53065 6.00202ZM33.3304 5.96383C33.2671 5.88308 33.2689 5.88128 33.3496 5.94462C33.3986 5.98305 33.4387 6.02314 33.4387 6.03372C33.4387 6.07562 33.3969 6.04867 33.3304 5.96384L33.3304 5.96383Z" fill="#0078CF"/>
<path d="M16.1693 40.3852C16.2061 40.3705 16.25 40.3723 16.2669 40.3893C16.2838 40.4063 16.2537 40.4183 16.2001 40.4161C16.1408 40.4136 16.1287 40.4016 16.1693 40.3853V40.3852ZM23.7046 40.3852C23.7414 40.3705 23.7853 40.3723 23.8022 40.3893C23.8191 40.4063 23.789 40.4183 23.7353 40.4161C23.676 40.4136 23.664 40.4016 23.7046 40.3853L23.7046 40.3852ZM6.78037 35.774L6.68338 35.6595L6.79794 35.7565C6.9056 35.8476 6.93567 35.8886 6.89493 35.8886C6.88527 35.8886 6.83372 35.837 6.78037 35.774ZM30.5271 35.8029C30.5638 35.7882 30.6077 35.79 30.6247 35.8071C30.6416 35.824 30.6115 35.836 30.5578 35.8338C30.4985 35.8313 30.4865 35.8193 30.5271 35.803L30.5271 35.8029ZM6.22324 35.2649L5.97059 34.9976L6.23789 35.2502C6.48627 35.485 6.52853 35.5322 6.49054 35.5322C6.48249 35.5322 6.36221 35.4119 6.22324 35.2649ZM5.56136 34.603L5.30871 34.3357L5.576 34.5883C5.82438 34.8231 5.86665 34.8703 5.82866 34.8703C5.82061 34.8703 5.70032 34.75 5.56136 34.603ZM4.97127 33.9666C4.90794 33.8858 4.90974 33.884 4.99049 33.9473C5.0395 33.9858 5.07959 34.0259 5.07959 34.0364C5.07959 34.0784 5.03778 34.0514 4.97127 33.9666V33.9666ZM26.457 33.8138C26.3937 33.7331 26.3955 33.7313 26.4762 33.7946C26.5252 33.833 26.5653 33.8731 26.5653 33.8837C26.5653 33.9256 26.5235 33.8987 26.457 33.8138L26.457 33.8138ZM4.61487 33.5593C4.55154 33.4785 4.55334 33.4767 4.63409 33.54C4.7189 33.6065 4.74587 33.6484 4.70397 33.6484C4.6934 33.6484 4.6533 33.6082 4.61487 33.5593H4.61487ZM25.6959 33.0501L25.5725 32.9101L25.7125 33.0335C25.7895 33.1014 25.8525 33.1644 25.8525 33.1735C25.8525 33.2135 25.8113 33.181 25.6959 33.0501ZM25.3878 32.6937C25.3245 32.613 25.3263 32.6112 25.407 32.6745C25.4918 32.741 25.5188 32.7828 25.4769 32.7828C25.4663 32.7828 25.4262 32.7427 25.3878 32.6937L25.3878 32.6937ZM29.9701 31.1154C29.9067 31.0346 29.9085 31.0328 29.9893 31.0962C30.0383 31.1346 30.0784 31.1747 30.0784 31.1853C30.0784 31.2272 30.0366 31.2002 29.9701 31.1154L29.9701 31.1154ZM34.6861 31.0517C34.7368 30.9957 34.7897 30.9499 34.8037 30.9499C34.8177 30.9499 34.7877 30.9957 34.737 31.0517C34.6863 31.1077 34.6334 31.1536 34.6194 31.1536C34.6054 31.1536 34.6354 31.1077 34.6861 31.0517ZM29.7155 30.9117C29.6522 30.831 29.654 30.8292 29.7347 30.8925C29.7837 30.9309 29.8238 30.971 29.8238 30.9816C29.8238 31.0235 29.782 30.9965 29.7155 30.9117H29.7155ZM29.1316 30.3262L29.0347 30.2116L29.1492 30.3086C29.2569 30.3998 29.2869 30.4408 29.2462 30.4408C29.2365 30.4408 29.185 30.3892 29.1316 30.3262ZM35.2834 29.4734C35.2834 29.3754 35.2939 29.3353 35.3067 29.3843C35.3195 29.4333 35.3195 29.5135 35.3067 29.5625C35.2939 29.6115 35.2834 29.5714 35.2834 29.4734ZM35.2756 29.0873C35.2782 29.028 35.2901 29.0159 35.3064 29.0565C35.3211 29.0933 35.3193 29.1372 35.3022 29.1541C35.2853 29.171 35.2733 29.141 35.2755 29.0873L35.2756 29.0873ZM39.1669 25.8591C39.1491 25.8302 39.1694 25.8217 39.2148 25.8391C39.303 25.8729 39.3192 25.9094 39.2459 25.9094C39.2196 25.9094 39.184 25.8868 39.1669 25.8591V25.8591ZM38.4998 25.0821L38.4028 24.9675L38.5174 25.0645C38.5804 25.1178 38.632 25.1694 38.632 25.1791C38.632 25.2198 38.591 25.1897 38.4998 25.0821ZM0.399525 24.7596C0.401953 24.7003 0.414031 24.6882 0.430285 24.7288C0.444994 24.7656 0.443187 24.8095 0.426267 24.8264C0.409347 24.8433 0.397314 24.8133 0.399525 24.7596V24.7596ZM39.5015 24.7596C39.504 24.7003 39.516 24.6882 39.5323 24.7288C39.547 24.7656 39.5452 24.8095 39.5281 24.8264C39.5112 24.8433 39.4991 24.8133 39.5013 24.7596L39.5015 24.7596ZM28.0862 24.5984C28.0229 24.5176 28.0247 24.5158 28.1055 24.5792C28.1545 24.6176 28.1946 24.6577 28.1946 24.6683C28.1946 24.7102 28.1528 24.6832 28.0862 24.5984L28.0862 24.5984ZM27.8317 24.3947C27.7683 24.314 27.7702 24.3122 27.8509 24.3755C27.8999 24.4139 27.94 24.454 27.94 24.4646C27.94 24.5065 27.8982 24.4796 27.8317 24.3947L27.8317 24.3947ZM27.4281 24.0383L27.2527 23.8474L27.4436 24.0229C27.6213 24.1862 27.6579 24.2293 27.619 24.2293C27.6105 24.2293 27.5246 24.1433 27.4281 24.0383ZM0.201774 23.5419C0.202821 23.4579 0.214221 23.4297 0.22713 23.4792C0.240039 23.5288 0.23919 23.5975 0.225247 23.632C0.2113 23.6664 0.200736 23.6259 0.201774 23.5419ZM39.7092 23.5674C39.7092 23.4974 39.7207 23.4687 39.7349 23.5037C39.749 23.5387 39.749 23.596 39.7349 23.631C39.7207 23.666 39.7092 23.6374 39.7092 23.5674ZM39.7561 23.1813C39.7586 23.122 39.7706 23.1099 39.7869 23.1505C39.8016 23.1873 39.7998 23.2312 39.7827 23.2481C39.7658 23.265 39.7537 23.2349 39.7559 23.1813L39.7561 23.1813ZM0.144954 23.1304C0.147383 23.071 0.159461 23.059 0.175715 23.0996C0.190424 23.1363 0.188616 23.1803 0.171697 23.1972C0.154777 23.2141 0.142744 23.184 0.144954 23.1303V23.1304ZM0.0999463 22.7273C0.100993 22.6433 0.112394 22.6151 0.125302 22.6646C0.138211 22.7142 0.13736 22.7829 0.123417 22.8174C0.109471 22.8518 0.0989121 22.8113 0.0999463 22.7273ZM39.807 22.774C39.8095 22.7146 39.8215 22.7026 39.8378 22.7432C39.8525 22.7799 39.8507 22.8239 39.8336 22.8408C39.8167 22.8577 39.8046 22.8276 39.8068 22.7739L39.807 22.774ZM39.8579 22.2139C39.8604 22.1546 39.8724 22.1425 39.8887 22.1831C39.9034 22.2199 39.9016 22.2638 39.8845 22.2807C39.8676 22.2976 39.8555 22.2676 39.8577 22.2139L39.8579 22.2139ZM0.0431251 22.1121C0.0455536 22.0528 0.0576336 22.0407 0.0738876 22.0813C0.0885966 22.1181 0.0867872 22.162 0.0698674 22.1789C0.0529476 22.1958 0.0409143 22.1657 0.0431251 22.1121V22.1121ZM39.9236 20.9198C39.9236 20.6258 39.9321 20.5055 39.9424 20.6525C39.9527 20.7996 39.9527 21.0401 39.9424 21.1871C39.9321 21.3342 39.9236 21.2139 39.9236 20.9198ZM30.9161 20.958L30.7148 20.7416L30.9312 20.9429C31.0502 21.0536 31.1476 21.151 31.1476 21.1593C31.1476 21.1978 31.1032 21.1593 30.9161 20.958ZM0.00344849 20.7671C0.00344849 20.6131 0.0129962 20.5501 0.0246612 20.6271C0.0363262 20.7041 0.0363262 20.8301 0.0246612 20.9071C0.0129962 20.9841 0.00344849 20.9211 0.00344849 20.7671ZM26.0171 20.7671C26.0171 20.6691 26.0275 20.629 26.0404 20.678C26.0532 20.727 26.0532 20.8072 26.0404 20.8562C26.0275 20.9052 26.0171 20.8651 26.0171 20.7671ZM25.9706 19.8506C25.9706 19.6686 25.9799 19.5942 25.9912 19.6852C26.0025 19.7762 26.0025 19.9251 25.9912 20.0161C25.9799 20.1071 25.9706 20.0327 25.9706 19.8506ZM30.2861 19.6173C30.2886 19.558 30.3006 19.5459 30.3168 19.5865C30.3315 19.6233 30.3297 19.6672 30.3127 19.6841C30.2957 19.701 30.2837 19.671 30.2859 19.6173L30.2861 19.6173ZM0.0431251 19.4645C0.0455536 19.4052 0.0576336 19.3932 0.0738876 19.4338C0.0885966 19.4705 0.0867872 19.5144 0.0698674 19.5314C0.0529476 19.5483 0.0409143 19.5182 0.0431251 19.4645V19.4645ZM39.8579 19.4136C39.8604 19.3543 39.8724 19.3423 39.8887 19.3829C39.9034 19.4196 39.9016 19.4635 39.8845 19.4804C39.8676 19.4974 39.8555 19.4673 39.8577 19.4136L39.8579 19.4136ZM35.0429 19.3421C35.025 19.3132 35.0454 19.3047 35.0908 19.3221C35.179 19.3559 35.1951 19.3924 35.1219 19.3924C35.0956 19.3924 35.06 19.3698 35.0429 19.3421H35.0429ZM26.0152 18.8578C26.016 18.7738 26.0276 18.7456 26.0406 18.7951C26.0535 18.8447 26.0526 18.9134 26.0385 18.9479C26.0245 18.9823 26.014 18.9418 26.015 18.8578H26.0152ZM0.0940398 18.8536C0.0964682 18.7943 0.108548 18.7822 0.124802 18.8228C0.139511 18.8596 0.137702 18.9035 0.120782 18.9204C0.103862 18.9373 0.091829 18.9073 0.0940398 18.8536V18.8536ZM39.807 18.8027C39.8095 18.7434 39.8215 18.7313 39.8378 18.7719C39.8525 18.8087 39.8507 18.8526 39.8336 18.8695C39.8167 18.8864 39.8046 18.8563 39.8068 18.8027L39.807 18.8027ZM26.0602 18.4972C26.0627 18.4379 26.0747 18.4258 26.091 18.4664C26.1057 18.5032 26.1039 18.5471 26.0868 18.564C26.0699 18.5809 26.0579 18.5509 26.06 18.4972L26.0602 18.4972ZM0.144954 18.4463C0.147383 18.387 0.159461 18.3749 0.175715 18.4155C0.190424 18.4523 0.188616 18.4962 0.171697 18.5131C0.154777 18.53 0.142744 18.4999 0.144954 18.4463V18.4463ZM39.7561 18.4463C39.7586 18.387 39.7706 18.3749 39.7869 18.4155C39.8016 18.4523 39.7998 18.4962 39.7827 18.5131C39.7658 18.53 39.7537 18.4999 39.7559 18.4463L39.7561 18.4463ZM0.195867 18.039C0.198296 17.9797 0.210376 17.9676 0.22663 18.0082C0.241339 18.045 0.23953 18.0889 0.22261 18.1058C0.20569 18.1227 0.193657 18.0926 0.195867 18.0389V18.039ZM8.049 18.0814C8.9121 18.0736 10.3097 18.0736 11.1548 18.0814C11.9998 18.0893 11.2937 18.0957 9.58549 18.0957C7.87732 18.0957 7.1859 18.0893 8.049 18.0814V18.0814ZM18.8428 18.0814C19.7059 18.0736 21.1035 18.0736 21.9485 18.0814C22.7936 18.0893 22.0874 18.0957 20.3793 18.0957C18.6711 18.0957 17.9797 18.0893 18.8428 18.0814V18.0814ZM39.7111 17.9923C39.7119 17.9083 39.7235 17.8801 39.7364 17.9296C39.7493 17.9792 39.7485 18.0479 39.7344 18.0824C39.7204 18.1168 39.7099 18.0763 39.7109 17.9923H39.7111ZM23.5337 16.083C23.5337 14.9769 23.5404 14.5244 23.5486 15.0775C23.5568 15.6305 23.5568 16.5355 23.5486 17.0886C23.5404 17.6416 23.5337 17.1891 23.5337 16.083ZM32.1022 17.6276C32.1372 17.6135 32.1945 17.6135 32.2295 17.6276C32.2645 17.6417 32.2359 17.6533 32.1659 17.6533C32.0959 17.6533 32.0672 17.6417 32.1022 17.6276ZM32.8659 17.6276C32.9009 17.6135 32.9582 17.6135 32.9932 17.6276C33.0282 17.6417 32.9996 17.6533 32.9296 17.6533C32.8596 17.6533 32.8309 17.6417 32.8659 17.6276ZM0.34861 17.1225C0.351038 17.0632 0.363118 17.0511 0.379372 17.0917C0.394081 17.1285 0.392272 17.1724 0.375352 17.1893C0.358432 17.2062 0.346399 17.1762 0.34861 17.1225V17.1225ZM0.399525 16.817C0.401953 16.7577 0.414031 16.7457 0.430285 16.7863C0.444994 16.823 0.443187 16.8669 0.426267 16.8838C0.409347 16.9008 0.397314 16.8707 0.399525 16.817V16.817ZM39.5015 16.817C39.504 16.7577 39.516 16.7457 39.5323 16.7863C39.547 16.823 39.5452 16.8669 39.5281 16.8838C39.5112 16.9008 39.4991 16.8707 39.5013 16.817L39.5015 16.817ZM38.7338 16.7766C38.7338 16.766 38.7739 16.7259 38.8229 16.6875C38.9036 16.6242 38.9054 16.626 38.8421 16.7067C38.7756 16.7915 38.7338 16.8185 38.7338 16.7766L38.7338 16.7766ZM38.2219 15.943L38.0464 15.7521L38.2374 15.9275C38.4151 16.0908 38.4517 16.1339 38.4128 16.1339C38.4043 16.1339 38.3184 16.048 38.2219 15.943ZM37.6852 15.4593L37.5882 15.3448L37.7028 15.4417C37.8104 15.5329 37.8405 15.5739 37.7998 15.5739C37.7901 15.5739 37.7385 15.5223 37.6852 15.4593ZM37.4544 15.2811C37.3911 15.2004 37.3929 15.1986 37.4736 15.2619C37.5585 15.3284 37.5854 15.3702 37.5435 15.3702C37.533 15.3702 37.4929 15.3301 37.4544 15.2811L37.4544 15.2811ZM27.7363 14.9884C27.8885 14.8343 28.0244 14.7083 28.0384 14.7083C28.0523 14.7083 27.9394 14.8343 27.7873 14.9884C27.6352 15.1424 27.4993 15.2684 27.4853 15.2684C27.4713 15.2684 27.5842 15.1424 27.7363 14.9884ZM33.9383 13.6553C33.9751 13.6406 34.019 13.6424 34.0359 13.6595C34.0528 13.6764 34.0228 13.6884 33.9691 13.6862C33.9098 13.6837 33.8977 13.6717 33.9383 13.6554L33.9383 13.6553ZM30.9067 13.4511C30.9563 13.4382 31.025 13.4391 31.0595 13.4532C31.0939 13.4671 31.0534 13.4777 30.9694 13.4767C30.8854 13.4758 30.8572 13.4642 30.9067 13.4513V13.4511ZM32.6368 13.4513C32.6858 13.4385 32.766 13.4385 32.815 13.4513C32.864 13.4641 32.8239 13.4746 32.7259 13.4746C32.6279 13.4746 32.5878 13.4641 32.6368 13.4513ZM4.64682 7.98768C4.69751 7.93168 4.75043 7.88585 4.76443 7.88585C4.77844 7.88585 4.74842 7.93168 4.69774 7.98768C4.64705 8.04369 4.59413 8.08951 4.58013 8.08951C4.56613 8.08951 4.59614 8.04369 4.64682 7.98768ZM35.2651 8.00041C35.2018 7.91966 35.2036 7.91786 35.2843 7.9812C35.3692 8.04771 35.3961 8.08952 35.3542 8.08952C35.3437 8.08952 35.3036 8.04941 35.2651 8.00042V8.00041ZM34.9358 7.61856L34.8389 7.504L34.9534 7.60099C35.0611 7.69214 35.0911 7.73312 35.0504 7.73312C35.0407 7.73312 34.9892 7.68157 34.9358 7.61856ZM5.00322 7.58038C5.05391 7.52437 5.10683 7.47855 5.12083 7.47855C5.13483 7.47855 5.10482 7.52437 5.05413 7.58038C5.00345 7.63638 4.95053 7.6822 4.93652 7.6822C4.92252 7.6822 4.95254 7.63638 5.00322 7.58038ZM5.79239 6.74029C6.05731 6.47426 6.28552 6.25661 6.29952 6.25661C6.31352 6.25661 6.10822 6.47426 5.8433 6.74029C5.57838 7.00632 5.35017 7.22398 5.33617 7.22398C5.32217 7.22398 5.52747 7.00632 5.79239 6.74029ZM34.3782 7.00759L34.177 6.7912L34.3934 6.99247C34.5946 7.17964 34.6331 7.22398 34.5946 7.22398C34.5863 7.22398 34.4889 7.1266 34.3782 7.00759ZM33.6659 6.29479L33.4133 6.0275L33.6806 6.28015C33.9289 6.51492 33.9712 6.56209 33.9332 6.56209C33.9252 6.56209 33.8049 6.44181 33.6659 6.29479ZM6.78521 5.79838C6.8359 5.74238 6.88882 5.69655 6.90282 5.69655C6.91683 5.69655 6.88681 5.74238 6.83613 5.79838C6.78544 5.85439 6.73252 5.90021 6.71852 5.90021C6.70452 5.90021 6.73453 5.85439 6.78521 5.79838ZM33.0785 5.7602L32.955 5.62018L33.0951 5.74361C33.1721 5.8115 33.2351 5.87451 33.2351 5.88363C33.2351 5.92357 33.1938 5.89108 33.0785 5.7602ZM23.6537 1.18134C23.6904 1.16663 23.7343 1.16844 23.7513 1.18536C23.7682 1.20227 23.7381 1.21431 23.6844 1.2121C23.6251 1.20967 23.6131 1.19759 23.6537 1.18134H23.6537ZM17.4899 0.978742C17.5249 0.964619 17.5822 0.964619 17.6172 0.978742C17.6522 0.992864 17.6235 1.00442 17.5535 1.00442C17.4835 1.00442 17.4549 0.992864 17.4899 0.978742ZM22.3532 0.977192C22.4027 0.964284 22.4714 0.965134 22.5059 0.979077C22.5404 0.993024 22.4998 1.00358 22.4158 1.00255C22.3318 1.0015 22.3036 0.990101 22.3532 0.977192ZM17.9481 0.927828C17.9831 0.913706 18.0404 0.913706 18.0754 0.927828C18.1104 0.941951 18.0818 0.953505 18.0118 0.953505C17.9418 0.953505 17.9131 0.941951 17.9481 0.927828ZM21.8685 0.927828C21.9035 0.913706 21.9608 0.913706 21.9958 0.927828C22.0308 0.941951 22.0021 0.953505 21.9321 0.953505C21.8621 0.953505 21.8335 0.941951 21.8685 0.927828Z" fill="#0078CF"/>
<path d="M16.3825 40.4228C13.8786 39.9708 11.5704 39.0602 9.2091 37.5929C8.76451 37.3166 7.36315 36.2715 6.98887 35.9371C5.48842 34.5965 4.40017 33.364 3.36852 31.837C2.1562 30.0427 1.07957 27.5896 0.599411 25.5276C0.41995 24.757 0.25684 23.8343 0.158378 23.0328C0.0263214 21.9579 0.0258327 19.5729 0.157456 18.527C0.60573 14.9647 1.72902 12.073 3.82477 9.08642C4.43552 8.21606 6.13225 6.38171 7.05784 5.59111C7.48885 5.22297 8.80446 4.24553 9.21024 3.99198C11.8913 2.31674 14.7152 1.31187 17.6554 0.986855C18.5505 0.887904 21.3874 0.885336 22.2885 0.982661C24.9171 1.26653 27.6659 2.18401 30.0275 3.56568C30.9133 4.08398 32.0091 4.85248 32.7514 5.47602C35.0624 7.41744 36.9572 9.92812 38.2013 12.6973C38.9793 14.4291 39.4667 16.1914 39.7644 18.3488C39.9175 19.459 39.9291 21.9761 39.7863 23.1092C39.6516 24.1771 39.3154 25.8586 39.2365 25.8586C39.2188 25.8586 39.1165 25.7497 39.0093 25.6167C38.5663 25.0675 37.7819 24.3798 37.1532 23.9896C36.4833 23.5738 35.858 23.2915 34.8643 22.9562C31.8668 21.9447 30.4701 20.961 30.3477 19.775C30.2871 19.1877 30.5667 18.5068 31.0231 18.1306C31.5098 17.7294 32.2159 17.553 32.945 17.6505C33.77 17.7607 34.5553 18.3192 34.9144 19.0511C35.0078 19.2414 35.1101 19.3872 35.1417 19.3751C35.1732 19.363 36.0289 18.7528 37.0431 18.0191L38.8871 16.6851L38.7745 16.527C38.5705 16.2405 37.7362 15.452 37.3207 15.1531C36.2219 14.3625 35.1509 13.9007 33.7187 13.6C33.1061 13.4713 32.9679 13.461 31.8604 13.461C30.7152 13.461 30.6428 13.4669 30.1716 13.5987C28.0129 14.2026 26.6379 15.7778 26.1243 18.2351C25.9424 19.105 25.933 20.456 26.1026 21.3272C26.446 23.0913 27.0364 23.9256 28.7292 25.0393C29.2446 25.3784 31.1058 26.3337 32.0131 26.7248C33.4205 27.3315 34.5829 28.0032 34.9439 28.4184C35.2184 28.7342 35.288 28.9307 35.2808 29.3694C35.2635 30.4125 34.8739 31.0894 34.0751 31.4638C33.3267 31.8146 31.9364 31.9248 31.1693 31.6942C30.13 31.3817 29.2468 30.6255 28.5312 29.4353C28.426 29.2603 28.3212 29.1171 28.2983 29.1171C28.2754 29.1171 27.4236 29.6183 26.4054 30.231C25.213 30.9486 24.5542 31.3738 24.5542 31.426C24.5542 31.559 25.3605 32.6786 25.7869 33.1378C27.5675 35.0552 29.5809 35.933 32.2168 35.941L32.955 35.9431L32.8023 36.0723C32.4873 36.3388 31.0479 37.3982 30.7348 37.594C28.3885 39.0611 26.0536 39.9783 23.5359 40.4219C23.0207 40.5127 22.7311 40.5202 19.921 40.5153C17.2732 40.5107 16.8017 40.4983 16.3825 40.4227V40.4228ZM17.299 26.8259V18.1196L20.3665 18.1188C22.0537 18.1184 23.463 18.0997 23.4984 18.0772C23.5487 18.0453 23.5597 17.6062 23.5493 16.0542L23.536 14.0719L14.9945 14.059L6.45312 14.0461L6.46643 16.0701L6.47974 18.0941L9.57277 18.1072L12.6658 18.1203V26.8262V35.5321H14.9824H17.299L17.299 26.8259Z" fill="#0078CF"/>
</svg>
