<svg width="141" height="142" viewBox="0 0 141 142" fill="none" xmlns="http://www.w3.org/2000/svg">
<path d="M67.3484 141.611C61.4034 141.177 53.956 139.981 53.956 139.46C53.956 139.35 54.4601 138.053 55.0762 136.578C55.6923 135.104 56.3891 133.409 56.6247 132.812C57.085 131.645 59.2993 126.217 60.1432 124.186C60.4261 123.505 61.1283 121.783 61.7037 120.36C62.279 118.936 62.8446 117.569 62.9605 117.321C63.0764 117.073 63.7216 115.503 64.3942 113.832C65.0668 112.161 65.9375 110.034 66.3292 109.105C66.7209 108.177 67.229 106.911 67.4584 106.292C67.6878 105.673 68.2456 104.306 68.6981 103.253C69.1505 102.201 69.6662 100.935 69.8442 100.44C70.0221 99.9446 70.3166 99.2356 70.4985 98.8642C70.6805 98.4928 70.9901 97.7838 71.1865 97.2886L71.5437 96.3883L71.8786 97.1761C72.0629 97.6094 72.4045 98.521 72.6379 99.2018C73.0807 100.494 74.0301 103.146 76.0214 108.655C76.6703 110.45 77.4786 112.729 77.8177 113.72C78.1568 114.71 78.8072 116.533 79.2629 117.771C80.2122 120.349 81.0935 122.791 82.0658 125.536C83.3039 129.033 84.6017 132.621 84.7931 133.077C84.8969 133.324 85.4447 134.872 86.0103 136.517C86.7412 138.642 86.958 139.532 86.7596 139.592C82.671 140.826 71.9239 141.944 67.3484 141.611ZM99.5422 134.723C99.6298 134.437 99.881 133.797 100.1 133.302C100.32 132.807 101.424 130.224 102.554 127.562C103.684 124.901 104.772 122.368 104.973 121.935C105.173 121.502 105.869 119.831 106.521 118.221C108.024 114.506 108.354 113.715 108.89 112.54C109.13 112.016 109.326 111.527 109.326 111.454C109.326 111.333 110.531 108.384 111.261 106.719C111.756 105.588 113.77 100.647 114.874 97.8513C115.437 96.4277 116.029 94.959 116.191 94.5877C116.631 93.578 119.538 86.0939 121.131 81.8705C121.574 80.6944 122.132 79.2258 122.371 78.6068C122.858 77.3431 124.098 73.9449 125.123 71.0665C125.497 70.0143 125.894 68.9508 126.004 68.7032C126.324 67.9816 129.012 59.669 129.653 57.417C131.19 52.0204 131.897 45.3165 131.419 40.663C131.285 39.3536 131.113 38.0875 131.037 37.8495C130.752 36.9519 132.117 39.3198 133.383 41.9184C137.545 50.4587 139.673 59.0705 140.28 69.8286C140.522 74.1302 139.816 81.6863 138.7 86.7174C137.874 90.4406 136.289 95.6422 135.34 97.7388C135.172 98.1102 134.726 99.127 134.348 99.9983C132.503 104.253 128.822 110.524 126.342 113.638C125.6 114.569 124.557 115.864 124.123 116.39C121.705 119.325 116.682 124.207 113.743 126.478C110.199 129.217 105.291 132.367 102.349 133.792C101.792 134.062 100.896 134.499 100.359 134.763L99.383 135.244L99.5422 134.723ZM41.5765 134.712C29.4494 129.378 18.2717 119.88 11.3104 108.993C10.8354 108.25 10.2201 107.288 9.94304 106.855C9.06591 105.483 7.16245 101.9 6.36838 100.125C2.32888 91.0971 0.46944 83.0626 0.0340038 72.7546C-0.222686 66.678 1.00469 56.6927 2.67619 51.2593C3.57491 48.3378 4.73239 45.05 5.16328 44.1946L5.60403 43.3196L8.00332 43.4373C11.0644 43.5876 12.3673 44.1684 14.8218 46.477C15.9267 47.5162 16.0012 47.6987 17.8289 53.8477C18.1601 54.9619 18.6673 56.6331 18.9561 57.5616C19.2449 58.49 19.8018 60.3132 20.1937 61.6131C20.5856 62.9129 21.1415 64.7361 21.4292 65.6645C21.7168 66.593 22.275 68.4162 22.6696 69.716C23.0642 71.0159 23.6224 72.8391 23.91 73.7675C24.3951 75.3334 24.8029 76.6721 26.5156 82.3206C26.8722 83.4967 27.6302 85.9782 28.2002 87.8352C29.6294 92.4913 30.2454 94.5123 30.8762 96.6134C31.1735 97.6037 31.732 99.4269 32.1172 100.665C32.5025 101.903 32.9705 103.473 33.1574 104.154C33.3442 104.835 33.7394 106.151 34.0355 107.08C34.7324 109.265 35.5109 111.785 36.3996 114.733C37.1091 117.086 37.5236 118.441 38.8441 122.723C39.8832 126.092 42.4768 134.781 42.4768 134.893C42.4768 135.041 42.1966 134.985 41.5765 134.712ZM53.8368 109.878C53.755 109.515 53.4996 108.458 53.2691 107.53C52.7116 105.283 51.5901 100.52 51.2556 98.9767C51.108 98.2959 50.8463 97.2323 50.6741 96.6134C50.3794 95.5538 49.8561 93.3527 48.4535 87.2725C48.1251 85.8488 47.5505 83.4179 47.1766 81.8705C46.5126 79.1229 45.9609 76.8145 44.85 72.1363C44.5486 70.867 44 68.5625 43.6309 67.015C43.2618 65.4676 42.659 62.9354 42.2914 61.388C41.9238 59.8405 41.1516 56.5938 40.5754 54.1731L39.5277 49.7717L39.9893 47.6565C40.5124 45.2601 41.1618 44.3399 42.877 43.5648L43.8399 43.1297L43.7773 40.0481L43.7148 36.9665L25.9044 36.854L8.09398 36.7415L9.50777 34.3781C10.2854 33.0783 11.0205 31.9055 11.1413 31.772C11.2622 31.6385 11.6139 31.1321 11.923 30.6466C15.0205 25.7805 22.3164 18.3146 27.5226 14.6834C28.2326 14.1882 28.9251 13.6818 29.0615 13.558C29.6574 13.0173 37.782 8.26855 38.1113 8.26855C38.1555 8.26855 39.0565 7.86341 40.1135 7.36823C41.1705 6.87304 42.094 6.4679 42.1658 6.4679C42.2376 6.4679 42.6154 6.32872 43.0055 6.15862C51.0694 2.6424 65.264 0.288026 73.7633 1.05702C82.3075 1.83008 89.8371 3.65376 95.8214 6.39953C98.6813 7.71175 104.62 10.7432 104.825 10.9956C104.887 11.0718 105.342 11.3544 105.838 11.6236C106.665 12.0736 107.985 12.9412 108.544 13.4033C108.671 13.5082 109.077 13.7827 109.445 14.0133C110.013 14.3691 114.649 17.88 115.272 18.4264C115.386 18.5259 114.619 18.6041 113.569 18.6002C111.537 18.5922 111.168 18.6498 108.876 19.3271C105.931 20.1975 103.241 21.8044 101.33 23.8349C99.9387 25.3129 99.4514 26.0103 98.5192 27.8569C97.2778 30.3161 96.8578 32.1331 96.8555 35.0534C96.8535 38.0495 97.2243 39.685 98.4853 42.2373C99.4367 44.1628 102.053 46.9737 104.262 48.4445C107.287 50.4581 109.897 53.7631 111.461 57.5616C113.083 61.4986 113.813 64.8763 113.968 69.1533C114.064 71.8211 114.013 72.5634 113.636 73.9926C113.141 75.8731 111.483 80.446 110.585 82.408C110.264 83.1101 110.002 83.7421 110.002 83.8126C110.002 83.8831 109.855 84.2599 109.676 84.65C109.497 85.0401 108.448 87.3344 107.345 89.7484C106.241 92.1624 103.527 97.8224 101.313 102.326L97.2887 110.515L97.0299 109.641C95.571 104.717 94.9345 102.544 93.9055 98.9767C93.245 96.6865 92.1343 92.8883 91.4373 90.5362C90.7403 88.184 90.0715 85.8544 89.951 85.3592C89.8305 84.8641 89.4852 83.6486 89.1836 82.6583C88.5708 80.6454 87.9042 78.3789 86.7009 74.2177C86.2535 72.6702 85.6491 70.5938 85.3578 69.6035C85.0665 68.6131 84.5094 66.6887 84.1197 65.3269C83.73 63.9652 83.2591 62.3546 83.0732 61.7479C80.8653 54.5419 80.1479 50.5184 80.6382 48.0912C80.9267 46.6627 81.2327 46.0337 82.1624 44.957C83.4183 43.5025 83.4135 43.5038 87.9435 43.3814L92.1075 43.2689V40.1177V36.9665H70.9498H49.792V40.1146C49.792 42.7431 49.8477 43.27 50.1296 43.3071C52.0751 43.5627 52.2335 43.647 53.8641 45.2935C55.1532 46.5952 55.7003 47.3694 56.4367 48.9342C57.7579 51.7416 57.7364 51.6918 58.2163 53.0599C58.4551 53.7408 58.9508 55.1082 59.3177 56.0985C60.6598 59.7211 61.5873 62.4639 62.4004 65.2144C62.8578 66.7618 63.6656 69.4459 64.1954 71.1791C64.7253 72.9122 65.5774 75.7059 66.089 77.3872L67.0192 80.4443L66.0955 82.5641C65.5874 83.7301 64.9899 85.0891 64.7677 85.5843C64.5455 86.0795 63.7373 87.9533 62.9716 89.7484C62.206 91.5434 61.3329 93.5466 61.0315 94.1999C60.7301 94.8532 60.4828 95.4609 60.482 95.5504C60.4814 95.6399 60.3328 95.9964 60.1522 96.3428C59.9715 96.6892 59.4058 97.9553 58.895 99.1563C58.3842 100.357 57.8279 101.644 57.6587 102.015C57.4895 102.387 56.5938 104.456 55.6683 106.615C54.1837 110.076 53.9679 110.461 53.8368 109.878Z" fill="#00AAFF"/>
</svg>
